<?xml version="1.0" encoding="UTF-8"?>
<!-- Generator: Adobe Illustrator 26.5.0, SVG Export Plug-In . SVG Version: 6.00 Build 0)  -->
<svg xmlns:xl="http://www.w3.org/1999/xlink" xmlns:dc="http://purl.org/dc/elements/1.1/" xmlns="http://www.w3.org/2000/svg" xmlns:xlink="http://www.w3.org/1999/xlink" version="1.1" id="Layer_1" x="0px" y="0px" viewBox="0 0 1396 658" style="enable-background:new 0 0 1396 658;" xml:space="preserve">
<style type="text/css">
	.st0{fill:#F15623;}
	.st1{fill:none;stroke:#A5A5A5;stroke-width:0.5;stroke-linecap:round;stroke-linejoin:round;}
	.st2{enable-background:new    ;}
	.st3{fill:#FFFFFF;}
	.st4{fill:none;stroke:#000000;stroke-width:2;stroke-linecap:round;stroke-linejoin:round;}
	.st5{fill:#333333;}
	.st6{stroke:#000000;stroke-width:2;stroke-miterlimit:20;}
	.st7{stroke:#000000;stroke-miterlimit:10;}
	.st8{fill:none;stroke:#000000;stroke-width:2;stroke-linecap:round;stroke-linejoin:round;stroke-dasharray:8,8;}
</style>
<g id="Graphic_506">
	<rect x="430" y="391" class="st0" width="140" height="64"></rect>
	<rect x="430" y="391" class="st1" width="140" height="64"></rect>
	<g class="st2">
		<path class="st3" d="M476.7,425.5l2.2-0.2c0.1,0.8,0.4,1.3,0.8,1.7s1,0.5,1.7,0.5c0.7,0,1.3-0.2,1.7-0.5c0.4-0.3,0.6-0.7,0.6-1.1    c0-0.3-0.1-0.5-0.2-0.7c-0.2-0.2-0.4-0.4-0.8-0.5c-0.3-0.1-0.9-0.3-1.9-0.5c-1.2-0.3-2.1-0.7-2.6-1.1c-0.7-0.6-1.1-1.4-1.1-2.3    c0-0.6,0.2-1.1,0.5-1.6c0.3-0.5,0.8-0.9,1.4-1.2c0.6-0.3,1.4-0.4,2.3-0.4c1.4,0,2.5,0.3,3.2,0.9s1.1,1.5,1.1,2.5l-2.3,0.1    c-0.1-0.6-0.3-1-0.6-1.3c-0.3-0.3-0.8-0.4-1.5-0.4c-0.7,0-1.2,0.1-1.6,0.4c-0.2,0.2-0.4,0.4-0.4,0.7c0,0.3,0.1,0.5,0.3,0.7    c0.3,0.2,1,0.5,2.1,0.8s2,0.5,2.5,0.8s1,0.7,1.3,1.2s0.5,1.1,0.5,1.8c0,0.7-0.2,1.3-0.5,1.8c-0.4,0.6-0.9,1-1.5,1.3    c-0.7,0.3-1.5,0.4-2.5,0.4c-1.4,0-2.6-0.3-3.3-1C477.3,427.8,476.9,426.8,476.7,425.5z"></path>
		<path class="st3" d="M488,429.3v-11.5h3.7c1.4,0,2.3,0.1,2.8,0.2c0.7,0.2,1.2,0.5,1.6,1.1c0.4,0.6,0.7,1.3,0.7,2.2    c0,0.7-0.1,1.3-0.4,1.8c-0.3,0.5-0.6,0.9-1,1.1c-0.4,0.3-0.8,0.5-1.2,0.5c-0.6,0.1-1.4,0.2-2.4,0.2h-1.5v4.3H488z M490.3,419.8    v3.2h1.3c0.9,0,1.5-0.1,1.8-0.2c0.3-0.1,0.5-0.3,0.7-0.6c0.2-0.3,0.3-0.6,0.3-0.9c0-0.4-0.1-0.8-0.4-1c-0.2-0.3-0.6-0.4-0.9-0.5    c-0.3-0.1-0.8-0.1-1.7-0.1H490.3z"></path>
		<path class="st3" d="M498.6,429.3v-11.5h2.3v11.5H498.6z"></path>
		<path class="st3" d="M503.1,429.3v-11.5h4.9c1.2,0,2.1,0.1,2.7,0.3s1,0.6,1.3,1.1c0.3,0.5,0.5,1.1,0.5,1.8c0,0.9-0.3,1.6-0.8,2.1    c-0.5,0.6-1.3,0.9-2.3,1.1c0.5,0.3,0.9,0.6,1.2,1c0.3,0.3,0.8,1,1.3,1.9l1.4,2.2h-2.8l-1.7-2.5c-0.6-0.9-1-1.5-1.2-1.7    s-0.5-0.4-0.7-0.5c-0.2-0.1-0.6-0.1-1.2-0.1h-0.5v4.8H503.1z M505.4,422.7h1.7c1.1,0,1.8,0,2.1-0.1c0.3-0.1,0.5-0.3,0.6-0.5    s0.2-0.5,0.2-0.9c0-0.4-0.1-0.7-0.3-0.9c-0.2-0.2-0.5-0.4-0.9-0.4c-0.2,0-0.8,0-1.7,0h-1.8V422.7z"></path>
		<path class="st3" d="M514.7,429.3v-11.5h8.5v1.9H517v2.5h5.8v1.9H517v3.1h6.4v1.9H514.7z"></path>
	</g>
</g>
<g id="Graphic_505">
	<rect x="30" y="213.2" class="st0" width="140" height="64"></rect>
	<rect x="30" y="213.2" class="st1" width="140" height="64"></rect>
	<g class="st2">
		<path class="st3" d="M56,247.3l2.2,0.7c-0.3,1.2-0.9,2.2-1.7,2.8s-1.8,0.9-3,0.9c-1.5,0-2.8-0.5-3.8-1.6s-1.5-2.5-1.5-4.3    c0-1.9,0.5-3.4,1.5-4.4s2.3-1.6,3.9-1.6c1.4,0,2.5,0.4,3.4,1.2c0.5,0.5,0.9,1.2,1.2,2.1l-2.3,0.5c-0.1-0.6-0.4-1.1-0.8-1.4    s-1-0.5-1.6-0.5c-0.8,0-1.5,0.3-2.1,0.9s-0.8,1.6-0.8,3c0,1.4,0.3,2.5,0.8,3.1s1.2,0.9,2,0.9c0.6,0,1.1-0.2,1.6-0.6    S55.9,248.1,56,247.3z"></path>
		<path class="st3" d="M65.1,248.9l2.2,0.4c-0.3,0.8-0.7,1.4-1.3,1.8s-1.4,0.6-2.3,0.6c-1.4,0-2.5-0.5-3.2-1.4    c-0.5-0.8-0.8-1.7-0.8-2.9c0-1.4,0.4-2.5,1.1-3.2s1.6-1.2,2.7-1.2c1.2,0,2.2,0.4,2.9,1.2s1.1,2.1,1,3.7h-5.5    c0,0.7,0.2,1.2,0.5,1.5s0.8,0.5,1.3,0.5c0.3,0,0.6-0.1,0.9-0.3S64.9,249.3,65.1,248.9z M65.2,246.7c0-0.6-0.2-1.1-0.5-1.4    s-0.7-0.5-1.1-0.5c-0.5,0-0.9,0.2-1.2,0.5s-0.5,0.8-0.5,1.4H65.2z"></path>
		<path class="st3" d="M71.3,251.5h-2.2v-8.3h2v1.2c0.3-0.6,0.7-0.9,0.9-1.1s0.6-0.3,0.9-0.3c0.5,0,1,0.1,1.4,0.4l-0.7,1.9    c-0.4-0.2-0.7-0.4-1-0.4c-0.3,0-0.6,0.1-0.8,0.3s-0.4,0.5-0.5,0.9s-0.2,1.4-0.2,2.8V251.5z"></path>
		<path class="st3" d="M79.2,243.2v1.8h-1.5v3.3c0,0.7,0,1.1,0,1.2s0.1,0.2,0.2,0.3s0.2,0.1,0.4,0.1c0.2,0,0.5-0.1,0.9-0.2l0.2,1.7    c-0.5,0.2-1.1,0.3-1.7,0.3c-0.4,0-0.8-0.1-1.1-0.2s-0.6-0.3-0.7-0.5s-0.3-0.5-0.3-0.9c0-0.3-0.1-0.8-0.1-1.5V245h-1v-1.8h1v-1.6    l2.2-1.3v2.9H79.2z"></path>
		<path class="st3" d="M85.1,251.5v-11.5h3.5l2.1,7.8l2.1-7.8h3.5v11.5h-2.1v-9l-2.3,9h-2.2l-2.3-9v9H85.1z"></path>
		<path class="st3" d="M100.1,245.8l-2-0.4c0.2-0.8,0.6-1.4,1.2-1.8s1.4-0.6,2.4-0.6c1,0,1.7,0.1,2.2,0.3s0.8,0.5,1,0.9s0.3,1,0.3,2    l0,2.6c0,0.7,0,1.3,0.1,1.6s0.2,0.7,0.4,1.1h-2.2c-0.1-0.1-0.1-0.4-0.2-0.6c0-0.1-0.1-0.2-0.1-0.3c-0.4,0.4-0.8,0.6-1.2,0.8    s-0.9,0.3-1.4,0.3c-0.9,0-1.5-0.2-2-0.7s-0.7-1-0.7-1.8c0-0.5,0.1-0.9,0.3-1.3s0.5-0.6,0.9-0.8s1-0.4,1.7-0.5    c1-0.2,1.7-0.4,2.1-0.5v-0.2c0-0.4-0.1-0.7-0.3-0.9s-0.6-0.3-1.2-0.3c-0.4,0-0.7,0.1-0.9,0.2S100.3,245.4,100.1,245.8z     M103.1,247.5c-0.3,0.1-0.7,0.2-1.3,0.3s-1,0.3-1.2,0.4c-0.3,0.2-0.4,0.5-0.4,0.8c0,0.3,0.1,0.6,0.3,0.8s0.5,0.3,0.9,0.3    c0.4,0,0.8-0.1,1.1-0.4c0.3-0.2,0.4-0.4,0.5-0.7c0.1-0.2,0.1-0.5,0.1-1.1V247.5z"></path>
		<path class="st3" d="M114.9,251.5h-2.2v-4.2c0-0.9,0-1.5-0.1-1.7s-0.2-0.5-0.5-0.6s-0.5-0.2-0.8-0.2c-0.4,0-0.7,0.1-1,0.3    s-0.5,0.5-0.6,0.8s-0.2,1-0.2,1.9v3.8h-2.2v-8.3h2v1.2c0.7-0.9,1.6-1.4,2.7-1.4c0.5,0,0.9,0.1,1.3,0.3s0.7,0.4,0.9,0.7    s0.3,0.6,0.4,0.9s0.1,0.8,0.1,1.5V251.5z"></path>
		<path class="st3" d="M118.8,245.8l-2-0.4c0.2-0.8,0.6-1.4,1.2-1.8s1.4-0.6,2.4-0.6c1,0,1.7,0.1,2.2,0.3s0.8,0.5,1,0.9s0.3,1,0.3,2    l0,2.6c0,0.7,0,1.3,0.1,1.6s0.2,0.7,0.4,1.1h-2.2c-0.1-0.1-0.1-0.4-0.2-0.6c0-0.1-0.1-0.2-0.1-0.3c-0.4,0.4-0.8,0.6-1.2,0.8    s-0.9,0.3-1.4,0.3c-0.9,0-1.5-0.2-2-0.7s-0.7-1-0.7-1.8c0-0.5,0.1-0.9,0.3-1.3s0.5-0.6,0.9-0.8s1-0.4,1.7-0.5    c1-0.2,1.7-0.4,2.1-0.5v-0.2c0-0.4-0.1-0.7-0.3-0.9s-0.6-0.3-1.2-0.3c-0.4,0-0.7,0.1-0.9,0.2S118.9,245.4,118.8,245.8z     M121.7,247.5c-0.3,0.1-0.7,0.2-1.3,0.3s-1,0.3-1.2,0.4c-0.3,0.2-0.4,0.5-0.4,0.8c0,0.3,0.1,0.6,0.3,0.8s0.5,0.3,0.9,0.3    c0.4,0,0.8-0.1,1.1-0.4c0.3-0.2,0.4-0.4,0.5-0.7c0.1-0.2,0.1-0.5,0.1-1.1V247.5z"></path>
		<path class="st3" d="M125.8,252.1l2.5,0.3c0,0.3,0.1,0.5,0.3,0.6c0.2,0.2,0.5,0.2,1,0.2c0.6,0,1-0.1,1.3-0.3    c0.2-0.1,0.3-0.3,0.4-0.6c0.1-0.2,0.1-0.5,0.1-1v-1.2c-0.7,0.9-1.5,1.3-2.5,1.3c-1.1,0-2-0.5-2.6-1.4c-0.5-0.7-0.8-1.7-0.8-2.8    c0-1.4,0.3-2.5,1-3.2s1.5-1.1,2.5-1.1c1,0,1.9,0.5,2.5,1.4v-1.2h2.1v7.4c0,1-0.1,1.7-0.2,2.2s-0.4,0.9-0.7,1.1s-0.7,0.5-1.2,0.6    s-1.1,0.2-1.8,0.2c-1.4,0-2.4-0.2-3-0.7s-0.9-1.1-0.9-1.8C125.8,252.3,125.8,252.2,125.8,252.1z M127.8,247.2    c0,0.9,0.2,1.5,0.5,1.9s0.8,0.6,1.3,0.6c0.5,0,1-0.2,1.4-0.6s0.6-1,0.6-1.9c0-0.9-0.2-1.5-0.5-1.9s-0.8-0.6-1.3-0.6    c-0.5,0-1,0.2-1.3,0.6S127.8,246.4,127.8,247.2z"></path>
		<path class="st3" d="M140.6,248.9l2.2,0.4c-0.3,0.8-0.7,1.4-1.3,1.8s-1.4,0.6-2.3,0.6c-1.4,0-2.5-0.5-3.2-1.4    c-0.5-0.8-0.8-1.7-0.8-2.9c0-1.4,0.4-2.5,1.1-3.2s1.6-1.2,2.7-1.2c1.2,0,2.2,0.4,2.9,1.2s1.1,2.1,1,3.7h-5.5    c0,0.7,0.2,1.2,0.5,1.5s0.8,0.5,1.3,0.5c0.3,0,0.6-0.1,0.9-0.3S140.5,249.3,140.6,248.9z M140.8,246.7c0-0.6-0.2-1.1-0.5-1.4    s-0.7-0.5-1.1-0.5c-0.5,0-0.9,0.2-1.2,0.5s-0.5,0.8-0.5,1.4H140.8z"></path>
		<path class="st3" d="M146.8,251.5h-2.2v-8.3h2v1.2c0.3-0.6,0.7-0.9,0.9-1.1s0.6-0.3,0.9-0.3c0.5,0,1,0.1,1.4,0.4l-0.7,1.9    c-0.4-0.2-0.7-0.4-1-0.4c-0.3,0-0.6,0.1-0.8,0.3s-0.4,0.5-0.5,0.9s-0.2,1.4-0.2,2.8V251.5z"></path>
	</g>
</g>
<g id="Graphic_504">
	<rect x="229.7" y="213.2" class="st3" width="140" height="64"></rect>
	<rect x="229.7" y="213.2" class="st4" width="140" height="64"></rect>
	<g class="st2">
		<path d="M284.9,251.5l-4.1-11.5h2.5l2.9,8.5l2.8-8.5h2.5l-4.1,11.5H284.9z"></path>
		<path d="M293.4,245.8l-2-0.4c0.2-0.8,0.6-1.4,1.2-1.8s1.4-0.6,2.4-0.6c1,0,1.7,0.1,2.2,0.3s0.8,0.5,1,0.9s0.3,1,0.3,2l0,2.6    c0,0.7,0,1.3,0.1,1.6s0.2,0.7,0.4,1.1h-2.2c-0.1-0.1-0.1-0.4-0.2-0.6c0-0.1-0.1-0.2-0.1-0.3c-0.4,0.4-0.8,0.6-1.2,0.8    s-0.9,0.3-1.4,0.3c-0.9,0-1.5-0.2-2-0.7s-0.7-1-0.7-1.8c0-0.5,0.1-0.9,0.3-1.3s0.5-0.6,0.9-0.8s1-0.4,1.7-0.5    c1-0.2,1.7-0.4,2.1-0.5v-0.2c0-0.4-0.1-0.7-0.3-0.9s-0.6-0.3-1.2-0.3c-0.4,0-0.7,0.1-0.9,0.2S293.6,245.4,293.4,245.8z     M296.4,247.5c-0.3,0.1-0.7,0.2-1.3,0.3s-1,0.3-1.2,0.4c-0.3,0.2-0.4,0.5-0.4,0.8c0,0.3,0.1,0.6,0.3,0.8s0.5,0.3,0.9,0.3    c0.4,0,0.8-0.1,1.1-0.4c0.3-0.2,0.4-0.4,0.5-0.7c0.1-0.2,0.1-0.5,0.1-1.1V247.5z"></path>
		<path d="M306.1,251.5v-1.2c-0.3,0.4-0.7,0.8-1.2,1s-1,0.4-1.6,0.4c-0.6,0-1.1-0.1-1.5-0.4s-0.8-0.6-1-1s-0.3-1.1-0.3-1.8v-5.2h2.2    v3.8c0,1.2,0,1.9,0.1,2.1s0.2,0.5,0.4,0.6s0.5,0.2,0.8,0.2c0.4,0,0.7-0.1,1-0.3s0.5-0.5,0.6-0.8s0.2-1.1,0.2-2.2v-3.5h2.2v8.3    H306.1z"></path>
		<path d="M310.5,251.5v-11.5h2.2v11.5H310.5z"></path>
		<path d="M318.7,243.2v1.8h-1.5v3.3c0,0.7,0,1.1,0,1.2s0.1,0.2,0.2,0.3s0.2,0.1,0.4,0.1c0.2,0,0.5-0.1,0.9-0.2l0.2,1.7    c-0.5,0.2-1.1,0.3-1.7,0.3c-0.4,0-0.8-0.1-1.1-0.2s-0.6-0.3-0.7-0.5s-0.3-0.5-0.3-0.9c0-0.3-0.1-0.8-0.1-1.5V245h-1v-1.8h1v-1.6    l2.2-1.3v2.9H318.7z"></path>
	</g>
</g>
<g id="Graphic_503">
	<rect x="230" y="564" class="st5" width="140" height="64"></rect>
	<rect x="230" y="564" class="st1" width="140" height="64"></rect>
	<g class="st2">
		<path class="st3" d="M262.4,602.3l-2.7-11.5h2.4l1.7,7.9l2.1-7.9h2.8l2,8l1.8-8h2.3l-2.8,11.5h-2.5l-2.3-8.6l-2.3,8.6H262.4z"></path>
		<path class="st3" d="M275,598c0-0.7,0.2-1.4,0.5-2.1s0.9-1.2,1.5-1.6c0.7-0.4,1.4-0.5,2.2-0.5c1.3,0,2.3,0.4,3.1,1.2    c0.8,0.8,1.2,1.8,1.2,3.1c0,1.3-0.4,2.3-1.2,3.1c-0.8,0.8-1.8,1.2-3.1,1.2c-0.8,0-1.5-0.2-2.2-0.5c-0.7-0.3-1.2-0.8-1.6-1.5    S275,599,275,598z M277.3,598.1c0,0.8,0.2,1.5,0.6,1.9s0.9,0.7,1.4,0.7c0.6,0,1.1-0.2,1.4-0.7c0.4-0.4,0.6-1.1,0.6-1.9    c0-0.8-0.2-1.4-0.6-1.9c-0.4-0.4-0.9-0.7-1.4-0.7c-0.6,0-1.1,0.2-1.4,0.7S277.3,597.3,277.3,598.1z"></path>
		<path class="st3" d="M287.4,602.3h-2.2V594h2v1.2c0.3-0.6,0.7-0.9,0.9-1.1c0.3-0.2,0.6-0.3,0.9-0.3c0.5,0,1,0.1,1.4,0.4l-0.7,1.9    c-0.4-0.2-0.7-0.4-1-0.4c-0.3,0-0.6,0.1-0.8,0.3c-0.2,0.2-0.4,0.5-0.5,0.9c-0.1,0.4-0.2,1.4-0.2,2.8V602.3z"></path>
		<path class="st3" d="M291.5,602.3v-11.5h2.2v6.1l2.6-2.9h2.7l-2.8,3l3,5.3h-2.4l-2.1-3.7l-1,1.1v2.7H291.5z"></path>
		<path class="st3" d="M300.4,602.3v-11.5h2.2v11.5H300.4z"></path>
		<path class="st3" d="M304.4,598c0-0.7,0.2-1.4,0.5-2.1s0.9-1.2,1.5-1.6c0.7-0.4,1.4-0.5,2.2-0.5c1.3,0,2.3,0.4,3.1,1.2    c0.8,0.8,1.2,1.8,1.2,3.1c0,1.3-0.4,2.3-1.2,3.1c-0.8,0.8-1.8,1.2-3.1,1.2c-0.8,0-1.5-0.2-2.2-0.5c-0.7-0.3-1.2-0.8-1.6-1.5    S304.4,599,304.4,598z M306.6,598.1c0,0.8,0.2,1.5,0.6,1.9s0.9,0.7,1.4,0.7c0.6,0,1.1-0.2,1.4-0.7c0.4-0.4,0.6-1.1,0.6-1.9    c0-0.8-0.2-1.4-0.6-1.9c-0.4-0.4-0.9-0.7-1.4-0.7c-0.6,0-1.1,0.2-1.4,0.7S306.6,597.3,306.6,598.1z"></path>
		<path class="st3" d="M316.3,596.5l-2-0.4c0.2-0.8,0.6-1.4,1.2-1.8s1.4-0.6,2.4-0.6c1,0,1.7,0.1,2.2,0.3c0.5,0.2,0.8,0.5,1,0.9    s0.3,1,0.3,2l0,2.6c0,0.7,0,1.3,0.1,1.6s0.2,0.7,0.4,1.1h-2.2c-0.1-0.1-0.1-0.4-0.2-0.6c0-0.1-0.1-0.2-0.1-0.3    c-0.4,0.4-0.8,0.6-1.2,0.8c-0.4,0.2-0.9,0.3-1.4,0.3c-0.9,0-1.5-0.2-2-0.7s-0.7-1-0.7-1.8c0-0.5,0.1-0.9,0.3-1.3    c0.2-0.4,0.5-0.6,0.9-0.8c0.4-0.2,1-0.4,1.7-0.5c1-0.2,1.7-0.4,2.1-0.5v-0.2c0-0.4-0.1-0.7-0.3-0.9c-0.2-0.2-0.6-0.3-1.2-0.3    c-0.4,0-0.7,0.1-0.9,0.2S316.4,596.1,316.3,596.5z M319.2,598.3c-0.3,0.1-0.7,0.2-1.3,0.3s-1,0.3-1.2,0.4    c-0.3,0.2-0.4,0.5-0.4,0.8c0,0.3,0.1,0.6,0.3,0.8c0.2,0.2,0.5,0.3,0.9,0.3c0.4,0,0.8-0.1,1.1-0.4c0.3-0.2,0.4-0.4,0.5-0.7    c0.1-0.2,0.1-0.5,0.1-1.1V598.3z"></path>
		<path class="st3" d="M331.2,602.3h-2V601c-0.3,0.5-0.7,0.8-1.2,1.1s-0.9,0.3-1.4,0.3c-1,0-1.8-0.4-2.4-1.2s-1-1.8-1-3.2    c0-1.4,0.3-2.5,1-3.2c0.7-0.7,1.5-1.1,2.5-1.1c0.9,0,1.7,0.4,2.4,1.2v-4.1h2.2V602.3z M325.3,597.9c0,0.9,0.1,1.5,0.4,1.9    c0.4,0.6,0.8,0.9,1.5,0.9c0.5,0,0.9-0.2,1.3-0.6c0.4-0.4,0.5-1.1,0.5-1.9c0-1-0.2-1.6-0.5-2.1s-0.8-0.6-1.3-0.6    c-0.5,0-1,0.2-1.3,0.6S325.3,597.1,325.3,597.9z"></path>
		<path class="st3" d="M332.6,599.9l2.2-0.3c0.1,0.4,0.3,0.8,0.6,1c0.3,0.2,0.7,0.3,1.2,0.3c0.6,0,1-0.1,1.3-0.3    c0.2-0.1,0.3-0.3,0.3-0.6c0-0.2-0.1-0.3-0.2-0.4c-0.1-0.1-0.4-0.2-0.7-0.3c-1.8-0.4-2.9-0.7-3.4-1.1c-0.7-0.4-1-1.1-1-1.9    c0-0.7,0.3-1.3,0.9-1.8c0.6-0.5,1.4-0.7,2.6-0.7c1.1,0,2,0.2,2.5,0.6c0.6,0.4,0.9,0.9,1.1,1.6l-2.1,0.4c-0.1-0.3-0.3-0.6-0.5-0.7    c-0.2-0.2-0.6-0.3-1.1-0.3c-0.6,0-1,0.1-1.2,0.2c-0.2,0.1-0.2,0.3-0.2,0.4c0,0.2,0.1,0.3,0.2,0.4c0.2,0.1,0.9,0.4,2.1,0.6    c1.2,0.3,2,0.6,2.4,1c0.5,0.4,0.7,0.9,0.7,1.6c0,0.8-0.3,1.4-1,2c-0.6,0.5-1.6,0.8-2.8,0.8c-1.1,0-2-0.2-2.7-0.7    C333.2,601.3,332.8,600.7,332.6,599.9z"></path>
	</g>
</g>
<g id="Graphic_502">
	<rect x="30" y="35.5" class="st3" width="140" height="64"></rect>
	<rect x="30" y="35.5" class="st4" width="140" height="64"></rect>
	<g class="st2">
		<path d="M51.4,73.8V62.4h2.3v9.4h5.8v1.9H51.4z"></path>
		<path d="M65.9,71.1l2.2,0.4c-0.3,0.8-0.7,1.4-1.3,1.8c-0.6,0.4-1.4,0.6-2.3,0.6c-1.4,0-2.5-0.5-3.2-1.4c-0.5-0.8-0.8-1.7-0.8-2.9    c0-1.4,0.4-2.5,1.1-3.2s1.6-1.2,2.7-1.2c1.2,0,2.2,0.4,2.9,1.2c0.7,0.8,1.1,2.1,1,3.7h-5.5c0,0.7,0.2,1.2,0.5,1.5    c0.3,0.4,0.8,0.5,1.3,0.5c0.3,0,0.6-0.1,0.9-0.3S65.8,71.5,65.9,71.1z M66.1,68.9c0-0.6-0.2-1.1-0.5-1.4S64.9,67,64.4,67    c-0.5,0-0.9,0.2-1.2,0.5s-0.5,0.8-0.5,1.4H66.1z"></path>
		<path d="M73.8,65.5v1.8h-1.5v3.3c0,0.7,0,1.1,0,1.2c0,0.1,0.1,0.2,0.2,0.3s0.2,0.1,0.4,0.1c0.2,0,0.5-0.1,0.9-0.2l0.2,1.7    c-0.5,0.2-1.1,0.3-1.7,0.3c-0.4,0-0.8-0.1-1.1-0.2c-0.3-0.1-0.6-0.3-0.7-0.5s-0.3-0.5-0.3-0.9c0-0.3-0.1-0.8-0.1-1.5v-3.6h-1v-1.8    h1v-1.6l2.2-1.3v2.9H73.8z"></path>
		<path d="M75.3,62.3h2.2v1.6c0,0.6-0.1,1.1-0.2,1.5s-0.3,0.7-0.6,1s-0.7,0.5-1.2,0.7l-0.4-0.9c0.4-0.1,0.8-0.3,0.9-0.6    s0.3-0.6,0.3-1h-1.1V62.3z"></path>
		<path d="M78.4,71.4l2.2-0.3c0.1,0.4,0.3,0.8,0.6,1c0.3,0.2,0.7,0.3,1.2,0.3c0.6,0,1-0.1,1.3-0.3c0.2-0.1,0.3-0.3,0.3-0.6    c0-0.2-0.1-0.3-0.2-0.4c-0.1-0.1-0.4-0.2-0.7-0.3c-1.8-0.4-2.9-0.7-3.4-1.1c-0.7-0.4-1-1.1-1-1.9c0-0.7,0.3-1.3,0.9-1.8    c0.6-0.5,1.4-0.7,2.6-0.7c1.1,0,2,0.2,2.5,0.6c0.6,0.4,0.9,0.9,1.1,1.6l-2.1,0.4c-0.1-0.3-0.3-0.6-0.5-0.7    c-0.2-0.2-0.6-0.3-1.1-0.3c-0.6,0-1,0.1-1.2,0.2c-0.2,0.1-0.2,0.3-0.2,0.4c0,0.2,0.1,0.3,0.2,0.4c0.2,0.1,0.9,0.4,2.1,0.6    c1.2,0.3,2,0.6,2.4,1c0.5,0.4,0.7,0.9,0.7,1.6c0,0.8-0.3,1.4-1,2c-0.6,0.5-1.6,0.8-2.8,0.8c-1.1,0-2-0.2-2.7-0.7    C79.1,72.8,78.6,72.2,78.4,71.4z"></path>
		<path d="M92.6,73.8V62.3h8.5v1.9h-6.2v2.5h5.8v1.9h-5.8v3.1h6.4v1.9H92.6z"></path>
		<path d="M110.8,73.8h-2.2v-4.2c0-0.9,0-1.5-0.1-1.7s-0.2-0.5-0.5-0.6s-0.5-0.2-0.8-0.2c-0.4,0-0.7,0.1-1,0.3    c-0.3,0.2-0.5,0.5-0.6,0.8c-0.1,0.3-0.2,1-0.2,1.9v3.8h-2.2v-8.3h2v1.2c0.7-0.9,1.6-1.4,2.7-1.4c0.5,0,0.9,0.1,1.3,0.3    c0.4,0.2,0.7,0.4,0.9,0.7c0.2,0.3,0.3,0.6,0.4,0.9c0.1,0.3,0.1,0.8,0.1,1.5V73.8z"></path>
		<path d="M120.2,67.9l-2.2,0.4c-0.1-0.4-0.2-0.8-0.5-1s-0.6-0.3-1-0.3c-0.5,0-1,0.2-1.3,0.6c-0.3,0.4-0.5,1-0.5,1.9    c0,1,0.2,1.7,0.5,2.1c0.3,0.4,0.8,0.6,1.3,0.6c0.4,0,0.8-0.1,1-0.4s0.5-0.6,0.6-1.2l2.2,0.4c-0.2,1-0.7,1.7-1.3,2.2    c-0.6,0.5-1.5,0.8-2.6,0.8c-1.2,0-2.2-0.4-2.9-1.1c-0.7-0.8-1.1-1.8-1.1-3.2c0-1.4,0.4-2.4,1.1-3.2c0.7-0.8,1.7-1.1,2.9-1.1    c1,0,1.8,0.2,2.4,0.7C119.5,66.4,120,67,120.2,67.9z"></path>
		<path d="M124,73.8h-2.2v-8.3h2v1.2c0.3-0.6,0.7-0.9,0.9-1.1c0.3-0.2,0.6-0.3,0.9-0.3c0.5,0,1,0.1,1.4,0.4l-0.7,1.9    c-0.4-0.2-0.7-0.4-1-0.4c-0.3,0-0.6,0.1-0.8,0.3c-0.2,0.2-0.4,0.5-0.5,0.9c-0.1,0.4-0.2,1.4-0.2,2.8V73.8z"></path>
		<path d="M127.1,65.5h2.3l2,5.9l1.9-5.9h2.3l-2.9,8l-0.5,1.4c-0.2,0.5-0.4,0.9-0.6,1.1c-0.2,0.3-0.4,0.5-0.6,0.6s-0.5,0.3-0.8,0.4    c-0.3,0.1-0.7,0.1-1.1,0.1c-0.4,0-0.8,0-1.2-0.1l-0.2-1.7c0.3,0.1,0.7,0.1,0.9,0.1c0.5,0,0.9-0.1,1.1-0.4c0.2-0.3,0.4-0.7,0.6-1.1    L127.1,65.5z"></path>
		<path d="M137,65.5h2v1.2c0.3-0.4,0.6-0.8,1.1-1s1-0.4,1.5-0.4c1,0,1.8,0.4,2.5,1.1s1,1.8,1,3.2c0,1.4-0.3,2.5-1,3.2    c-0.7,0.8-1.5,1.2-2.5,1.2c-0.5,0-0.9-0.1-1.2-0.3c-0.4-0.2-0.8-0.5-1.2-0.9v4.2H137V65.5z M139.1,69.5c0,0.9,0.2,1.6,0.6,2.1    c0.4,0.4,0.8,0.7,1.4,0.7c0.5,0,0.9-0.2,1.3-0.6c0.3-0.4,0.5-1.1,0.5-2c0-0.9-0.2-1.5-0.5-1.9c-0.3-0.4-0.8-0.6-1.3-0.6    c-0.5,0-1,0.2-1.3,0.6C139.3,68.1,139.1,68.7,139.1,69.5z"></path>
		<path d="M150.6,65.5v1.8h-1.5v3.3c0,0.7,0,1.1,0,1.2c0,0.1,0.1,0.2,0.2,0.3s0.2,0.1,0.4,0.1c0.2,0,0.5-0.1,0.9-0.2l0.2,1.7    c-0.5,0.2-1.1,0.3-1.7,0.3c-0.4,0-0.8-0.1-1.1-0.2c-0.3-0.1-0.6-0.3-0.7-0.5s-0.3-0.5-0.3-0.9c0-0.3-0.1-0.8-0.1-1.5v-3.6h-1v-1.8    h1v-1.6l2.2-1.3v2.9H150.6z"></path>
	</g>
</g>
<g id="Graphic_501">
	<rect x="229" y="35.5" class="st3" width="140" height="64"></rect>
	<rect x="229" y="35.5" class="st4" width="140" height="64"></rect>
	<g class="st2">
		<path d="M284.3,73.8l-4.1-11.5h2.5l2.9,8.5l2.8-8.5h2.5l-4.1,11.5H284.3z"></path>
		<path d="M292.8,68l-2-0.4c0.2-0.8,0.6-1.4,1.2-1.8s1.4-0.6,2.4-0.6c1,0,1.7,0.1,2.2,0.3c0.5,0.2,0.8,0.5,1,0.9s0.3,1,0.3,2l0,2.6    c0,0.7,0,1.3,0.1,1.6s0.2,0.7,0.4,1.1h-2.2c-0.1-0.1-0.1-0.4-0.2-0.6c0-0.1-0.1-0.2-0.1-0.3c-0.4,0.4-0.8,0.6-1.2,0.8    c-0.4,0.2-0.9,0.3-1.4,0.3c-0.9,0-1.5-0.2-2-0.7s-0.7-1-0.7-1.8c0-0.5,0.1-0.9,0.3-1.3c0.2-0.4,0.5-0.6,0.9-0.8    c0.4-0.2,1-0.4,1.7-0.5c1-0.2,1.7-0.4,2.1-0.5v-0.2c0-0.4-0.1-0.7-0.3-0.9c-0.2-0.2-0.6-0.3-1.2-0.3c-0.4,0-0.7,0.1-0.9,0.2    S292.9,67.6,292.8,68z M295.7,69.8c-0.3,0.1-0.7,0.2-1.3,0.3s-1,0.3-1.2,0.4c-0.3,0.2-0.4,0.5-0.4,0.8c0,0.3,0.1,0.6,0.3,0.8    c0.2,0.2,0.5,0.3,0.9,0.3c0.4,0,0.8-0.1,1.1-0.4c0.3-0.2,0.4-0.4,0.5-0.7c0.1-0.2,0.1-0.5,0.1-1.1V69.8z"></path>
		<path d="M305.5,73.8v-1.2c-0.3,0.4-0.7,0.8-1.2,1s-1,0.4-1.6,0.4c-0.6,0-1.1-0.1-1.5-0.4c-0.4-0.2-0.8-0.6-1-1    c-0.2-0.4-0.3-1.1-0.3-1.8v-5.2h2.2v3.8c0,1.2,0,1.9,0.1,2.1c0.1,0.3,0.2,0.5,0.4,0.6c0.2,0.2,0.5,0.2,0.8,0.2    c0.4,0,0.7-0.1,1-0.3s0.5-0.5,0.6-0.8s0.2-1.1,0.2-2.2v-3.5h2.2v8.3H305.5z"></path>
		<path d="M309.8,73.8V62.3h2.2v11.5H309.8z"></path>
		<path d="M318,65.5v1.8h-1.5v3.3c0,0.7,0,1.1,0,1.2c0,0.1,0.1,0.2,0.2,0.3s0.2,0.1,0.4,0.1c0.2,0,0.5-0.1,0.9-0.2l0.2,1.7    c-0.5,0.2-1.1,0.3-1.7,0.3c-0.4,0-0.8-0.1-1.1-0.2c-0.3-0.1-0.6-0.3-0.7-0.5s-0.3-0.5-0.3-0.9c0-0.3-0.1-0.8-0.1-1.5v-3.6h-1v-1.8    h1v-1.6l2.2-1.3v2.9H318z"></path>
	</g>
</g>
<g id="Graphic_500">
	<rect x="428" y="35.5" class="st3" width="140" height="64"></rect>
	<rect x="428" y="35.5" class="st4" width="140" height="64"></rect>
	<g class="st2">
		<path d="M478.7,73.8l-4.1-11.5h2.5l2.9,8.5l2.8-8.5h2.5l-4.1,11.5H478.7z"></path>
		<path d="M490.3,71.1l2.2,0.4c-0.3,0.8-0.7,1.4-1.3,1.8c-0.6,0.4-1.4,0.6-2.3,0.6c-1.4,0-2.5-0.5-3.2-1.4c-0.5-0.8-0.8-1.7-0.8-2.9    c0-1.4,0.4-2.5,1.1-3.2s1.6-1.2,2.7-1.2c1.2,0,2.2,0.4,2.9,1.2c0.7,0.8,1.1,2.1,1,3.7h-5.5c0,0.7,0.2,1.2,0.5,1.5    c0.3,0.4,0.8,0.5,1.3,0.5c0.3,0,0.6-0.1,0.9-0.3S490.2,71.5,490.3,71.1z M490.5,68.9c0-0.6-0.2-1.1-0.5-1.4s-0.7-0.5-1.1-0.5    c-0.5,0-0.9,0.2-1.2,0.5s-0.5,0.8-0.5,1.4H490.5z"></path>
		<path d="M502,73.8h-2.2v-4.2c0-0.9,0-1.5-0.1-1.7s-0.2-0.5-0.5-0.6s-0.5-0.2-0.8-0.2c-0.4,0-0.7,0.1-1,0.3    c-0.3,0.2-0.5,0.5-0.6,0.8c-0.1,0.3-0.2,1-0.2,1.9v3.8h-2.2v-8.3h2v1.2c0.7-0.9,1.6-1.4,2.7-1.4c0.5,0,0.9,0.1,1.3,0.3    c0.4,0.2,0.7,0.4,0.9,0.7c0.2,0.3,0.3,0.6,0.4,0.9c0.1,0.3,0.1,0.8,0.1,1.5V73.8z"></path>
		<path d="M505.8,68l-2-0.4c0.2-0.8,0.6-1.4,1.2-1.8s1.4-0.6,2.4-0.6c1,0,1.7,0.1,2.2,0.3c0.5,0.2,0.8,0.5,1,0.9s0.3,1,0.3,2l0,2.6    c0,0.7,0,1.3,0.1,1.6s0.2,0.7,0.4,1.1h-2.2c-0.1-0.1-0.1-0.4-0.2-0.6c0-0.1-0.1-0.2-0.1-0.3c-0.4,0.4-0.8,0.6-1.2,0.8    c-0.4,0.2-0.9,0.3-1.4,0.3c-0.9,0-1.5-0.2-2-0.7s-0.7-1-0.7-1.8c0-0.5,0.1-0.9,0.3-1.3c0.2-0.4,0.5-0.6,0.9-0.8    c0.4-0.2,1-0.4,1.7-0.5c1-0.2,1.7-0.4,2.1-0.5v-0.2c0-0.4-0.1-0.7-0.3-0.9c-0.2-0.2-0.6-0.3-1.2-0.3c-0.4,0-0.7,0.1-0.9,0.2    S506,67.6,505.8,68z M508.8,69.8c-0.3,0.1-0.7,0.2-1.3,0.3s-1,0.3-1.2,0.4c-0.3,0.2-0.4,0.5-0.4,0.8c0,0.3,0.1,0.6,0.3,0.8    c0.2,0.2,0.5,0.3,0.9,0.3c0.4,0,0.8-0.1,1.1-0.4c0.3-0.2,0.4-0.4,0.5-0.7c0.1-0.2,0.1-0.5,0.1-1.1V69.8z"></path>
		<path d="M512.1,65.5h1.2v-0.6c0-0.7,0.1-1.2,0.2-1.6s0.4-0.6,0.8-0.8s0.9-0.3,1.5-0.3c0.6,0,1.2,0.1,1.8,0.3l-0.3,1.5    c-0.3-0.1-0.7-0.1-1-0.1c-0.3,0-0.5,0.1-0.7,0.2c-0.1,0.1-0.2,0.4-0.2,0.9v0.6h1.6v1.7h-1.6v6.6h-2.2v-6.6h-1.2V65.5z"></path>
		<path d="M518.4,64.3v-2h2.2v2H518.4z M518.4,73.8v-8.3h2.2v8.3H518.4z"></path>
	</g>
</g>
<g id="Graphic_499">
	<rect x="627" y="35.5" class="st3" width="140" height="64"></rect>
	<rect x="627" y="35.5" class="st4" width="140" height="64"></rect>
	<g class="st2">
		<path d="M636.7,73.8V62.3h8.5v1.9H639v2.5h5.8v1.9H639v3.1h6.4v1.9H636.7z"></path>
		<path d="M646.3,73.8l3-4.3l-2.9-4h2.7l1.5,2.3l1.5-2.3h2.6l-2.8,3.9l3.1,4.4h-2.7l-1.7-2.6l-1.7,2.6H646.3z"></path>
		<path d="M660.1,65.5v1.8h-1.5v3.3c0,0.7,0,1.1,0,1.2c0,0.1,0.1,0.2,0.2,0.3s0.2,0.1,0.4,0.1c0.2,0,0.5-0.1,0.9-0.2l0.2,1.7    c-0.5,0.2-1.1,0.3-1.7,0.3c-0.4,0-0.8-0.1-1.1-0.2c-0.3-0.1-0.6-0.3-0.7-0.5s-0.3-0.5-0.3-0.9c0-0.3-0.1-0.8-0.1-1.5v-3.6h-1v-1.8    h1v-1.6l2.2-1.3v2.9H660.1z"></path>
		<path d="M666.4,71.1l2.2,0.4c-0.3,0.8-0.7,1.4-1.3,1.8c-0.6,0.4-1.4,0.6-2.3,0.6c-1.4,0-2.5-0.5-3.2-1.4c-0.5-0.8-0.8-1.7-0.8-2.9    c0-1.4,0.4-2.5,1.1-3.2s1.6-1.2,2.7-1.2c1.2,0,2.2,0.4,2.9,1.2c0.7,0.8,1.1,2.1,1,3.7h-5.5c0,0.7,0.2,1.2,0.5,1.5    c0.3,0.4,0.8,0.5,1.3,0.5c0.3,0,0.6-0.1,0.9-0.3S666.3,71.5,666.4,71.1z M666.5,68.9c0-0.6-0.2-1.1-0.5-1.4s-0.7-0.5-1.1-0.5    c-0.5,0-0.9,0.2-1.2,0.5s-0.5,0.8-0.5,1.4H666.5z"></path>
		<path d="M672.6,73.8h-2.2v-8.3h2v1.2c0.3-0.6,0.7-0.9,0.9-1.1c0.3-0.2,0.6-0.3,0.9-0.3c0.5,0,1,0.1,1.4,0.4l-0.7,1.9    c-0.4-0.2-0.7-0.4-1-0.4c-0.3,0-0.6,0.1-0.8,0.3c-0.2,0.2-0.4,0.5-0.5,0.9c-0.1,0.4-0.2,1.4-0.2,2.8V73.8z"></path>
		<path d="M684.3,73.8h-2.2v-4.2c0-0.9,0-1.5-0.1-1.7s-0.2-0.5-0.5-0.6S681,67,680.7,67c-0.4,0-0.7,0.1-1,0.3    c-0.3,0.2-0.5,0.5-0.6,0.8c-0.1,0.3-0.2,1-0.2,1.9v3.8h-2.2v-8.3h2v1.2c0.7-0.9,1.6-1.4,2.7-1.4c0.5,0,0.9,0.1,1.3,0.3    c0.4,0.2,0.7,0.4,0.9,0.7c0.2,0.3,0.3,0.6,0.4,0.9c0.1,0.3,0.1,0.8,0.1,1.5V73.8z"></path>
		<path d="M688.1,68l-2-0.4c0.2-0.8,0.6-1.4,1.2-1.8s1.4-0.6,2.4-0.6c1,0,1.7,0.1,2.2,0.3c0.5,0.2,0.8,0.5,1,0.9s0.3,1,0.3,2l0,2.6    c0,0.7,0,1.3,0.1,1.6s0.2,0.7,0.4,1.1h-2.2c-0.1-0.1-0.1-0.4-0.2-0.6c0-0.1-0.1-0.2-0.1-0.3c-0.4,0.4-0.8,0.6-1.2,0.8    c-0.4,0.2-0.9,0.3-1.4,0.3c-0.9,0-1.5-0.2-2-0.7s-0.7-1-0.7-1.8c0-0.5,0.1-0.9,0.3-1.3c0.2-0.4,0.5-0.6,0.9-0.8    c0.4-0.2,1-0.4,1.7-0.5c1-0.2,1.7-0.4,2.1-0.5v-0.2c0-0.4-0.1-0.7-0.3-0.9c-0.2-0.2-0.6-0.3-1.2-0.3c-0.4,0-0.7,0.1-0.9,0.2    S688.3,67.6,688.1,68z M691.1,69.8c-0.3,0.1-0.7,0.2-1.3,0.3s-1,0.3-1.2,0.4c-0.3,0.2-0.4,0.5-0.4,0.8c0,0.3,0.1,0.6,0.3,0.8    c0.2,0.2,0.5,0.3,0.9,0.3c0.4,0,0.8-0.1,1.1-0.4c0.3-0.2,0.4-0.4,0.5-0.7c0.1-0.2,0.1-0.5,0.1-1.1V69.8z"></path>
		<path d="M695.4,73.8V62.3h2.2v11.5H695.4z"></path>
		<path d="M704.2,73.8V62.3h2.3v11.5H704.2z"></path>
		<path d="M707.9,71.4l2.2-0.3c0.1,0.4,0.3,0.8,0.6,1c0.3,0.2,0.7,0.3,1.2,0.3c0.6,0,1-0.1,1.3-0.3c0.2-0.1,0.3-0.3,0.3-0.6    c0-0.2-0.1-0.3-0.2-0.4c-0.1-0.1-0.4-0.2-0.7-0.3c-1.8-0.4-2.9-0.7-3.4-1.1c-0.7-0.4-1-1.1-1-1.9c0-0.7,0.3-1.3,0.9-1.8    c0.6-0.5,1.4-0.7,2.6-0.7c1.1,0,2,0.2,2.5,0.6c0.6,0.4,0.9,0.9,1.1,1.6l-2.1,0.4c-0.1-0.3-0.3-0.6-0.5-0.7    c-0.2-0.2-0.6-0.3-1.1-0.3c-0.6,0-1,0.1-1.2,0.2c-0.2,0.1-0.2,0.3-0.2,0.4c0,0.2,0.1,0.3,0.2,0.4c0.2,0.1,0.9,0.4,2.1,0.6    c1.2,0.3,2,0.6,2.4,1c0.5,0.4,0.7,0.9,0.7,1.6c0,0.8-0.3,1.4-1,2c-0.6,0.5-1.6,0.8-2.8,0.8c-1.1,0-2-0.2-2.7-0.7    C708.6,72.8,708.1,72.2,707.9,71.4z"></path>
		<path d="M716.8,71.4l2.2-0.3c0.1,0.4,0.3,0.8,0.6,1c0.3,0.2,0.7,0.3,1.2,0.3c0.6,0,1-0.1,1.3-0.3c0.2-0.1,0.3-0.3,0.3-0.6    c0-0.2-0.1-0.3-0.2-0.4c-0.1-0.1-0.4-0.2-0.7-0.3c-1.8-0.4-2.9-0.7-3.4-1.1c-0.7-0.4-1-1.1-1-1.9c0-0.7,0.3-1.3,0.9-1.8    c0.6-0.5,1.4-0.7,2.6-0.7c1.1,0,2,0.2,2.5,0.6c0.6,0.4,0.9,0.9,1.1,1.6l-2.1,0.4c-0.1-0.3-0.3-0.6-0.5-0.7    c-0.2-0.2-0.6-0.3-1.1-0.3c-0.6,0-1,0.1-1.2,0.2c-0.2,0.1-0.2,0.3-0.2,0.4c0,0.2,0.1,0.3,0.2,0.4c0.2,0.1,0.9,0.4,2.1,0.6    c1.2,0.3,2,0.6,2.4,1c0.5,0.4,0.7,0.9,0.7,1.6c0,0.8-0.3,1.4-1,2c-0.6,0.5-1.6,0.8-2.8,0.8c-1.1,0-2-0.2-2.7-0.7    C717.5,72.8,717,72.2,716.8,71.4z"></path>
		<path d="M732,73.8v-1.2c-0.3,0.4-0.7,0.8-1.2,1s-1,0.4-1.6,0.4c-0.6,0-1.1-0.1-1.5-0.4c-0.4-0.2-0.8-0.6-1-1    c-0.2-0.4-0.3-1.1-0.3-1.8v-5.2h2.2v3.8c0,1.2,0,1.9,0.1,2.1c0.1,0.3,0.2,0.5,0.4,0.6c0.2,0.2,0.5,0.2,0.8,0.2    c0.4,0,0.7-0.1,1-0.3s0.5-0.5,0.6-0.8s0.2-1.1,0.2-2.2v-3.5h2.2v8.3H732z"></path>
		<path d="M741.1,71.1l2.2,0.4c-0.3,0.8-0.7,1.4-1.3,1.8c-0.6,0.4-1.4,0.6-2.3,0.6c-1.4,0-2.5-0.5-3.2-1.4c-0.5-0.8-0.8-1.7-0.8-2.9    c0-1.4,0.4-2.5,1.1-3.2s1.6-1.2,2.7-1.2c1.2,0,2.2,0.4,2.9,1.2c0.7,0.8,1.1,2.1,1,3.7h-5.5c0,0.7,0.2,1.2,0.5,1.5    c0.3,0.4,0.8,0.5,1.3,0.5c0.3,0,0.6-0.1,0.9-0.3S741,71.5,741.1,71.1z M741.2,68.9c0-0.6-0.2-1.1-0.5-1.4S740,67,739.6,67    c-0.5,0-0.9,0.2-1.2,0.5s-0.5,0.8-0.5,1.4H741.2z"></path>
		<path d="M747.3,73.8h-2.2v-8.3h2v1.2c0.3-0.6,0.7-0.9,0.9-1.1c0.3-0.2,0.6-0.3,0.9-0.3c0.5,0,1,0.1,1.4,0.4l-0.7,1.9    c-0.4-0.2-0.7-0.4-1-0.4c-0.3,0-0.6,0.1-0.8,0.3c-0.2,0.2-0.4,0.5-0.5,0.9c-0.1,0.4-0.2,1.4-0.2,2.8V73.8z"></path>
		<path d="M750.6,71.4l2.2-0.3c0.1,0.4,0.3,0.8,0.6,1c0.3,0.2,0.7,0.3,1.2,0.3c0.6,0,1-0.1,1.3-0.3c0.2-0.1,0.3-0.3,0.3-0.6    c0-0.2-0.1-0.3-0.2-0.4c-0.1-0.1-0.4-0.2-0.7-0.3c-1.8-0.4-2.9-0.7-3.4-1.1c-0.7-0.4-1-1.1-1-1.9c0-0.7,0.3-1.3,0.9-1.8    c0.6-0.5,1.4-0.7,2.6-0.7c1.1,0,2,0.2,2.5,0.6c0.6,0.4,0.9,0.9,1.1,1.6l-2.1,0.4c-0.1-0.3-0.3-0.6-0.5-0.7    c-0.2-0.2-0.6-0.3-1.1-0.3c-0.6,0-1,0.1-1.2,0.2c-0.2,0.1-0.2,0.3-0.2,0.4c0,0.2,0.1,0.3,0.2,0.4c0.2,0.1,0.9,0.4,2.1,0.6    c1.2,0.3,2,0.6,2.4,1c0.5,0.4,0.7,0.9,0.7,1.6c0,0.8-0.3,1.4-1,2c-0.6,0.5-1.6,0.8-2.8,0.8c-1.1,0-2-0.2-2.7-0.7    C751.3,72.8,750.8,72.2,750.6,71.4z"></path>
	</g>
</g>
<g id="Graphic_498">
	<rect x="429.3" y="213.2" class="st3" width="140" height="64"></rect>
	<rect x="429.3" y="213.2" class="st4" width="140" height="64"></rect>
	<g class="st2">
		<path d="M476.1,247.8l2.2-0.2c0.1,0.8,0.4,1.3,0.8,1.7s1,0.5,1.7,0.5c0.7,0,1.3-0.2,1.7-0.5c0.4-0.3,0.6-0.7,0.6-1.1    c0-0.3-0.1-0.5-0.2-0.7c-0.2-0.2-0.4-0.4-0.8-0.5c-0.3-0.1-0.9-0.3-1.9-0.5c-1.2-0.3-2.1-0.7-2.6-1.1c-0.7-0.6-1.1-1.4-1.1-2.3    c0-0.6,0.2-1.1,0.5-1.6c0.3-0.5,0.8-0.9,1.4-1.2c0.6-0.3,1.4-0.4,2.3-0.4c1.4,0,2.5,0.3,3.2,0.9s1.1,1.5,1.1,2.5l-2.3,0.1    c-0.1-0.6-0.3-1-0.6-1.3c-0.3-0.3-0.8-0.4-1.5-0.4c-0.7,0-1.2,0.1-1.6,0.4c-0.2,0.2-0.4,0.4-0.4,0.7c0,0.3,0.1,0.5,0.3,0.7    c0.3,0.2,1,0.5,2.1,0.8s2,0.5,2.5,0.8s1,0.7,1.3,1.2s0.5,1.1,0.5,1.8c0,0.7-0.2,1.3-0.5,1.8c-0.4,0.6-0.9,1-1.5,1.3    c-0.7,0.3-1.5,0.4-2.5,0.4c-1.4,0-2.6-0.3-3.3-1C476.7,250,476.2,249.1,476.1,247.8z"></path>
		<path d="M487.3,251.5v-11.5h3.7c1.4,0,2.3,0.1,2.8,0.2c0.7,0.2,1.2,0.5,1.6,1.1c0.4,0.6,0.7,1.3,0.7,2.2c0,0.7-0.1,1.3-0.4,1.8    c-0.3,0.5-0.6,0.9-1,1.1c-0.4,0.3-0.8,0.5-1.2,0.5c-0.6,0.1-1.4,0.2-2.4,0.2h-1.5v4.3H487.3z M489.6,242v3.2h1.3    c0.9,0,1.5-0.1,1.8-0.2c0.3-0.1,0.5-0.3,0.7-0.6c0.2-0.3,0.3-0.6,0.3-0.9c0-0.4-0.1-0.8-0.4-1c-0.2-0.3-0.6-0.4-0.9-0.5    c-0.3-0.1-0.8-0.1-1.7-0.1H489.6z"></path>
		<path d="M497.9,251.5v-11.5h2.3v11.5H497.9z"></path>
		<path d="M502.4,251.5v-11.5h4.9c1.2,0,2.1,0.1,2.7,0.3s1,0.6,1.3,1.1c0.3,0.5,0.5,1.1,0.5,1.8c0,0.9-0.3,1.6-0.8,2.1    c-0.5,0.6-1.3,0.9-2.3,1.1c0.5,0.3,0.9,0.6,1.2,1c0.3,0.3,0.8,1,1.3,1.9l1.4,2.2H510l-1.7-2.5c-0.6-0.9-1-1.5-1.2-1.7    s-0.5-0.4-0.7-0.5c-0.2-0.1-0.6-0.1-1.2-0.1h-0.5v4.8H502.4z M504.8,244.9h1.7c1.1,0,1.8,0,2.1-0.1c0.3-0.1,0.5-0.3,0.6-0.5    s0.2-0.5,0.2-0.9c0-0.4-0.1-0.7-0.3-0.9c-0.2-0.2-0.5-0.4-0.9-0.4c-0.2,0-0.8,0-1.7,0h-1.8V244.9z"></path>
		<path d="M514,251.5v-11.5h8.5v1.9h-6.2v2.5h5.8v1.9h-5.8v3.1h6.4v1.9H514z"></path>
	</g>
</g>
<g id="Graphic_497">
	<rect x="629" y="213.2" class="st3" width="140" height="64"></rect>
	<rect x="629" y="213.2" class="st4" width="140" height="64"></rect>
	<g class="st2">
		<path d="M645.9,227.8v-1.9h5v4.6c-0.5,0.5-1.2,0.9-2.1,1.2c-0.9,0.4-1.9,0.5-2.8,0.5c-1.2,0-2.2-0.3-3.1-0.8s-1.6-1.2-2-2.2    c-0.4-0.9-0.7-2-0.7-3.1c0-1.2,0.2-2.3,0.8-3.2s1.2-1.6,2.2-2.1c0.7-0.4,1.6-0.6,2.7-0.6c1.4,0,2.5,0.3,3.3,0.9    c0.8,0.6,1.3,1.4,1.5,2.5l-2.3,0.4c-0.2-0.6-0.5-1-0.9-1.3s-1-0.5-1.7-0.5c-1,0-1.8,0.3-2.4,1c-0.6,0.6-0.9,1.6-0.9,2.9    c0,1.4,0.3,2.4,0.9,3.1c0.6,0.7,1.4,1,2.4,1c0.5,0,1-0.1,1.5-0.3c0.5-0.2,0.9-0.4,1.3-0.7v-1.5H645.9z"></path>
		<path d="M660.4,227.8l2.2,0.7c-0.3,1.2-0.9,2.2-1.7,2.8c-0.8,0.6-1.8,0.9-3,0.9c-1.5,0-2.8-0.5-3.8-1.6c-1-1-1.5-2.5-1.5-4.3    c0-1.9,0.5-3.4,1.5-4.4s2.3-1.6,3.9-1.6c1.4,0,2.5,0.4,3.4,1.2c0.5,0.5,0.9,1.2,1.2,2.1l-2.3,0.5c-0.1-0.6-0.4-1.1-0.8-1.4    s-1-0.5-1.6-0.5c-0.8,0-1.5,0.3-2.1,0.9c-0.5,0.6-0.8,1.6-0.8,3c0,1.4,0.3,2.5,0.8,3.1c0.5,0.6,1.2,0.9,2,0.9    c0.6,0,1.1-0.2,1.6-0.6C659.9,229.3,660.2,228.7,660.4,227.8z"></path>
		<path d="M664.6,232.1v-11.5h3.7c1.4,0,2.3,0.1,2.8,0.2c0.7,0.2,1.2,0.5,1.6,1.1c0.4,0.6,0.7,1.3,0.7,2.2c0,0.7-0.1,1.3-0.4,1.8    c-0.3,0.5-0.6,0.9-1,1.1c-0.4,0.3-0.8,0.5-1.2,0.5c-0.6,0.1-1.4,0.2-2.4,0.2h-1.5v4.3H664.6z M666.9,222.5v3.2h1.3    c0.9,0,1.5-0.1,1.8-0.2c0.3-0.1,0.5-0.3,0.7-0.6c0.2-0.3,0.3-0.6,0.3-0.9c0-0.4-0.1-0.8-0.4-1c-0.2-0.3-0.6-0.4-0.9-0.5    c-0.3-0.1-0.8-0.1-1.7-0.1H666.9z"></path>
		<path d="M686.8,227.8l2.2,0.7c-0.3,1.2-0.9,2.2-1.7,2.8c-0.8,0.6-1.8,0.9-3,0.9c-1.5,0-2.8-0.5-3.8-1.6c-1-1-1.5-2.5-1.5-4.3    c0-1.9,0.5-3.4,1.5-4.4s2.3-1.6,3.9-1.6c1.4,0,2.5,0.4,3.4,1.2c0.5,0.5,0.9,1.2,1.2,2.1l-2.3,0.5c-0.1-0.6-0.4-1.1-0.8-1.4    s-1-0.5-1.6-0.5c-0.8,0-1.5,0.3-2.1,0.9c-0.5,0.6-0.8,1.6-0.8,3c0,1.4,0.3,2.5,0.8,3.1c0.5,0.6,1.2,0.9,2,0.9    c0.6,0,1.1-0.2,1.6-0.6C686.3,229.3,686.6,228.7,686.8,227.8z"></path>
		<path d="M695.8,229.4l2.2,0.4c-0.3,0.8-0.7,1.4-1.3,1.8c-0.6,0.4-1.4,0.6-2.3,0.6c-1.4,0-2.5-0.5-3.2-1.4    c-0.5-0.8-0.8-1.7-0.8-2.9c0-1.4,0.4-2.5,1.1-3.2s1.6-1.2,2.7-1.2c1.2,0,2.2,0.4,2.9,1.2c0.7,0.8,1.1,2.1,1,3.7h-5.5    c0,0.7,0.2,1.2,0.5,1.5c0.3,0.4,0.8,0.5,1.3,0.5c0.3,0,0.6-0.1,0.9-0.3S695.7,229.8,695.8,229.4z M695.9,227.2    c0-0.6-0.2-1.1-0.5-1.4s-0.7-0.5-1.1-0.5c-0.5,0-0.9,0.2-1.2,0.5s-0.5,0.8-0.5,1.4H695.9z"></path>
		<path d="M702,232.1h-2.2v-8.3h2v1.2c0.3-0.6,0.7-0.9,0.9-1.1c0.3-0.2,0.6-0.3,0.9-0.3c0.5,0,1,0.1,1.4,0.4l-0.7,1.9    c-0.4-0.2-0.7-0.4-1-0.4c-0.3,0-0.6,0.1-0.8,0.3c-0.2,0.2-0.4,0.5-0.5,0.9c-0.1,0.4-0.2,1.4-0.2,2.8V232.1z"></path>
		<path d="M709.9,223.8v1.8h-1.5v3.3c0,0.7,0,1.1,0,1.2c0,0.1,0.1,0.2,0.2,0.3s0.2,0.1,0.4,0.1c0.2,0,0.5-0.1,0.9-0.2l0.2,1.7    c-0.5,0.2-1.1,0.3-1.7,0.3c-0.4,0-0.8-0.1-1.1-0.2c-0.3-0.1-0.6-0.3-0.7-0.5s-0.3-0.5-0.3-0.9c0-0.3-0.1-0.8-0.1-1.5v-3.6h-1v-1.8    h1v-1.6l2.2-1.3v2.9H709.9z"></path>
		<path d="M711.4,222.6v-2h2.2v2H711.4z M711.4,232.1v-8.3h2.2v8.3H711.4z"></path>
		<path d="M714.9,223.8h1.2v-0.6c0-0.7,0.1-1.2,0.2-1.6s0.4-0.6,0.8-0.8s0.9-0.3,1.5-0.3c0.6,0,1.2,0.1,1.8,0.3l-0.3,1.5    c-0.3-0.1-0.7-0.1-1-0.1c-0.3,0-0.5,0.1-0.7,0.2c-0.1,0.1-0.2,0.4-0.2,0.9v0.6h1.6v1.7h-1.6v6.6h-2.2v-6.6h-1.2V223.8z"></path>
		<path d="M721.2,222.6v-2h2.2v2H721.2z M721.2,232.1v-8.3h2.2v8.3H721.2z"></path>
		<path d="M732.9,226.2l-2.2,0.4c-0.1-0.4-0.2-0.8-0.5-1s-0.6-0.3-1-0.3c-0.5,0-1,0.2-1.3,0.6c-0.3,0.4-0.5,1-0.5,1.9    c0,1,0.2,1.7,0.5,2.1c0.3,0.4,0.8,0.6,1.3,0.6c0.4,0,0.8-0.1,1-0.4s0.5-0.6,0.6-1.2l2.2,0.4c-0.2,1-0.7,1.7-1.3,2.2    c-0.6,0.5-1.5,0.8-2.6,0.8c-1.2,0-2.2-0.4-2.9-1.1c-0.7-0.8-1.1-1.8-1.1-3.2c0-1.4,0.4-2.4,1.1-3.2c0.7-0.8,1.7-1.1,2.9-1.1    c1,0,1.8,0.2,2.4,0.7C732.2,224.7,732.6,225.3,732.9,226.2z"></path>
		<path d="M736.2,226.3l-2-0.4c0.2-0.8,0.6-1.4,1.2-1.8s1.4-0.6,2.4-0.6c1,0,1.7,0.1,2.2,0.3c0.5,0.2,0.8,0.5,1,0.9s0.3,1,0.3,2    l0,2.6c0,0.7,0,1.3,0.1,1.6s0.2,0.7,0.4,1.1h-2.2c-0.1-0.1-0.1-0.4-0.2-0.6c0-0.1-0.1-0.2-0.1-0.3c-0.4,0.4-0.8,0.6-1.2,0.8    c-0.4,0.2-0.9,0.3-1.4,0.3c-0.9,0-1.5-0.2-2-0.7s-0.7-1-0.7-1.8c0-0.5,0.1-0.9,0.3-1.3c0.2-0.4,0.5-0.6,0.9-0.8    c0.4-0.2,1-0.4,1.7-0.5c1-0.2,1.7-0.4,2.1-0.5v-0.2c0-0.4-0.1-0.7-0.3-0.9c-0.2-0.2-0.6-0.3-1.2-0.3c-0.4,0-0.7,0.1-0.9,0.2    S736.3,225.9,736.2,226.3z M739.1,228.1c-0.3,0.1-0.7,0.2-1.3,0.3s-1,0.3-1.2,0.4c-0.3,0.2-0.4,0.5-0.4,0.8c0,0.3,0.1,0.6,0.3,0.8    c0.2,0.2,0.5,0.3,0.9,0.3c0.4,0,0.8-0.1,1.1-0.4c0.3-0.2,0.4-0.4,0.5-0.7c0.1-0.2,0.1-0.5,0.1-1.1V228.1z"></path>
		<path d="M747.3,223.8v1.8h-1.5v3.3c0,0.7,0,1.1,0,1.2c0,0.1,0.1,0.2,0.2,0.3s0.2,0.1,0.4,0.1c0.2,0,0.5-0.1,0.9-0.2l0.2,1.7    c-0.5,0.2-1.1,0.3-1.7,0.3c-0.4,0-0.8-0.1-1.1-0.2c-0.3-0.1-0.6-0.3-0.7-0.5s-0.3-0.5-0.3-0.9c0-0.3-0.1-0.8-0.1-1.5v-3.6h-1v-1.8    h1v-1.6l2.2-1.3v2.9H747.3z"></path>
		<path d="M753.6,229.4l2.2,0.4c-0.3,0.8-0.7,1.4-1.3,1.8c-0.6,0.4-1.4,0.6-2.3,0.6c-1.4,0-2.5-0.5-3.2-1.4    c-0.5-0.8-0.8-1.7-0.8-2.9c0-1.4,0.4-2.5,1.1-3.2s1.6-1.2,2.7-1.2c1.2,0,2.2,0.4,2.9,1.2c0.7,0.8,1.1,2.1,1,3.7h-5.5    c0,0.7,0.2,1.2,0.5,1.5c0.3,0.4,0.8,0.5,1.3,0.5c0.3,0,0.6-0.1,0.9-0.3S753.5,229.8,753.6,229.4z M753.7,227.2    c0-0.6-0.2-1.1-0.5-1.4s-0.7-0.5-1.1-0.5c-0.5,0-0.9,0.2-1.2,0.5s-0.5,0.8-0.5,1.4H753.7z"></path>
	</g>
	<g class="st2">
		<path d="M675.7,251.5h-2.5l-1-2.6h-4.6l-0.9,2.6h-2.5l4.5-11.5h2.4L675.7,251.5z M671.4,247l-1.6-4.2l-1.5,4.2H671.4z"></path>
		<path d="M682.3,251.5v-1.2c-0.3,0.4-0.7,0.8-1.2,1s-1,0.4-1.6,0.4c-0.6,0-1.1-0.1-1.5-0.4c-0.4-0.2-0.8-0.6-1-1    c-0.2-0.4-0.3-1.1-0.3-1.8v-5.2h2.2v3.8c0,1.2,0,1.9,0.1,2.1c0.1,0.3,0.2,0.5,0.4,0.6c0.2,0.2,0.5,0.2,0.8,0.2    c0.4,0,0.7-0.1,1-0.3s0.5-0.5,0.6-0.8s0.2-1.1,0.2-2.2v-3.5h2.2v8.3H682.3z"></path>
		<path d="M690.5,243.2v1.8H689v3.3c0,0.7,0,1.1,0,1.2c0,0.1,0.1,0.2,0.2,0.3s0.2,0.1,0.4,0.1c0.2,0,0.5-0.1,0.9-0.2l0.2,1.7    c-0.5,0.2-1.1,0.3-1.7,0.3c-0.4,0-0.8-0.1-1.1-0.2c-0.3-0.1-0.6-0.3-0.7-0.5s-0.3-0.5-0.3-0.9c0-0.3-0.1-0.8-0.1-1.5V245h-1v-1.8    h1v-1.6l2.2-1.3v2.9H690.5z"></path>
		<path d="M694.2,240.1v4.2c0.7-0.8,1.6-1.2,2.5-1.2c0.5,0,1,0.1,1.4,0.3s0.7,0.4,0.9,0.7c0.2,0.3,0.3,0.6,0.4,1    c0.1,0.4,0.1,0.9,0.1,1.6v4.9h-2.2v-4.4c0-0.9,0-1.4-0.1-1.7c-0.1-0.2-0.2-0.4-0.4-0.6s-0.5-0.2-0.8-0.2c-0.4,0-0.7,0.1-1,0.3    c-0.3,0.2-0.5,0.4-0.6,0.8s-0.2,0.9-0.2,1.6v4.2H692v-11.5H694.2z"></path>
		<path d="M701.3,247.3c0-0.7,0.2-1.4,0.5-2.1s0.9-1.2,1.5-1.6c0.7-0.4,1.4-0.5,2.2-0.5c1.3,0,2.3,0.4,3.1,1.2    c0.8,0.8,1.2,1.8,1.2,3.1c0,1.3-0.4,2.3-1.2,3.1c-0.8,0.8-1.8,1.2-3.1,1.2c-0.8,0-1.5-0.2-2.2-0.5c-0.7-0.3-1.2-0.8-1.6-1.5    S701.3,248.2,701.3,247.3z M703.5,247.4c0,0.8,0.2,1.5,0.6,1.9s0.9,0.7,1.4,0.7c0.6,0,1.1-0.2,1.4-0.7c0.4-0.4,0.6-1.1,0.6-1.9    c0-0.8-0.2-1.4-0.6-1.9c-0.4-0.4-0.9-0.7-1.4-0.7c-0.6,0-1.1,0.2-1.4,0.7S703.5,246.5,703.5,247.4z"></path>
		<path d="M713.6,251.5h-2.2v-8.3h2v1.2c0.3-0.6,0.7-0.9,0.9-1.1c0.3-0.2,0.6-0.3,0.9-0.3c0.5,0,1,0.1,1.4,0.4l-0.7,1.9    c-0.4-0.2-0.7-0.4-1-0.4c-0.3,0-0.6,0.1-0.8,0.3c-0.2,0.2-0.4,0.5-0.5,0.9c-0.1,0.4-0.2,1.4-0.2,2.8V251.5z"></path>
		<path d="M717.8,242.1v-2h2.2v2H717.8z M717.8,251.5v-8.3h2.2v8.3H717.8z"></path>
		<path d="M726,243.2v1.8h-1.5v3.3c0,0.7,0,1.1,0,1.2c0,0.1,0.1,0.2,0.2,0.3s0.2,0.1,0.4,0.1c0.2,0,0.5-0.1,0.9-0.2l0.2,1.7    c-0.5,0.2-1.1,0.3-1.7,0.3c-0.4,0-0.8-0.1-1.1-0.2c-0.3-0.1-0.6-0.3-0.7-0.5s-0.3-0.5-0.3-0.9c0-0.3-0.1-0.8-0.1-1.5V245h-1v-1.8    h1v-1.6l2.2-1.3v2.9H726z"></path>
		<path d="M726.5,243.2h2.3l2,5.9l1.9-5.9h2.3l-2.9,8l-0.5,1.4c-0.2,0.5-0.4,0.9-0.6,1.1c-0.2,0.3-0.4,0.5-0.6,0.6s-0.5,0.3-0.8,0.4    c-0.3,0.1-0.7,0.1-1.1,0.1c-0.4,0-0.8,0-1.2-0.1L727,253c0.3,0.1,0.7,0.1,0.9,0.1c0.5,0,0.9-0.1,1.1-0.4c0.2-0.3,0.4-0.7,0.6-1.1    L726.5,243.2z"></path>
	</g>
	<g class="st2">
		<path d="M671.3,267.3l2.2-0.2c0.1,0.8,0.4,1.3,0.8,1.7s1,0.5,1.7,0.5c0.7,0,1.3-0.2,1.7-0.5c0.4-0.3,0.6-0.7,0.6-1.1    c0-0.3-0.1-0.5-0.2-0.7c-0.2-0.2-0.4-0.4-0.8-0.5c-0.3-0.1-0.9-0.3-1.9-0.5c-1.2-0.3-2.1-0.7-2.6-1.1c-0.7-0.6-1.1-1.4-1.1-2.3    c0-0.6,0.2-1.1,0.5-1.6c0.3-0.5,0.8-0.9,1.4-1.2c0.6-0.3,1.4-0.4,2.3-0.4c1.4,0,2.5,0.3,3.2,0.9s1.1,1.5,1.1,2.5l-2.3,0.1    c-0.1-0.6-0.3-1-0.6-1.3c-0.3-0.3-0.8-0.4-1.5-0.4c-0.7,0-1.2,0.1-1.6,0.4c-0.2,0.2-0.4,0.4-0.4,0.7c0,0.3,0.1,0.5,0.3,0.7    c0.3,0.2,1,0.5,2.1,0.8s2,0.5,2.5,0.8s1,0.7,1.3,1.2s0.5,1.1,0.5,1.8c0,0.7-0.2,1.3-0.5,1.8c-0.4,0.6-0.9,1-1.5,1.3    c-0.7,0.3-1.5,0.4-2.5,0.4c-1.4,0-2.6-0.3-3.3-1C671.9,269.5,671.4,268.5,671.3,267.3z"></path>
		<path d="M687.3,268.3l2.2,0.4c-0.3,0.8-0.7,1.4-1.3,1.8c-0.6,0.4-1.4,0.6-2.3,0.6c-1.4,0-2.5-0.5-3.2-1.4    c-0.5-0.8-0.8-1.7-0.8-2.9c0-1.4,0.4-2.5,1.1-3.2s1.6-1.2,2.7-1.2c1.2,0,2.2,0.4,2.9,1.2c0.7,0.8,1.1,2.1,1,3.7h-5.5    c0,0.7,0.2,1.2,0.5,1.5c0.3,0.4,0.8,0.5,1.3,0.5c0.3,0,0.6-0.1,0.9-0.3S687.2,268.8,687.3,268.3z M687.4,266.1    c0-0.6-0.2-1.1-0.5-1.4s-0.7-0.5-1.1-0.5c-0.5,0-0.9,0.2-1.2,0.5s-0.5,0.8-0.5,1.4H687.4z"></path>
		<path d="M693.5,271h-2.2v-8.3h2v1.2c0.3-0.6,0.7-0.9,0.9-1.1c0.3-0.2,0.6-0.3,0.9-0.3c0.5,0,1,0.1,1.4,0.4l-0.7,1.9    c-0.4-0.2-0.7-0.4-1-0.4c-0.3,0-0.6,0.1-0.8,0.3c-0.2,0.2-0.4,0.5-0.5,0.9c-0.1,0.4-0.2,1.4-0.2,2.8V271z"></path>
		<path d="M699.9,271l-3.3-8.3h2.3l1.6,4.2l0.5,1.4c0.1-0.4,0.2-0.6,0.2-0.7c0.1-0.2,0.2-0.5,0.2-0.7l1.6-4.2h2.3l-3.3,8.3H699.9z"></path>
		<path d="M706.5,261.6v-2h2.2v2H706.5z M706.5,271v-8.3h2.2v8.3H706.5z"></path>
		<path d="M718.2,265.1l-2.2,0.4c-0.1-0.4-0.2-0.8-0.5-1s-0.6-0.3-1-0.3c-0.5,0-1,0.2-1.3,0.6c-0.3,0.4-0.5,1-0.5,1.9    c0,1,0.2,1.7,0.5,2.1c0.3,0.4,0.8,0.6,1.3,0.6c0.4,0,0.8-0.1,1-0.4s0.5-0.6,0.6-1.2l2.2,0.4c-0.2,1-0.7,1.7-1.3,2.2    c-0.6,0.5-1.5,0.8-2.6,0.8c-1.2,0-2.2-0.4-2.9-1.1c-0.7-0.8-1.1-1.8-1.1-3.2c0-1.4,0.4-2.4,1.1-3.2c0.7-0.8,1.7-1.1,2.9-1.1    c1,0,1.8,0.2,2.4,0.7C717.5,263.6,718,264.2,718.2,265.1z"></path>
		<path d="M724.7,268.3l2.2,0.4c-0.3,0.8-0.7,1.4-1.3,1.8c-0.6,0.4-1.4,0.6-2.3,0.6c-1.4,0-2.5-0.5-3.2-1.4    c-0.5-0.8-0.8-1.7-0.8-2.9c0-1.4,0.4-2.5,1.1-3.2s1.6-1.2,2.7-1.2c1.2,0,2.2,0.4,2.9,1.2c0.7,0.8,1.1,2.1,1,3.7h-5.5    c0,0.7,0.2,1.2,0.5,1.5c0.3,0.4,0.8,0.5,1.3,0.5c0.3,0,0.6-0.1,0.9-0.3S724.6,268.8,724.7,268.3z M724.8,266.1    c0-0.6-0.2-1.1-0.5-1.4s-0.7-0.5-1.1-0.5c-0.5,0-0.9,0.2-1.2,0.5s-0.5,0.8-0.5,1.4H724.8z"></path>
	</g>
</g>
<g id="Graphic_496">
	<rect x="828.7" y="213.2" class="st3" width="140" height="64"></rect>
	<rect x="828.7" y="213.2" class="st4" width="140" height="64"></rect>
	<g class="st2">
		<path d="M865.2,241.8h-2.5l-1-2.6h-4.6l-0.9,2.6h-2.5l4.5-11.5h2.4L865.2,241.8z M860.9,237.3l-1.6-4.2l-1.5,4.2H860.9z"></path>
		<path d="M867.1,241.8l-2.7-11.5h2.4l1.7,7.9l2.1-7.9h2.8l2,8l1.8-8h2.3l-2.8,11.5h-2.5l-2.3-8.6l-2.3,8.6H867.1z"></path>
		<path d="M880,238.1l2.2-0.2c0.1,0.8,0.4,1.3,0.8,1.7s1,0.5,1.7,0.5c0.7,0,1.3-0.2,1.7-0.5c0.4-0.3,0.6-0.7,0.6-1.1    c0-0.3-0.1-0.5-0.2-0.7c-0.2-0.2-0.4-0.4-0.8-0.5c-0.3-0.1-0.9-0.3-1.9-0.5c-1.2-0.3-2.1-0.7-2.6-1.1c-0.7-0.6-1.1-1.4-1.1-2.3    c0-0.6,0.2-1.1,0.5-1.6c0.3-0.5,0.8-0.9,1.4-1.2c0.6-0.3,1.4-0.4,2.3-0.4c1.4,0,2.5,0.3,3.2,0.9s1.1,1.5,1.1,2.5l-2.3,0.1    c-0.1-0.6-0.3-1-0.6-1.3c-0.3-0.3-0.8-0.4-1.5-0.4c-0.7,0-1.2,0.1-1.6,0.4c-0.2,0.2-0.4,0.4-0.4,0.7c0,0.3,0.1,0.5,0.3,0.7    c0.3,0.2,1,0.5,2.1,0.8s2,0.5,2.5,0.8s1,0.7,1.3,1.2s0.5,1.1,0.5,1.8c0,0.7-0.2,1.3-0.5,1.8c-0.4,0.6-0.9,1-1.5,1.3    c-0.7,0.3-1.5,0.4-2.5,0.4c-1.4,0-2.6-0.3-3.3-1C880.6,240.3,880.2,239.3,880,238.1z"></path>
		<path d="M895.1,238.1l2.2-0.2c0.1,0.8,0.4,1.3,0.8,1.7s1,0.5,1.7,0.5c0.7,0,1.3-0.2,1.7-0.5c0.4-0.3,0.6-0.7,0.6-1.1    c0-0.3-0.1-0.5-0.2-0.7c-0.2-0.2-0.4-0.4-0.8-0.5c-0.3-0.1-0.9-0.3-1.9-0.5c-1.2-0.3-2.1-0.7-2.6-1.1c-0.7-0.6-1.1-1.4-1.1-2.3    c0-0.6,0.2-1.1,0.5-1.6c0.3-0.5,0.8-0.9,1.4-1.2c0.6-0.3,1.4-0.4,2.3-0.4c1.4,0,2.5,0.3,3.2,0.9s1.1,1.5,1.1,2.5l-2.3,0.1    c-0.1-0.6-0.3-1-0.6-1.3c-0.3-0.3-0.8-0.4-1.5-0.4c-0.7,0-1.2,0.1-1.6,0.4c-0.2,0.2-0.4,0.4-0.4,0.7c0,0.3,0.1,0.5,0.3,0.7    c0.3,0.2,1,0.5,2.1,0.8s2,0.5,2.5,0.8s1,0.7,1.3,1.2s0.5,1.1,0.5,1.8c0,0.7-0.2,1.3-0.5,1.8c-0.4,0.6-0.9,1-1.5,1.3    c-0.7,0.3-1.5,0.4-2.5,0.4c-1.4,0-2.6-0.3-3.3-1C895.7,240.3,895.3,239.3,895.1,238.1z"></path>
		<path d="M911.2,239.1l2.2,0.4c-0.3,0.8-0.7,1.4-1.3,1.8c-0.6,0.4-1.4,0.6-2.3,0.6c-1.4,0-2.5-0.5-3.2-1.4    c-0.5-0.8-0.8-1.7-0.8-2.9c0-1.4,0.4-2.5,1.1-3.2s1.6-1.2,2.7-1.2c1.2,0,2.2,0.4,2.9,1.2c0.7,0.8,1.1,2.1,1,3.7H908    c0,0.7,0.2,1.2,0.5,1.5c0.3,0.4,0.8,0.5,1.3,0.5c0.3,0,0.6-0.1,0.9-0.3S911.1,239.6,911.2,239.1z M911.3,236.9    c0-0.6-0.2-1.1-0.5-1.4s-0.7-0.5-1.1-0.5c-0.5,0-0.9,0.2-1.2,0.5s-0.5,0.8-0.5,1.4H911.3z"></path>
		<path d="M922.5,235.9l-2.2,0.4c-0.1-0.4-0.2-0.8-0.5-1s-0.6-0.3-1-0.3c-0.5,0-1,0.2-1.3,0.6c-0.3,0.4-0.5,1-0.5,1.9    c0,1,0.2,1.7,0.5,2.1c0.3,0.4,0.8,0.6,1.3,0.6c0.4,0,0.8-0.1,1-0.4s0.5-0.6,0.6-1.2l2.2,0.4c-0.2,1-0.7,1.7-1.3,2.2    c-0.6,0.5-1.5,0.8-2.6,0.8c-1.2,0-2.2-0.4-2.9-1.1c-0.7-0.8-1.1-1.8-1.1-3.2c0-1.4,0.4-2.4,1.1-3.2c0.7-0.8,1.7-1.1,2.9-1.1    c1,0,1.8,0.2,2.4,0.7C921.8,234.4,922.2,235.1,922.5,235.9z"></path>
		<path d="M926.3,241.8h-2.2v-8.3h2v1.2c0.3-0.6,0.7-0.9,0.9-1.1c0.3-0.2,0.6-0.3,0.9-0.3c0.5,0,1,0.1,1.4,0.4l-0.7,1.9    c-0.4-0.2-0.7-0.4-1-0.4c-0.3,0-0.6,0.1-0.8,0.3c-0.2,0.2-0.4,0.5-0.5,0.9c-0.1,0.4-0.2,1.4-0.2,2.8V241.8z"></path>
		<path d="M935.2,239.1l2.2,0.4c-0.3,0.8-0.7,1.4-1.3,1.8c-0.6,0.4-1.4,0.6-2.3,0.6c-1.4,0-2.5-0.5-3.2-1.4    c-0.5-0.8-0.8-1.7-0.8-2.9c0-1.4,0.4-2.5,1.1-3.2s1.6-1.2,2.7-1.2c1.2,0,2.2,0.4,2.9,1.2c0.7,0.8,1.1,2.1,1,3.7H932    c0,0.7,0.2,1.2,0.5,1.5c0.3,0.4,0.8,0.5,1.3,0.5c0.3,0,0.6-0.1,0.9-0.3S935.1,239.6,935.2,239.1z M935.3,236.9    c0-0.6-0.2-1.1-0.5-1.4s-0.7-0.5-1.1-0.5c-0.5,0-0.9,0.2-1.2,0.5s-0.5,0.8-0.5,1.4H935.3z"></path>
		<path d="M943.1,233.5v1.8h-1.5v3.3c0,0.7,0,1.1,0,1.2c0,0.1,0.1,0.2,0.2,0.3s0.2,0.1,0.4,0.1c0.2,0,0.5-0.1,0.9-0.2l0.2,1.7    c-0.5,0.2-1.1,0.3-1.7,0.3c-0.4,0-0.8-0.1-1.1-0.2c-0.3-0.1-0.6-0.3-0.7-0.5s-0.3-0.5-0.3-0.9c0-0.3-0.1-0.8-0.1-1.5v-3.6h-1v-1.8    h1v-1.6l2.2-1.3v2.9H943.1z"></path>
	</g>
	<g class="st2">
		<path d="M866,261.2v-11.5h3.5l2.1,7.8l2.1-7.8h3.5v11.5h-2.1v-9l-2.3,9h-2.2l-2.3-9v9H866z"></path>
		<path d="M881,255.5l-2-0.4c0.2-0.8,0.6-1.4,1.2-1.8s1.4-0.6,2.4-0.6c1,0,1.7,0.1,2.2,0.3s0.8,0.5,1,0.9s0.3,1,0.3,2l0,2.6    c0,0.7,0,1.3,0.1,1.6s0.2,0.7,0.4,1.1h-2.2c-0.1-0.1-0.1-0.4-0.2-0.6c0-0.1-0.1-0.2-0.1-0.3c-0.4,0.4-0.8,0.6-1.2,0.8    s-0.9,0.3-1.4,0.3c-0.9,0-1.5-0.2-2-0.7s-0.7-1-0.7-1.8c0-0.5,0.1-0.9,0.3-1.3s0.5-0.6,0.9-0.8s1-0.4,1.7-0.5    c1-0.2,1.7-0.4,2.1-0.5v-0.2c0-0.4-0.1-0.7-0.3-0.9s-0.6-0.3-1.2-0.3c-0.4,0-0.7,0.1-0.9,0.2S881.1,255.1,881,255.5z M883.9,257.3    c-0.3,0.1-0.7,0.2-1.3,0.3s-1,0.3-1.2,0.4c-0.3,0.2-0.4,0.5-0.4,0.8c0,0.3,0.1,0.6,0.3,0.8s0.5,0.3,0.9,0.3c0.4,0,0.8-0.1,1.1-0.4    c0.3-0.2,0.4-0.4,0.5-0.7c0.1-0.2,0.1-0.5,0.1-1.1V257.3z"></path>
		<path d="M895.8,261.2h-2.2V257c0-0.9,0-1.5-0.1-1.7s-0.2-0.5-0.5-0.6s-0.5-0.2-0.8-0.2c-0.4,0-0.7,0.1-1,0.3s-0.5,0.5-0.6,0.8    s-0.2,1-0.2,1.9v3.8h-2.2V253h2v1.2c0.7-0.9,1.6-1.4,2.7-1.4c0.5,0,0.9,0.1,1.3,0.3s0.7,0.4,0.9,0.7s0.3,0.6,0.4,0.9    s0.1,0.8,0.1,1.5V261.2z"></path>
		<path d="M899.7,255.5l-2-0.4c0.2-0.8,0.6-1.4,1.2-1.8s1.4-0.6,2.4-0.6c1,0,1.7,0.1,2.2,0.3s0.8,0.5,1,0.9s0.3,1,0.3,2l0,2.6    c0,0.7,0,1.3,0.1,1.6s0.2,0.7,0.4,1.1h-2.2c-0.1-0.1-0.1-0.4-0.2-0.6c0-0.1-0.1-0.2-0.1-0.3c-0.4,0.4-0.8,0.6-1.2,0.8    s-0.9,0.3-1.4,0.3c-0.9,0-1.5-0.2-2-0.7s-0.7-1-0.7-1.8c0-0.5,0.1-0.9,0.3-1.3s0.5-0.6,0.9-0.8s1-0.4,1.7-0.5    c1-0.2,1.7-0.4,2.1-0.5v-0.2c0-0.4-0.1-0.7-0.3-0.9s-0.6-0.3-1.2-0.3c-0.4,0-0.7,0.1-0.9,0.2S899.8,255.1,899.7,255.5z     M902.6,257.3c-0.3,0.1-0.7,0.2-1.3,0.3s-1,0.3-1.2,0.4c-0.3,0.2-0.4,0.5-0.4,0.8c0,0.3,0.1,0.6,0.3,0.8s0.5,0.3,0.9,0.3    c0.4,0,0.8-0.1,1.1-0.4c0.3-0.2,0.4-0.4,0.5-0.7c0.1-0.2,0.1-0.5,0.1-1.1V257.3z"></path>
		<path d="M906.7,261.8l2.5,0.3c0,0.3,0.1,0.5,0.3,0.6c0.2,0.2,0.5,0.2,1,0.2c0.6,0,1-0.1,1.3-0.3c0.2-0.1,0.3-0.3,0.4-0.6    c0.1-0.2,0.1-0.5,0.1-1v-1.2c-0.7,0.9-1.5,1.3-2.5,1.3c-1.1,0-2-0.5-2.6-1.4c-0.5-0.7-0.8-1.7-0.8-2.8c0-1.4,0.3-2.5,1-3.2    s1.5-1.1,2.5-1.1c1,0,1.9,0.5,2.5,1.4V253h2.1v7.4c0,1-0.1,1.7-0.2,2.2s-0.4,0.9-0.7,1.1s-0.7,0.5-1.2,0.6s-1.1,0.2-1.8,0.2    c-1.4,0-2.4-0.2-3-0.7s-0.9-1.1-0.9-1.8C906.7,262,906.7,261.9,906.7,261.8z M908.7,256.9c0,0.9,0.2,1.5,0.5,1.9s0.8,0.6,1.3,0.6    c0.5,0,1-0.2,1.4-0.6s0.6-1,0.6-1.9c0-0.9-0.2-1.5-0.5-1.9s-0.8-0.6-1.3-0.6c-0.5,0-1,0.2-1.3,0.6S908.7,256.1,908.7,256.9z"></path>
		<path d="M921.5,258.6l2.2,0.4c-0.3,0.8-0.7,1.4-1.3,1.8s-1.4,0.6-2.3,0.6c-1.4,0-2.5-0.5-3.2-1.4c-0.5-0.8-0.8-1.7-0.8-2.9    c0-1.4,0.4-2.5,1.1-3.2s1.6-1.2,2.7-1.2c1.2,0,2.2,0.4,2.9,1.2s1.1,2.1,1,3.7h-5.5c0,0.7,0.2,1.2,0.5,1.5s0.8,0.5,1.3,0.5    c0.3,0,0.6-0.1,0.9-0.3S921.4,259,921.5,258.6z M921.6,256.4c0-0.6-0.2-1.1-0.5-1.4s-0.7-0.5-1.1-0.5c-0.5,0-0.9,0.2-1.2,0.5    s-0.5,0.8-0.5,1.4H921.6z"></path>
		<path d="M927.7,261.2h-2.2V253h2v1.2c0.3-0.6,0.7-0.9,0.9-1.1s0.6-0.3,0.9-0.3c0.5,0,1,0.1,1.4,0.4l-0.7,1.9    c-0.4-0.2-0.7-0.4-1-0.4c-0.3,0-0.6,0.1-0.8,0.3s-0.4,0.5-0.5,0.9s-0.2,1.4-0.2,2.8V261.2z"></path>
	</g>
</g>
<g id="Graphic_495">
	<rect x="1028.3" y="213.2" class="st3" width="140" height="64"></rect>
	<rect x="1028.3" y="213.2" class="st4" width="140" height="64"></rect>
	<g class="st2">
		<path d="M1049.6,241.8h-2.5l-1-2.6h-4.6l-0.9,2.6h-2.5l4.5-11.5h2.4L1049.6,241.8z M1045.3,237.3l-1.6-4.2l-1.5,4.2H1045.3z"></path>
		<path d="M1051.5,241.8l-2.7-11.5h2.4l1.7,7.9l2.1-7.9h2.8l2,8l1.8-8h2.3l-2.8,11.5h-2.5l-2.3-8.6l-2.3,8.6H1051.5z"></path>
		<path d="M1064.4,238.1l2.2-0.2c0.1,0.8,0.4,1.3,0.8,1.7s1,0.5,1.7,0.5c0.7,0,1.3-0.2,1.7-0.5s0.6-0.7,0.6-1.1    c0-0.3-0.1-0.5-0.2-0.7s-0.4-0.4-0.8-0.5c-0.3-0.1-0.9-0.3-1.9-0.5c-1.2-0.3-2.1-0.7-2.6-1.1c-0.7-0.6-1.1-1.4-1.1-2.3    c0-0.6,0.2-1.1,0.5-1.6s0.8-0.9,1.4-1.2s1.4-0.4,2.3-0.4c1.4,0,2.5,0.3,3.2,0.9s1.1,1.5,1.1,2.5l-2.3,0.1c-0.1-0.6-0.3-1-0.6-1.3    s-0.8-0.4-1.5-0.4c-0.7,0-1.2,0.1-1.6,0.4c-0.2,0.2-0.4,0.4-0.4,0.7c0,0.3,0.1,0.5,0.3,0.7c0.3,0.2,1,0.5,2.1,0.8s2,0.5,2.5,0.8    s1,0.7,1.3,1.2s0.5,1.1,0.5,1.8c0,0.7-0.2,1.3-0.5,1.8s-0.9,1-1.5,1.3s-1.5,0.4-2.5,0.4c-1.4,0-2.6-0.3-3.3-1    S1064.6,239.3,1064.4,238.1z"></path>
		<path d="M1087.5,237.6l2.2,0.7c-0.3,1.2-0.9,2.2-1.7,2.8s-1.8,0.9-3,0.9c-1.5,0-2.8-0.5-3.8-1.6s-1.5-2.5-1.5-4.3    c0-1.9,0.5-3.4,1.5-4.4s2.3-1.6,3.9-1.6c1.4,0,2.5,0.4,3.4,1.2c0.5,0.5,0.9,1.2,1.2,2.1l-2.3,0.5c-0.1-0.6-0.4-1.1-0.8-1.4    s-1-0.5-1.6-0.5c-0.8,0-1.5,0.3-2.1,0.9s-0.8,1.6-0.8,3c0,1.4,0.3,2.5,0.8,3.1s1.2,0.9,2,0.9c0.6,0,1.1-0.2,1.6-0.6    S1087.3,238.4,1087.5,237.6z"></path>
		<path d="M1096.5,239.1l2.2,0.4c-0.3,0.8-0.7,1.4-1.3,1.8s-1.4,0.6-2.3,0.6c-1.4,0-2.5-0.5-3.2-1.4c-0.5-0.8-0.8-1.7-0.8-2.9    c0-1.4,0.4-2.5,1.1-3.2s1.6-1.2,2.7-1.2c1.2,0,2.2,0.4,2.9,1.2s1.1,2.1,1,3.7h-5.5c0,0.7,0.2,1.2,0.5,1.5s0.8,0.5,1.3,0.5    c0.3,0,0.6-0.1,0.9-0.3S1096.4,239.6,1096.5,239.1z M1096.6,236.9c0-0.6-0.2-1.1-0.5-1.4s-0.7-0.5-1.1-0.5c-0.5,0-0.9,0.2-1.2,0.5    s-0.5,0.8-0.5,1.4H1096.6z"></path>
		<path d="M1102.7,241.8h-2.2v-8.3h2v1.2c0.3-0.6,0.7-0.9,0.9-1.1s0.6-0.3,0.9-0.3c0.5,0,1,0.1,1.4,0.4l-0.7,1.9    c-0.4-0.2-0.7-0.4-1-0.4c-0.3,0-0.6,0.1-0.8,0.3s-0.4,0.5-0.5,0.9s-0.2,1.4-0.2,2.8V241.8z"></path>
		<path d="M1110.6,233.5v1.8h-1.5v3.3c0,0.7,0,1.1,0,1.2s0.1,0.2,0.2,0.3s0.2,0.1,0.4,0.1c0.2,0,0.5-0.1,0.9-0.2l0.2,1.7    c-0.5,0.2-1.1,0.3-1.7,0.3c-0.4,0-0.8-0.1-1.1-0.2s-0.6-0.3-0.7-0.5s-0.3-0.5-0.3-0.9c0-0.3-0.1-0.8-0.1-1.5v-3.6h-1v-1.8h1v-1.6    l2.2-1.3v2.9H1110.6z"></path>
		<path d="M1112.1,232.4v-2h2.2v2H1112.1z M1112.1,241.8v-8.3h2.2v8.3H1112.1z"></path>
		<path d="M1115.6,233.5h1.2v-0.6c0-0.7,0.1-1.2,0.2-1.6s0.4-0.6,0.8-0.8s0.9-0.3,1.5-0.3c0.6,0,1.2,0.1,1.8,0.3l-0.3,1.5    c-0.3-0.1-0.7-0.1-1-0.1c-0.3,0-0.5,0.1-0.7,0.2s-0.2,0.4-0.2,0.9v0.6h1.6v1.7h-1.6v6.6h-2.2v-6.6h-1.2V233.5z"></path>
		<path d="M1121.9,232.4v-2h2.2v2H1121.9z M1121.9,241.8v-8.3h2.2v8.3H1121.9z"></path>
		<path d="M1133.6,235.9l-2.2,0.4c-0.1-0.4-0.2-0.8-0.5-1s-0.6-0.3-1-0.3c-0.5,0-1,0.2-1.3,0.6s-0.5,1-0.5,1.9c0,1,0.2,1.7,0.5,2.1    s0.8,0.6,1.3,0.6c0.4,0,0.8-0.1,1-0.4s0.5-0.6,0.6-1.2l2.2,0.4c-0.2,1-0.7,1.7-1.3,2.2s-1.5,0.8-2.6,0.8c-1.2,0-2.2-0.4-2.9-1.1    s-1.1-1.8-1.1-3.2c0-1.4,0.4-2.4,1.1-3.2s1.7-1.1,2.9-1.1c1,0,1.8,0.2,2.4,0.7S1133.3,235.1,1133.6,235.9z"></path>
		<path d="M1136.9,236l-2-0.4c0.2-0.8,0.6-1.4,1.2-1.8s1.4-0.6,2.4-0.6c1,0,1.7,0.1,2.2,0.3s0.8,0.5,1,0.9s0.3,1,0.3,2l0,2.6    c0,0.7,0,1.3,0.1,1.6s0.2,0.7,0.4,1.1h-2.2c-0.1-0.1-0.1-0.4-0.2-0.6c0-0.1-0.1-0.2-0.1-0.3c-0.4,0.4-0.8,0.6-1.2,0.8    s-0.9,0.3-1.4,0.3c-0.9,0-1.5-0.2-2-0.7s-0.7-1-0.7-1.8c0-0.5,0.1-0.9,0.3-1.3s0.5-0.6,0.9-0.8s1-0.4,1.7-0.5    c1-0.2,1.7-0.4,2.1-0.5v-0.2c0-0.4-0.1-0.7-0.3-0.9s-0.6-0.3-1.2-0.3c-0.4,0-0.7,0.1-0.9,0.2S1137,235.6,1136.9,236z     M1139.8,237.8c-0.3,0.1-0.7,0.2-1.3,0.3s-1,0.3-1.2,0.4c-0.3,0.2-0.4,0.5-0.4,0.8c0,0.3,0.1,0.6,0.3,0.8s0.5,0.3,0.9,0.3    c0.4,0,0.8-0.1,1.1-0.4c0.3-0.2,0.4-0.4,0.5-0.7c0.1-0.2,0.1-0.5,0.1-1.1V237.8z"></path>
		<path d="M1148,233.5v1.8h-1.5v3.3c0,0.7,0,1.1,0,1.2s0.1,0.2,0.2,0.3s0.2,0.1,0.4,0.1c0.2,0,0.5-0.1,0.9-0.2l0.2,1.7    c-0.5,0.2-1.1,0.3-1.7,0.3c-0.4,0-0.8-0.1-1.1-0.2s-0.6-0.3-0.7-0.5s-0.3-0.5-0.3-0.9c0-0.3-0.1-0.8-0.1-1.5v-3.6h-1v-1.8h1v-1.6    l2.2-1.3v2.9H1148z"></path>
		<path d="M1154.3,239.1l2.2,0.4c-0.3,0.8-0.7,1.4-1.3,1.8s-1.4,0.6-2.3,0.6c-1.4,0-2.5-0.5-3.2-1.4c-0.5-0.8-0.8-1.7-0.8-2.9    c0-1.4,0.4-2.5,1.1-3.2s1.6-1.2,2.7-1.2c1.2,0,2.2,0.4,2.9,1.2s1.1,2.1,1,3.7h-5.5c0,0.7,0.2,1.2,0.5,1.5s0.8,0.5,1.3,0.5    c0.3,0,0.6-0.1,0.9-0.3S1154.2,239.6,1154.3,239.1z M1154.4,236.9c0-0.6-0.2-1.1-0.5-1.4s-0.7-0.5-1.1-0.5c-0.5,0-0.9,0.2-1.2,0.5    s-0.5,0.8-0.5,1.4H1154.4z"></path>
	</g>
	<g class="st2">
		<path d="M1065.7,261.2v-11.5h3.5l2.1,7.8l2.1-7.8h3.5v11.5h-2.1v-9l-2.3,9h-2.2l-2.3-9v9H1065.7z"></path>
		<path d="M1080.7,255.5l-2-0.4c0.2-0.8,0.6-1.4,1.2-1.8s1.4-0.6,2.4-0.6c1,0,1.7,0.1,2.2,0.3c0.5,0.2,0.8,0.5,1,0.9s0.3,1,0.3,2    l0,2.6c0,0.7,0,1.3,0.1,1.6s0.2,0.7,0.4,1.1h-2.2c-0.1-0.1-0.1-0.4-0.2-0.6c0-0.1-0.1-0.2-0.1-0.3c-0.4,0.4-0.8,0.6-1.2,0.8    c-0.4,0.2-0.9,0.3-1.4,0.3c-0.9,0-1.5-0.2-2-0.7s-0.7-1-0.7-1.8c0-0.5,0.1-0.9,0.3-1.3c0.2-0.4,0.5-0.6,0.9-0.8    c0.4-0.2,1-0.4,1.7-0.5c1-0.2,1.7-0.4,2.1-0.5v-0.2c0-0.4-0.1-0.7-0.3-0.9c-0.2-0.2-0.6-0.3-1.2-0.3c-0.4,0-0.7,0.1-0.9,0.2    S1080.8,255.1,1080.7,255.5z M1083.6,257.3c-0.3,0.1-0.7,0.2-1.3,0.3s-1,0.3-1.2,0.4c-0.3,0.2-0.4,0.5-0.4,0.8    c0,0.3,0.1,0.6,0.3,0.8c0.2,0.2,0.5,0.3,0.9,0.3c0.4,0,0.8-0.1,1.1-0.4c0.3-0.2,0.4-0.4,0.5-0.7c0.1-0.2,0.1-0.5,0.1-1.1V257.3z"></path>
		<path d="M1095.5,261.2h-2.2V257c0-0.9,0-1.5-0.1-1.7s-0.2-0.5-0.5-0.6s-0.5-0.2-0.8-0.2c-0.4,0-0.7,0.1-1,0.3    c-0.3,0.2-0.5,0.5-0.6,0.8c-0.1,0.3-0.2,1-0.2,1.9v3.8h-2.2V253h2v1.2c0.7-0.9,1.6-1.4,2.7-1.4c0.5,0,0.9,0.1,1.3,0.3    c0.4,0.2,0.7,0.4,0.9,0.7c0.2,0.3,0.3,0.6,0.4,0.9c0.1,0.3,0.1,0.8,0.1,1.5V261.2z"></path>
		<path d="M1099.3,255.5l-2-0.4c0.2-0.8,0.6-1.4,1.2-1.8s1.4-0.6,2.4-0.6c1,0,1.7,0.1,2.2,0.3c0.5,0.2,0.8,0.5,1,0.9s0.3,1,0.3,2    l0,2.6c0,0.7,0,1.3,0.1,1.6s0.2,0.7,0.4,1.1h-2.2c-0.1-0.1-0.1-0.4-0.2-0.6c0-0.1-0.1-0.2-0.1-0.3c-0.4,0.4-0.8,0.6-1.2,0.8    c-0.4,0.2-0.9,0.3-1.4,0.3c-0.9,0-1.5-0.2-2-0.7s-0.7-1-0.7-1.8c0-0.5,0.1-0.9,0.3-1.3c0.2-0.4,0.5-0.6,0.9-0.8    c0.4-0.2,1-0.4,1.7-0.5c1-0.2,1.7-0.4,2.1-0.5v-0.2c0-0.4-0.1-0.7-0.3-0.9c-0.2-0.2-0.6-0.3-1.2-0.3c-0.4,0-0.7,0.1-0.9,0.2    S1099.5,255.1,1099.3,255.5z M1102.3,257.3c-0.3,0.1-0.7,0.2-1.3,0.3s-1,0.3-1.2,0.4c-0.3,0.2-0.4,0.5-0.4,0.8    c0,0.3,0.1,0.6,0.3,0.8c0.2,0.2,0.5,0.3,0.9,0.3c0.4,0,0.8-0.1,1.1-0.4c0.3-0.2,0.4-0.4,0.5-0.7c0.1-0.2,0.1-0.5,0.1-1.1V257.3z"></path>
		<path d="M1106.4,261.8l2.5,0.3c0,0.3,0.1,0.5,0.3,0.6c0.2,0.2,0.5,0.2,1,0.2c0.6,0,1-0.1,1.3-0.3c0.2-0.1,0.3-0.3,0.4-0.6    c0.1-0.2,0.1-0.5,0.1-1v-1.2c-0.7,0.9-1.5,1.3-2.5,1.3c-1.1,0-2-0.5-2.6-1.4c-0.5-0.7-0.8-1.7-0.8-2.8c0-1.4,0.3-2.5,1-3.2    c0.7-0.7,1.5-1.1,2.5-1.1c1,0,1.9,0.5,2.5,1.4V253h2.1v7.4c0,1-0.1,1.7-0.2,2.2c-0.2,0.5-0.4,0.9-0.7,1.1    c-0.3,0.3-0.7,0.5-1.2,0.6c-0.5,0.2-1.1,0.2-1.8,0.2c-1.4,0-2.4-0.2-3-0.7c-0.6-0.5-0.9-1.1-0.9-1.8    C1106.4,262,1106.4,261.9,1106.4,261.8z M1108.4,256.9c0,0.9,0.2,1.5,0.5,1.9c0.3,0.4,0.8,0.6,1.3,0.6c0.5,0,1-0.2,1.4-0.6    c0.4-0.4,0.6-1,0.6-1.9c0-0.9-0.2-1.5-0.5-1.9c-0.4-0.4-0.8-0.6-1.3-0.6c-0.5,0-1,0.2-1.3,0.6    C1108.5,255.5,1108.4,256.1,1108.4,256.9z"></path>
		<path d="M1121.2,258.6l2.2,0.4c-0.3,0.8-0.7,1.4-1.3,1.8c-0.6,0.4-1.4,0.6-2.3,0.6c-1.4,0-2.5-0.5-3.2-1.4    c-0.5-0.8-0.8-1.7-0.8-2.9c0-1.4,0.4-2.5,1.1-3.2s1.6-1.2,2.7-1.2c1.2,0,2.2,0.4,2.9,1.2c0.7,0.8,1.1,2.1,1,3.7h-5.5    c0,0.7,0.2,1.2,0.5,1.5c0.3,0.4,0.8,0.5,1.3,0.5c0.3,0,0.6-0.1,0.9-0.3S1121.1,259,1121.2,258.6z M1121.3,256.4    c0-0.6-0.2-1.1-0.5-1.4s-0.7-0.5-1.1-0.5c-0.5,0-0.9,0.2-1.2,0.5s-0.5,0.8-0.5,1.4H1121.3z"></path>
		<path d="M1127.4,261.2h-2.2V253h2v1.2c0.3-0.6,0.7-0.9,0.9-1.1c0.3-0.2,0.6-0.3,0.9-0.3c0.5,0,1,0.1,1.4,0.4l-0.7,1.9    c-0.4-0.2-0.7-0.4-1-0.4c-0.3,0-0.6,0.1-0.8,0.3c-0.2,0.2-0.4,0.5-0.5,0.9c-0.1,0.4-0.2,1.4-0.2,2.8V261.2z"></path>
	</g>
</g>
<g id="Graphic_494">
	<rect x="1228" y="213.2" class="st3" width="140" height="64"></rect>
	<rect x="1228" y="213.2" class="st4" width="140" height="64"></rect>
	<g class="st2">
		<path d="M1282.3,240.1h4.2c1,0,1.7,0.1,2.2,0.2c0.7,0.2,1.2,0.5,1.7,1.1s0.8,1.1,1.1,1.9s0.4,1.6,0.4,2.7c0,0.9-0.1,1.8-0.4,2.4    c-0.3,0.8-0.7,1.5-1.2,2c-0.4,0.4-0.9,0.7-1.6,0.9c-0.5,0.2-1.2,0.2-2,0.2h-4.4V240.1z M1284.6,242v7.6h1.7c0.6,0,1.1,0,1.4-0.1    c0.4-0.1,0.7-0.3,0.9-0.5s0.4-0.6,0.6-1.1s0.2-1.2,0.2-2.1s-0.1-1.6-0.2-2s-0.4-0.8-0.7-1.1s-0.6-0.4-1.1-0.5    c-0.3-0.1-1-0.1-1.9-0.1H1284.6z"></path>
		<path d="M1293.8,242.1v-2h2.2v2H1293.8z M1293.8,251.5v-8.3h2.2v8.3H1293.8z"></path>
		<path d="M1297.5,249.2l2.2-0.3c0.1,0.4,0.3,0.8,0.6,1s0.7,0.3,1.2,0.3c0.6,0,1-0.1,1.3-0.3c0.2-0.1,0.3-0.3,0.3-0.6    c0-0.2-0.1-0.3-0.2-0.4c-0.1-0.1-0.4-0.2-0.7-0.3c-1.8-0.4-2.9-0.7-3.4-1.1c-0.7-0.4-1-1.1-1-1.9c0-0.7,0.3-1.3,0.9-1.8    s1.4-0.7,2.6-0.7c1.1,0,2,0.2,2.5,0.6s0.9,0.9,1.1,1.6l-2.1,0.4c-0.1-0.3-0.3-0.6-0.5-0.7s-0.6-0.3-1.1-0.3c-0.6,0-1,0.1-1.2,0.2    c-0.2,0.1-0.2,0.3-0.2,0.4c0,0.2,0.1,0.3,0.2,0.4c0.2,0.1,0.9,0.4,2.1,0.6s2,0.6,2.4,1c0.5,0.4,0.7,0.9,0.7,1.6c0,0.8-0.3,1.4-1,2    s-1.6,0.8-2.8,0.8c-1.1,0-2-0.2-2.7-0.7S1297.7,249.9,1297.5,249.2z"></path>
		<path d="M1307.1,251.5v-11.5h2.2v6.1l2.6-2.9h2.7l-2.8,3l3,5.3h-2.4l-2.1-3.7l-1,1.1v2.7H1307.1z"></path>
	</g>
</g>
<g id="Graphic_493">
	<rect x="30" y="564" class="st0" width="140" height="64"></rect>
	<rect x="30" y="564" class="st1" width="140" height="64"></rect>
	<g class="st2">
		<path class="st3" d="M79.8,602.3v-11.5h2.3v11.5H79.8z"></path>
		<path class="st3" d="M83.5,599.9l2.2-0.3c0.1,0.4,0.3,0.8,0.6,1c0.3,0.2,0.7,0.3,1.2,0.3c0.6,0,1-0.1,1.3-0.3    c0.2-0.1,0.3-0.3,0.3-0.6c0-0.2-0.1-0.3-0.2-0.4c-0.1-0.1-0.4-0.2-0.7-0.3c-1.8-0.4-2.9-0.7-3.4-1.1c-0.7-0.4-1-1.1-1-1.9    c0-0.7,0.3-1.3,0.9-1.8c0.6-0.5,1.4-0.7,2.6-0.7c1.1,0,2,0.2,2.5,0.6c0.6,0.4,0.9,0.9,1.1,1.6l-2.1,0.4c-0.1-0.3-0.3-0.6-0.5-0.7    c-0.2-0.2-0.6-0.3-1.1-0.3c-0.6,0-1,0.1-1.2,0.2c-0.2,0.1-0.2,0.3-0.2,0.4c0,0.2,0.1,0.3,0.2,0.4c0.2,0.1,0.9,0.4,2.1,0.6    c1.2,0.3,2,0.6,2.4,1c0.5,0.4,0.7,0.9,0.7,1.6c0,0.8-0.3,1.4-1,2c-0.6,0.5-1.6,0.8-2.8,0.8c-1.1,0-2-0.2-2.7-0.7    C84.1,601.3,83.7,600.7,83.5,599.9z"></path>
		<path class="st3" d="M97,594v1.8h-1.5v3.3c0,0.7,0,1.1,0,1.2c0,0.1,0.1,0.2,0.2,0.3s0.2,0.1,0.4,0.1c0.2,0,0.5-0.1,0.9-0.2    l0.2,1.7c-0.5,0.2-1.1,0.3-1.7,0.3c-0.4,0-0.8-0.1-1.1-0.2c-0.3-0.1-0.6-0.3-0.7-0.5s-0.3-0.5-0.3-0.9c0-0.3-0.1-0.8-0.1-1.5v-3.6    h-1V594h1v-1.6l2.2-1.3v2.9H97z"></path>
		<path class="st3" d="M98.5,592.8v-2h2.2v2H98.5z M98.5,602.3V594h2.2v8.3H98.5z"></path>
		<path class="st3" d="M102.4,598c0-0.7,0.2-1.4,0.5-2.1s0.9-1.2,1.5-1.6c0.7-0.4,1.4-0.5,2.2-0.5c1.3,0,2.3,0.4,3.1,1.2    c0.8,0.8,1.2,1.8,1.2,3.1c0,1.3-0.4,2.3-1.2,3.1c-0.8,0.8-1.8,1.2-3.1,1.2c-0.8,0-1.5-0.2-2.2-0.5c-0.7-0.3-1.2-0.8-1.6-1.5    S102.4,599,102.4,598z M104.7,598.1c0,0.8,0.2,1.5,0.6,1.9s0.9,0.7,1.4,0.7c0.6,0,1.1-0.2,1.4-0.7c0.4-0.4,0.6-1.1,0.6-1.9    c0-0.8-0.2-1.4-0.6-1.9c-0.4-0.4-0.9-0.7-1.4-0.7c-0.6,0-1.1,0.2-1.4,0.7S104.7,597.3,104.7,598.1z"></path>
		<path class="st3" d="M120.3,602.3h-2V601c-0.3,0.5-0.7,0.8-1.2,1.1s-0.9,0.3-1.4,0.3c-1,0-1.8-0.4-2.4-1.2s-1-1.8-1-3.2    c0-1.4,0.3-2.5,1-3.2c0.7-0.7,1.5-1.1,2.5-1.1c0.9,0,1.7,0.4,2.4,1.2v-4.1h2.2V602.3z M114.5,597.9c0,0.9,0.1,1.5,0.4,1.9    c0.4,0.6,0.8,0.9,1.5,0.9c0.5,0,0.9-0.2,1.3-0.6c0.4-0.4,0.5-1.1,0.5-1.9c0-1-0.2-1.6-0.5-2.1s-0.8-0.6-1.3-0.6    c-0.5,0-1,0.2-1.3,0.6S114.5,597.1,114.5,597.9z"></path>
	</g>
</g>
<g id="Graphic_492">
	<rect x="430" y="564" class="st5" width="140" height="64"></rect>
	<rect x="430" y="564" class="st1" width="140" height="64"></rect>
	<g class="st2">
		<path class="st3" d="M437.4,592.5v-11.5h2.3v11.5H437.4z"></path>
		<path class="st3" d="M449.4,592.5h-2.2v-4.2c0-0.9,0-1.5-0.1-1.7s-0.2-0.5-0.5-0.6s-0.5-0.2-0.8-0.2c-0.4,0-0.7,0.1-1,0.3    s-0.5,0.5-0.6,0.8s-0.2,1-0.2,1.9v3.8h-2.2v-8.3h2v1.2c0.7-0.9,1.6-1.4,2.7-1.4c0.5,0,0.9,0.1,1.3,0.3s0.7,0.4,0.9,0.7    s0.3,0.6,0.4,0.9s0.1,0.8,0.1,1.5V592.5z"></path>
		<path class="st3" d="M451.5,593.1l2.5,0.3c0,0.3,0.1,0.5,0.3,0.6c0.2,0.2,0.5,0.2,1,0.2c0.6,0,1-0.1,1.3-0.3    c0.2-0.1,0.3-0.3,0.4-0.6c0.1-0.2,0.1-0.5,0.1-1v-1.2c-0.7,0.9-1.5,1.3-2.5,1.3c-1.1,0-2-0.5-2.6-1.4c-0.5-0.7-0.8-1.7-0.8-2.8    c0-1.4,0.3-2.5,1-3.2s1.5-1.1,2.5-1.1c1,0,1.9,0.5,2.5,1.4v-1.2h2.1v7.4c0,1-0.1,1.7-0.2,2.2s-0.4,0.9-0.7,1.1s-0.7,0.5-1.2,0.6    s-1.1,0.2-1.8,0.2c-1.4,0-2.4-0.2-3-0.7s-0.9-1.1-0.9-1.8C451.5,593.3,451.5,593.2,451.5,593.1z M453.4,588.2    c0,0.9,0.2,1.5,0.5,1.9s0.8,0.6,1.3,0.6c0.5,0,1-0.2,1.4-0.6s0.6-1,0.6-1.9c0-0.9-0.2-1.5-0.5-1.9s-0.8-0.6-1.3-0.6    c-0.5,0-1,0.2-1.3,0.6S453.4,587.4,453.4,588.2z"></path>
		<path class="st3" d="M463.5,592.5h-2.2v-8.3h2v1.2c0.3-0.6,0.7-0.9,0.9-1.1s0.6-0.3,0.9-0.3c0.5,0,1,0.1,1.4,0.4l-0.7,1.9    c-0.4-0.2-0.7-0.4-1-0.4c-0.3,0-0.6,0.1-0.8,0.3s-0.4,0.5-0.5,0.9s-0.2,1.4-0.2,2.8V592.5z"></path>
		<path class="st3" d="M472.5,589.9l2.2,0.4c-0.3,0.8-0.7,1.4-1.3,1.8s-1.4,0.6-2.3,0.6c-1.4,0-2.5-0.5-3.2-1.4    c-0.5-0.8-0.8-1.7-0.8-2.9c0-1.4,0.4-2.5,1.1-3.2s1.6-1.2,2.7-1.2c1.2,0,2.2,0.4,2.9,1.2s1.1,2.1,1,3.7h-5.5    c0,0.7,0.2,1.2,0.5,1.5s0.8,0.5,1.3,0.5c0.3,0,0.6-0.1,0.9-0.3S472.4,590.3,472.5,589.9z M472.6,587.7c0-0.6-0.2-1.1-0.5-1.4    s-0.7-0.5-1.1-0.5c-0.5,0-0.9,0.2-1.2,0.5s-0.5,0.8-0.5,1.4H472.6z"></path>
		<path class="st3" d="M475.8,590.2l2.2-0.3c0.1,0.4,0.3,0.8,0.6,1s0.7,0.3,1.2,0.3c0.6,0,1-0.1,1.3-0.3c0.2-0.1,0.3-0.3,0.3-0.6    c0-0.2-0.1-0.3-0.2-0.4c-0.1-0.1-0.4-0.2-0.7-0.3c-1.8-0.4-2.9-0.7-3.4-1.1c-0.7-0.4-1-1.1-1-1.9c0-0.7,0.3-1.3,0.9-1.8    s1.4-0.7,2.6-0.7c1.1,0,2,0.2,2.5,0.6s0.9,0.9,1.1,1.6l-2.1,0.4c-0.1-0.3-0.3-0.6-0.5-0.7s-0.6-0.3-1.1-0.3c-0.6,0-1,0.1-1.2,0.2    c-0.2,0.1-0.2,0.3-0.2,0.4c0,0.2,0.1,0.3,0.2,0.4c0.2,0.1,0.9,0.4,2.1,0.6s2,0.6,2.4,1c0.5,0.4,0.7,0.9,0.7,1.6c0,0.8-0.3,1.4-1,2    s-1.6,0.8-2.8,0.8c-1.1,0-2-0.2-2.7-0.7S476,591,475.8,590.2z"></path>
		<path class="st3" d="M484.7,590.2l2.2-0.3c0.1,0.4,0.3,0.8,0.6,1s0.7,0.3,1.2,0.3c0.6,0,1-0.1,1.3-0.3c0.2-0.1,0.3-0.3,0.3-0.6    c0-0.2-0.1-0.3-0.2-0.4c-0.1-0.1-0.4-0.2-0.7-0.3c-1.8-0.4-2.9-0.7-3.4-1.1c-0.7-0.4-1-1.1-1-1.9c0-0.7,0.3-1.3,0.9-1.8    s1.4-0.7,2.6-0.7c1.1,0,2,0.2,2.5,0.6s0.9,0.9,1.1,1.6l-2.1,0.4c-0.1-0.3-0.3-0.6-0.5-0.7s-0.6-0.3-1.1-0.3c-0.6,0-1,0.1-1.2,0.2    c-0.2,0.1-0.2,0.3-0.2,0.4c0,0.2,0.1,0.3,0.2,0.4c0.2,0.1,0.9,0.4,2.1,0.6s2,0.6,2.4,1c0.5,0.4,0.7,0.9,0.7,1.6c0,0.8-0.3,1.4-1,2    s-1.6,0.8-2.8,0.8c-1.1,0-2-0.2-2.7-0.7S484.9,591,484.7,590.2z"></path>
		<path class="st3" d="M504.2,588.3v-1.9h5v4.6c-0.5,0.5-1.2,0.9-2.1,1.2s-1.9,0.5-2.8,0.5c-1.2,0-2.2-0.3-3.1-0.8s-1.6-1.2-2-2.2    s-0.7-2-0.7-3.1c0-1.2,0.2-2.3,0.8-3.2s1.2-1.6,2.2-2.1c0.7-0.4,1.6-0.6,2.7-0.6c1.4,0,2.5,0.3,3.3,0.9s1.3,1.4,1.5,2.5l-2.3,0.4    c-0.2-0.6-0.5-1-0.9-1.3s-1-0.5-1.7-0.5c-1,0-1.8,0.3-2.4,1s-0.9,1.6-0.9,2.9c0,1.4,0.3,2.4,0.9,3.1s1.4,1,2.4,1    c0.5,0,1-0.1,1.5-0.3s0.9-0.4,1.3-0.7v-1.5H504.2z"></path>
		<path class="st3" d="M512.9,586.8l-2-0.4c0.2-0.8,0.6-1.4,1.2-1.8s1.4-0.6,2.4-0.6c1,0,1.7,0.1,2.2,0.3s0.8,0.5,1,0.9s0.3,1,0.3,2    l0,2.6c0,0.7,0,1.3,0.1,1.6s0.2,0.7,0.4,1.1h-2.2c-0.1-0.1-0.1-0.4-0.2-0.6c0-0.1-0.1-0.2-0.1-0.3c-0.4,0.4-0.8,0.6-1.2,0.8    s-0.9,0.3-1.4,0.3c-0.9,0-1.5-0.2-2-0.7s-0.7-1-0.7-1.8c0-0.5,0.1-0.9,0.3-1.3s0.5-0.6,0.9-0.8s1-0.4,1.7-0.5    c1-0.2,1.7-0.4,2.1-0.5v-0.2c0-0.4-0.1-0.7-0.3-0.9s-0.6-0.3-1.2-0.3c-0.4,0-0.7,0.1-0.9,0.2S513,586.4,512.9,586.8z M515.8,588.6    c-0.3,0.1-0.7,0.2-1.3,0.3s-1,0.3-1.2,0.4c-0.3,0.2-0.4,0.5-0.4,0.8c0,0.3,0.1,0.6,0.3,0.8s0.5,0.3,0.9,0.3c0.4,0,0.8-0.1,1.1-0.4    c0.3-0.2,0.4-0.4,0.5-0.7c0.1-0.2,0.1-0.5,0.1-1.1V588.6z"></path>
		<path class="st3" d="M524,584.2v1.8h-1.5v3.3c0,0.7,0,1.1,0,1.2s0.1,0.2,0.2,0.3s0.2,0.1,0.4,0.1c0.2,0,0.5-0.1,0.9-0.2l0.2,1.7    c-0.5,0.2-1.1,0.3-1.7,0.3c-0.4,0-0.8-0.1-1.1-0.2s-0.6-0.3-0.7-0.5s-0.3-0.5-0.3-0.9c0-0.3-0.1-0.8-0.1-1.5V586h-1v-1.8h1v-1.6    l2.2-1.3v2.9H524z"></path>
		<path class="st3" d="M530.3,589.9l2.2,0.4c-0.3,0.8-0.7,1.4-1.3,1.8s-1.4,0.6-2.3,0.6c-1.4,0-2.5-0.5-3.2-1.4    c-0.5-0.8-0.8-1.7-0.8-2.9c0-1.4,0.4-2.5,1.1-3.2s1.6-1.2,2.7-1.2c1.2,0,2.2,0.4,2.9,1.2s1.1,2.1,1,3.7h-5.5    c0,0.7,0.2,1.2,0.5,1.5s0.8,0.5,1.3,0.5c0.3,0,0.6-0.1,0.9-0.3S530.2,590.3,530.3,589.9z M530.4,587.7c0-0.6-0.2-1.1-0.5-1.4    s-0.7-0.5-1.1-0.5c-0.5,0-0.9,0.2-1.2,0.5s-0.5,0.8-0.5,1.4H530.4z"></path>
		<path class="st3" d="M535.9,592.5l-2.6-8.3h2.1l1.6,5.4l1.4-5.4h2.1l1.4,5.4l1.6-5.4h2.2l-2.7,8.3h-2.1l-1.4-5.3l-1.4,5.3H535.9z"></path>
		<path class="st3" d="M548.5,586.8l-2-0.4c0.2-0.8,0.6-1.4,1.2-1.8s1.4-0.6,2.4-0.6c1,0,1.7,0.1,2.2,0.3s0.8,0.5,1,0.9s0.3,1,0.3,2    l0,2.6c0,0.7,0,1.3,0.1,1.6s0.2,0.7,0.4,1.1h-2.2c-0.1-0.1-0.1-0.4-0.2-0.6c0-0.1-0.1-0.2-0.1-0.3c-0.4,0.4-0.8,0.6-1.2,0.8    s-0.9,0.3-1.4,0.3c-0.9,0-1.5-0.2-2-0.7s-0.7-1-0.7-1.8c0-0.5,0.1-0.9,0.3-1.3s0.5-0.6,0.9-0.8s1-0.4,1.7-0.5    c1-0.2,1.7-0.4,2.1-0.5v-0.2c0-0.4-0.1-0.7-0.3-0.9s-0.6-0.3-1.2-0.3c-0.4,0-0.7,0.1-0.9,0.2S548.6,586.4,548.5,586.8z     M551.4,588.6c-0.3,0.1-0.7,0.2-1.3,0.3s-1,0.3-1.2,0.4c-0.3,0.2-0.4,0.5-0.4,0.8c0,0.3,0.1,0.6,0.3,0.8s0.5,0.3,0.9,0.3    c0.4,0,0.8-0.1,1.1-0.4c0.3-0.2,0.4-0.4,0.5-0.7c0.1-0.2,0.1-0.5,0.1-1.1V588.6z"></path>
		<path class="st3" d="M554.7,584.2h2.3l2,5.9l1.9-5.9h2.3l-2.9,8l-0.5,1.4c-0.2,0.5-0.4,0.9-0.6,1.1s-0.4,0.5-0.6,0.6    s-0.5,0.3-0.8,0.4s-0.7,0.1-1.1,0.1c-0.4,0-0.8,0-1.2-0.1l-0.2-1.7c0.3,0.1,0.7,0.1,0.9,0.1c0.5,0,0.9-0.1,1.1-0.4    s0.4-0.7,0.6-1.1L554.7,584.2z"></path>
	</g>
	<g class="st2">
		<path class="st3" d="M498.7,605.8l-1.2-0.9c0.4-0.4,0.8-0.8,1.2-1.2c0.2-0.2,0.3-0.3,0.3-0.3c-0.1,0-0.5-0.1-1.1-0.3    c-0.4-0.1-0.7-0.2-0.9-0.2l0.5-1.4c0.7,0.3,1.3,0.6,1.8,0.9c-0.1-0.8-0.2-1.5-0.2-2.1h1.4c0,0.4-0.1,1.1-0.2,2.1    c0.1,0,0.3-0.1,0.7-0.3c0.5-0.2,0.9-0.4,1.3-0.5l0.4,1.4c-0.6,0.1-1.2,0.3-2,0.4l0.9,1.1c0.2,0.2,0.3,0.4,0.4,0.5l-1.2,0.8    l-1.1-1.7C499.4,604.6,499.1,605.2,498.7,605.8z"></path>
	</g>
</g>
<g id="Graphic_491">
	<rect x="630" y="564" class="st5" width="140" height="64"></rect>
	<rect x="630" y="564" class="st1" width="140" height="64"></rect>
	<g class="st2">
		<path class="st3" d="M639.4,592.5v-11.5h8.5v1.9h-6.2v2.5h5.8v1.9h-5.8v3.1h6.4v1.9H639.4z"></path>
		<path class="st3" d="M649.8,593.1l2.5,0.3c0,0.3,0.1,0.5,0.3,0.6c0.2,0.2,0.5,0.2,1,0.2c0.6,0,1-0.1,1.3-0.3    c0.2-0.1,0.3-0.3,0.4-0.6c0.1-0.2,0.1-0.5,0.1-1v-1.2c-0.7,0.9-1.5,1.3-2.5,1.3c-1.1,0-2-0.5-2.6-1.4c-0.5-0.7-0.8-1.7-0.8-2.8    c0-1.4,0.3-2.5,1-3.2c0.7-0.7,1.5-1.1,2.5-1.1c1,0,1.9,0.5,2.5,1.4v-1.2h2.1v7.4c0,1-0.1,1.7-0.2,2.2c-0.2,0.5-0.4,0.9-0.7,1.1    c-0.3,0.3-0.7,0.5-1.2,0.6c-0.5,0.2-1.1,0.2-1.8,0.2c-1.4,0-2.4-0.2-3-0.7c-0.6-0.5-0.9-1.1-0.9-1.8    C649.8,593.3,649.8,593.2,649.8,593.1z M651.8,588.2c0,0.9,0.2,1.5,0.5,1.9c0.3,0.4,0.8,0.6,1.3,0.6c0.5,0,1-0.2,1.4-0.6    c0.4-0.4,0.6-1,0.6-1.9c0-0.9-0.2-1.5-0.5-1.9c-0.4-0.4-0.8-0.6-1.3-0.6c-0.5,0-1,0.2-1.3,0.6C652,586.8,651.8,587.4,651.8,588.2z    "></path>
		<path class="st3" d="M661.9,592.5h-2.2v-8.3h2v1.2c0.3-0.6,0.7-0.9,0.9-1.1c0.3-0.2,0.6-0.3,0.9-0.3c0.5,0,1,0.1,1.4,0.4l-0.7,1.9    c-0.4-0.2-0.7-0.4-1-0.4c-0.3,0-0.6,0.1-0.8,0.3c-0.2,0.2-0.4,0.5-0.5,0.9c-0.1,0.4-0.2,1.4-0.2,2.8V592.5z"></path>
		<path class="st3" d="M670.8,589.9l2.2,0.4c-0.3,0.8-0.7,1.4-1.3,1.8c-0.6,0.4-1.4,0.6-2.3,0.6c-1.4,0-2.5-0.5-3.2-1.4    c-0.5-0.8-0.8-1.7-0.8-2.9c0-1.4,0.4-2.5,1.1-3.2s1.6-1.2,2.7-1.2c1.2,0,2.2,0.4,2.9,1.2c0.7,0.8,1.1,2.1,1,3.7h-5.5    c0,0.7,0.2,1.2,0.5,1.5c0.3,0.4,0.8,0.5,1.3,0.5c0.3,0,0.6-0.1,0.9-0.3S670.7,590.3,670.8,589.9z M671,587.7    c0-0.6-0.2-1.1-0.5-1.4s-0.7-0.5-1.1-0.5c-0.5,0-0.9,0.2-1.2,0.5s-0.5,0.8-0.5,1.4H671z"></path>
		<path class="st3" d="M674.2,590.2l2.2-0.3c0.1,0.4,0.3,0.8,0.6,1c0.3,0.2,0.7,0.3,1.2,0.3c0.6,0,1-0.1,1.3-0.3    c0.2-0.1,0.3-0.3,0.3-0.6c0-0.2-0.1-0.3-0.2-0.4c-0.1-0.1-0.4-0.2-0.7-0.3c-1.8-0.4-2.9-0.7-3.4-1.1c-0.7-0.4-1-1.1-1-1.9    c0-0.7,0.3-1.3,0.9-1.8c0.6-0.5,1.4-0.7,2.6-0.7c1.1,0,2,0.2,2.5,0.6c0.6,0.4,0.9,0.9,1.1,1.6l-2.1,0.4c-0.1-0.3-0.3-0.6-0.5-0.7    c-0.2-0.2-0.6-0.3-1.1-0.3c-0.6,0-1,0.1-1.2,0.2c-0.2,0.1-0.2,0.3-0.2,0.4c0,0.2,0.1,0.3,0.2,0.4c0.2,0.1,0.9,0.4,2.1,0.6    c1.2,0.3,2,0.6,2.4,1c0.5,0.4,0.7,0.9,0.7,1.6c0,0.8-0.3,1.4-1,2c-0.6,0.5-1.6,0.8-2.8,0.8c-1.1,0-2-0.2-2.7-0.7    C674.8,591.6,674.4,591,674.2,590.2z"></path>
		<path class="st3" d="M683.1,590.2l2.2-0.3c0.1,0.4,0.3,0.8,0.6,1c0.3,0.2,0.7,0.3,1.2,0.3c0.6,0,1-0.1,1.3-0.3    c0.2-0.1,0.3-0.3,0.3-0.6c0-0.2-0.1-0.3-0.2-0.4c-0.1-0.1-0.4-0.2-0.7-0.3c-1.8-0.4-2.9-0.7-3.4-1.1c-0.7-0.4-1-1.1-1-1.9    c0-0.7,0.3-1.3,0.9-1.8c0.6-0.5,1.4-0.7,2.6-0.7c1.1,0,2,0.2,2.5,0.6c0.6,0.4,0.9,0.9,1.1,1.6l-2.1,0.4c-0.1-0.3-0.3-0.6-0.5-0.7    c-0.2-0.2-0.6-0.3-1.1-0.3c-0.6,0-1,0.1-1.2,0.2c-0.2,0.1-0.2,0.3-0.2,0.4c0,0.2,0.1,0.3,0.2,0.4c0.2,0.1,0.9,0.4,2.1,0.6    c1.2,0.3,2,0.6,2.4,1c0.5,0.4,0.7,0.9,0.7,1.6c0,0.8-0.3,1.4-1,2c-0.6,0.5-1.6,0.8-2.8,0.8c-1.1,0-2-0.2-2.7-0.7    C683.7,591.6,683.3,591,683.1,590.2z"></path>
		<path class="st3" d="M702.5,588.3v-1.9h5v4.6c-0.5,0.5-1.2,0.9-2.1,1.2c-0.9,0.4-1.9,0.5-2.8,0.5c-1.2,0-2.2-0.3-3.1-0.8    c-0.9-0.5-1.6-1.2-2-2.2c-0.4-0.9-0.7-2-0.7-3.1c0-1.2,0.2-2.3,0.8-3.2s1.2-1.6,2.2-2.1c0.7-0.4,1.6-0.6,2.7-0.6    c1.4,0,2.5,0.3,3.3,0.9c0.8,0.6,1.3,1.4,1.5,2.5l-2.3,0.4c-0.2-0.6-0.5-1-0.9-1.3s-1-0.5-1.7-0.5c-1,0-1.8,0.3-2.4,1    c-0.6,0.6-0.9,1.6-0.9,2.9c0,1.4,0.3,2.4,0.9,3.1c0.6,0.7,1.4,1,2.4,1c0.5,0,1-0.1,1.5-0.3c0.5-0.2,0.9-0.4,1.3-0.7v-1.5H702.5z"></path>
		<path class="st3" d="M711.3,586.8l-2-0.4c0.2-0.8,0.6-1.4,1.2-1.8s1.4-0.6,2.4-0.6c1,0,1.7,0.1,2.2,0.3c0.5,0.2,0.8,0.5,1,0.9    s0.3,1,0.3,2l0,2.6c0,0.7,0,1.3,0.1,1.6s0.2,0.7,0.4,1.1h-2.2c-0.1-0.1-0.1-0.4-0.2-0.6c0-0.1-0.1-0.2-0.1-0.3    c-0.4,0.4-0.8,0.6-1.2,0.8c-0.4,0.2-0.9,0.3-1.4,0.3c-0.9,0-1.5-0.2-2-0.7s-0.7-1-0.7-1.8c0-0.5,0.1-0.9,0.3-1.3    c0.2-0.4,0.5-0.6,0.9-0.8c0.4-0.2,1-0.4,1.7-0.5c1-0.2,1.7-0.4,2.1-0.5v-0.2c0-0.4-0.1-0.7-0.3-0.9c-0.2-0.2-0.6-0.3-1.2-0.3    c-0.4,0-0.7,0.1-0.9,0.2S711.4,586.4,711.3,586.8z M714.2,588.6c-0.3,0.1-0.7,0.2-1.3,0.3s-1,0.3-1.2,0.4    c-0.3,0.2-0.4,0.5-0.4,0.8c0,0.3,0.1,0.6,0.3,0.8c0.2,0.2,0.5,0.3,0.9,0.3c0.4,0,0.8-0.1,1.1-0.4c0.3-0.2,0.4-0.4,0.5-0.7    c0.1-0.2,0.1-0.5,0.1-1.1V588.6z"></path>
		<path class="st3" d="M722.3,584.2v1.8h-1.5v3.3c0,0.7,0,1.1,0,1.2c0,0.1,0.1,0.2,0.2,0.3s0.2,0.1,0.4,0.1c0.2,0,0.5-0.1,0.9-0.2    l0.2,1.7c-0.5,0.2-1.1,0.3-1.7,0.3c-0.4,0-0.8-0.1-1.1-0.2c-0.3-0.1-0.6-0.3-0.7-0.5s-0.3-0.5-0.3-0.9c0-0.3-0.1-0.8-0.1-1.5V586    h-1v-1.8h1v-1.6l2.2-1.3v2.9H722.3z"></path>
		<path class="st3" d="M728.7,589.9l2.2,0.4c-0.3,0.8-0.7,1.4-1.3,1.8c-0.6,0.4-1.4,0.6-2.3,0.6c-1.4,0-2.5-0.5-3.2-1.4    c-0.5-0.8-0.8-1.7-0.8-2.9c0-1.4,0.4-2.5,1.1-3.2s1.6-1.2,2.7-1.2c1.2,0,2.2,0.4,2.9,1.2c0.7,0.8,1.1,2.1,1,3.7h-5.5    c0,0.7,0.2,1.2,0.5,1.5c0.3,0.4,0.8,0.5,1.3,0.5c0.3,0,0.6-0.1,0.9-0.3S728.5,590.3,728.7,589.9z M728.8,587.7    c0-0.6-0.2-1.1-0.5-1.4s-0.7-0.5-1.1-0.5c-0.5,0-0.9,0.2-1.2,0.5s-0.5,0.8-0.5,1.4H728.8z"></path>
		<path class="st3" d="M734.3,592.5l-2.6-8.3h2.1l1.6,5.4l1.4-5.4h2.1l1.4,5.4l1.6-5.4h2.2l-2.7,8.3h-2.1l-1.4-5.3l-1.4,5.3H734.3z"></path>
		<path class="st3" d="M746.8,586.8l-2-0.4c0.2-0.8,0.6-1.4,1.2-1.8s1.4-0.6,2.4-0.6c1,0,1.7,0.1,2.2,0.3c0.5,0.2,0.8,0.5,1,0.9    s0.3,1,0.3,2l0,2.6c0,0.7,0,1.3,0.1,1.6s0.2,0.7,0.4,1.1h-2.2c-0.1-0.1-0.1-0.4-0.2-0.6c0-0.1-0.1-0.2-0.1-0.3    c-0.4,0.4-0.8,0.6-1.2,0.8c-0.4,0.2-0.9,0.3-1.4,0.3c-0.9,0-1.5-0.2-2-0.7s-0.7-1-0.7-1.8c0-0.5,0.1-0.9,0.3-1.3    c0.2-0.4,0.5-0.6,0.9-0.8c0.4-0.2,1-0.4,1.7-0.5c1-0.2,1.7-0.4,2.1-0.5v-0.2c0-0.4-0.1-0.7-0.3-0.9c-0.2-0.2-0.6-0.3-1.2-0.3    c-0.4,0-0.7,0.1-0.9,0.2S747,586.4,746.8,586.8z M749.8,588.6c-0.3,0.1-0.7,0.2-1.3,0.3s-1,0.3-1.2,0.4c-0.3,0.2-0.4,0.5-0.4,0.8    c0,0.3,0.1,0.6,0.3,0.8c0.2,0.2,0.5,0.3,0.9,0.3c0.4,0,0.8-0.1,1.1-0.4c0.3-0.2,0.4-0.4,0.5-0.7c0.1-0.2,0.1-0.5,0.1-1.1V588.6z"></path>
		<path class="st3" d="M753.1,584.2h2.3l2,5.9l1.9-5.9h2.3l-2.9,8l-0.5,1.4c-0.2,0.5-0.4,0.9-0.6,1.1c-0.2,0.3-0.4,0.5-0.6,0.6    s-0.5,0.3-0.8,0.4c-0.3,0.1-0.7,0.1-1.1,0.1c-0.4,0-0.8,0-1.2-0.1l-0.2-1.7c0.3,0.1,0.7,0.1,0.9,0.1c0.5,0,0.9-0.1,1.1-0.4    c0.2-0.3,0.4-0.7,0.6-1.1L753.1,584.2z"></path>
	</g>
	<g class="st2">
		<path class="st3" d="M698.7,605.8l-1.2-0.9c0.4-0.4,0.8-0.8,1.2-1.2c0.2-0.2,0.3-0.3,0.3-0.3c-0.1,0-0.5-0.1-1.1-0.3    c-0.4-0.1-0.7-0.2-0.9-0.2l0.5-1.4c0.7,0.3,1.3,0.6,1.8,0.9c-0.1-0.8-0.2-1.5-0.2-2.1h1.4c0,0.4-0.1,1.1-0.2,2.1    c0.1,0,0.3-0.1,0.7-0.3c0.5-0.2,0.9-0.4,1.3-0.5l0.4,1.4c-0.6,0.1-1.2,0.3-2,0.4l0.9,1.1c0.2,0.2,0.3,0.4,0.4,0.5l-1.2,0.8    l-1.1-1.7C699.4,604.6,699.1,605.2,698.7,605.8z"></path>
	</g>
</g>
<g id="Line_490">
	<g>
		<path class="st6" d="M426.7,423l-9.6-3.6v7.2L426.7,423z"></path>
	</g>
	<path marker-end="url(#FilledArrow_Marker)" class="st7" d="M417.1,423"></path>
</g>
<g id="Line_489">
	<g>
		<path class="st6" d="M100,560.7l3.6-9.6h-7.2L100,560.7z"></path>
	</g>
	<path marker-end="url(#FilledArrow_Marker)" class="st7" d="M100,551.1"></path>
</g>
<g id="Line_488">
	<g>
		<path class="st6" d="M300,560.7l3.6-9.6h-7.2L300,560.7z"></path>
	</g>
	<path marker-end="url(#FilledArrow_Marker)" class="st7" d="M300,551.1"></path>
</g>
<g id="Line_487">
	<g>
		<path class="st6" d="M500,560.7l3.6-9.6h-7.2L500,560.7z"></path>
	</g>
	<path marker-end="url(#FilledArrow_Marker)" class="st7" d="M500,551.1"></path>
</g>
<g id="Line_486">
	<g>
		<path class="st6" d="M700,560.7l3.6-9.6h-7.2L700,560.7z"></path>
	</g>
	<path marker-end="url(#FilledArrow_Marker)" class="st7" d="M700,551.1"></path>
</g>
<g id="Line_485">
	<g>
		<path class="st6" d="M100,209.9l3.6-9.6h-7.2L100,209.9z"></path>
	</g>
	<path marker-end="url(#FilledArrow_Marker)" class="st7" d="M100,200.3"></path>
</g>
<path class="st8" d="M299,100.5v10l-0.3,43.6v2.8H100"></path>
<g id="Line_483">
	<path class="st8" d="M498,100.5v10l0,44.7v1.7H297.7"></path>
</g>
<g id="Line_482">
	<path class="st8" d="M697,100.5v10l0.3,14.6v32.2H498.9"></path>
</g>
<g id="Line_481">
	<g>
		<path class="st6" d="M500,387.7l3.6-9.6h-7.2L500,387.7z"></path>
	</g>
	<path marker-end="url(#FilledArrow_Marker)" class="st7" d="M500,378.1"></path>
</g>
<g id="Line_480">
	<path class="st8" d="M499.3,278.2v17.4l0.7,72.9v19.2"></path>
</g>
<g id="Line_479">
	<path class="st8" d="M699,278.2v10l0.4,41.7v3.7H500"></path>
</g>
<g id="Line_478">
	<path class="st8" d="M898.7,278.2v55.4h-56.8l-133.5-0.1h-11"></path>
</g>
<g id="Line_477">
	<path class="st8" d="M1098.3,278.2v54.6h0.6v1H900.1"></path>
</g>
<g id="Line_476">
	<path class="st8" d="M1298,278.2v56.3h-7.2v-0.8h-191.9"></path>
</g>
<g id="Line_482_00000101788340794297986520000006516505465958600351_">
	<path class="st8" d="M99.9,102.4v10l0.3,14.6v73.4"></path>
</g>
<g id="Line_482_00000032645040295602237390000008150926890569935272_">
	<path class="st4" d="M100,277.9v10l0.3,14.6v248.6"></path>
</g>
<g id="Line_482_00000067937552284891827710000002204028848625350030_">
	<path class="st4" d="M416.8,422.8h-11.6l-16.9,0.3H99.9"></path>
</g>
<g id="Line_482_00000004546594099675008210000012239257331445303190_">
	<path class="st4" d="M700.3,501.1h-14.7l-21.4,0.4H299.7"></path>
</g>
<g id="Line_482_00000083770709823414448610000013345943876969606287_">
	<path class="st4" d="M499.5,455.9v3.5l0.3,5.1v86.6"></path>
</g>
<g id="Line_482_00000173859540258497117350000014512495866211225503_">
	<path class="st4" d="M700.6,501.1v54.3"></path>
	<path class="st4" d="M700.3,500.3"></path>
</g>
<g id="Line_482_00000013176530560584416370000005674444602732586394_">
	<path class="st4" d="M300.1,501.1v54.3"></path>
	<path class="st4" d="M299.9,500.3"></path>
</g>
</svg>
