<svg version="1.1" xmlns="http://www.w3.org/2000/svg" viewBox="0 0 1350.0313628517301 491.75056208383376" width="1350.0313628517301" height="491.75056208383376">
  <!-- svg-source:excalidraw -->
  
  <defs>
    <style>
      @font-face {
        font-family: "Virgil";
        src: url("https://excalidraw.com/Virgil.woff2");
      }
      @font-face {
        font-family: "Cascadia";
        src: url("https://excalidraw.com/Cascadia.woff2");
      }
    </style>
  </defs>
  <rect x="0" y="0" width="1350.0313628517301" height="491.75056208383376" fill="#ffffff"></rect><g stroke-linecap="round" transform="translate(10 16.010275311128424) rotate(0 295.38545661657133 232.87014338635265)"><path d="M117.07 -0.32 L490.43 0.67 L513 5.44 L535.55 10.5 L543.87 17.57 L559.84 30.07 L573.81 45.37 L582.46 67.26 L588 88.08 L591.98 114.95 L590.37 364.12 L587.71 389.9 L581.63 400.75 L574.1 420.27 L559.78 435.09 L544.9 448.42 L527.23 458.04 L501.89 462.52 L475.06 467.5 L100.65 465.27 L87.76 463.7 L65.01 459.88 L46.45 450.63 L27.86 438.6 L20.51 427.64 L11.42 412.31 L6.06 390.48 L0.99 364.54 L0.9 116.56 L2.58 75.16 L8.11 66.93 L17.65 45.12 L29.84 30.66 L46.91 17 L66.17 8.66 L77.45 5.7 L118.29 -1.32" stroke="none" stroke-width="0" fill="white"></path><path d="M116.44 0 M116.44 0 C250.64 1.64, 385.48 0.55, 474.34 0 M116.44 0 C244.6 -1.51, 371.45 -1.41, 474.34 0 M474.34 0 C550.32 0.56, 592.19 37.77, 590.77 116.44 M474.34 0 C550.96 -1.89, 590.74 38.5, 590.77 116.44 M590.77 116.44 C588.8 187.61, 590.41 256.84, 590.77 349.31 M590.77 116.44 C589.71 198.18, 589.79 279.67, 590.77 349.31 M590.77 349.31 C592.65 427.34, 550.41 464.84, 474.34 465.74 M590.77 349.31 C590.68 428.29, 549.99 465.16, 474.34 465.74 M474.34 465.74 C359.69 467.16, 245.91 467.49, 116.44 465.74 M474.34 465.74 C398.17 466.04, 322.99 466, 116.44 465.74 M116.44 465.74 C38.38 463.96, 0.43 426.06, 0 349.31 M116.44 465.74 C41.05 467.41, -0.7 424.76, 0 349.31 M0 349.31 C2.43 302.84, 3.26 252.97, 0 116.44 M0 349.31 C0.73 283.55, 1.88 216.87, 0 116.44 M0 116.44 C-0.3 38.26, 37.27 -1.94, 116.44 0 M0 116.44 C0.46 37.05, 38.59 2.23, 116.44 0" stroke="#0eb1e4" stroke-width="1" fill="none"></path></g><g stroke-linecap="round" transform="translate(71.60967130606622 345.3105496109655) rotate(0 111.88545661657133 58.37014338635271)"><path d="M27.78 -1.94 L193.69 0.46 L202.49 -0.14 L210.42 5.17 L220.73 12.45 L222.64 21.02 L222.64 88.91 L222.6 93.23 L220.07 104.88 L211.32 113.54 L206.63 116.58 L196.58 116.88 L27.91 115.36 L23.08 117.88 L13.05 112.79 L2.25 103.54 L1.08 95.25 L2.34 23.06 L1.67 14.58 L5.53 7.02 L17.62 0.17 L27.32 -0.3" stroke="none" stroke-width="0" fill="white"></path><path d="M29.19 0 M29.19 0 C65.06 -1.26, 99.75 0.38, 194.59 0 M194.59 0 C215.57 -0.36, 225.34 10.32, 223.77 29.19 M223.77 29.19 C222.98 43.85, 225.03 62.37, 223.77 87.56 M223.77 87.56 C224.11 105.66, 213.7 118.36, 194.59 116.74 M194.59 116.74 C142.67 115.25, 88.75 116.36, 29.19 116.74 M29.19 116.74 C8.65 117.07, 0.08 107.14, 0 87.56 M0 87.56 C0.35 66.58, -0.25 49.66, 0 29.19 M0 29.19 C0.23 9.46, 8.83 -1.83, 29.19 0" stroke="#0eb1e4" stroke-width="2.5" fill="none" stroke-dasharray="8 10"></path></g><g stroke-linecap="round" transform="translate(330.93301889474566 217.38383838383808) rotate(0 124.38545661657133 34.62014338635265)"><path d="M17.57 0.35 L231.95 -1.46 L240.69 1.98 L246.38 6.18 L250.46 14.34 L247.16 60.2 L242.18 65.33 L231.85 70.6 L19.21 67.44 L8.35 69.66 L1.82 62.93 L-1.02 54.16 L-0.23 14.27 L2.28 6.54 L6.5 1.42 L17.14 -1.88" stroke="none" stroke-width="0" fill="white"></path><path d="M17.31 0 M17.31 0 C83.98 0.54, 150.44 1.44, 231.46 0 M231.46 0 C244.03 -0.6, 247.83 4.02, 248.77 17.31 M248.77 17.31 C248.82 25.07, 247.22 30.31, 248.77 51.93 M248.77 51.93 C250.03 65.19, 244.76 68.82, 231.46 69.24 M231.46 69.24 C177.72 68.5, 119.11 69.19, 17.31 69.24 M17.31 69.24 C5.64 69.93, -0.17 63.77, 0 51.93 M0 51.93 C1.06 43.51, 1.52 35.14, 0 17.31 M0 17.31 C-0.24 5.79, 4.39 -1.28, 17.31 0" stroke="#0eb1e4" stroke-width="2.5" fill="none" stroke-dasharray="8 10"></path></g><g stroke-linecap="round" transform="translate(48.16654334243407 213.2488569396231) rotate(0 125.88545661657133 58.37014338635268)"><path d="M29.74 1.75 L224.46 0.32 L230.36 2.44 L242.21 2.96 L247.78 10.58 L252.36 20.41 L251.74 85.73 L251.88 94.78 L246.87 105.83 L239.63 112.53 L234.74 113.21 L222.45 117.1 L28.09 117.16 L21.3 117.45 L10.42 110.97 L5.06 104.72 L2.27 94.58 L0.57 22.07 L2.03 17.18 L5.84 7.86 L16.41 1.35 L29.36 -0.07" stroke="none" stroke-width="0" fill="white"></path><path d="M29.19 0 M29.19 0 C105.89 -1.76, 180.26 -2.69, 222.59 0 M222.59 0 C242.68 0.06, 251.01 11.24, 251.77 29.19 M251.77 29.19 C249.55 40.99, 252.08 55.14, 251.77 87.56 M251.77 87.56 C251.59 108.62, 243.57 118.54, 222.59 116.74 M222.59 116.74 C174.83 116.8, 128.4 116, 29.19 116.74 M29.19 116.74 C8.48 115.9, -0.17 108.03, 0 87.56 M0 87.56 C-0.52 73.28, -0.34 61.28, 0 29.19 M0 29.19 C-0.51 9.32, 8.72 1.85, 29.19 0" stroke="#0eb1e4" stroke-width="2.5" fill="none" stroke-dasharray="8 10"></path></g><g stroke-linecap="round" transform="translate(46.35843787368407 77.47557202751372) rotate(0 127.38545661657136 58.37014338635268)"><path d="M29.53 -1.36 L225.24 1.62 L232.77 1.46 L242.85 4.65 L249.6 10.49 L254.36 21.27 L255.1 87.63 L254.44 95.03 L250.03 104.37 L243.53 111.02 L237.92 115.73 L225.82 116.47 L28.28 114.91 L20.44 117.37 L12.19 114.3 L3.25 107.02 L-1.42 96.12 L-1.1 23.95 L3.06 15.02 L6.02 7.09 L15.34 2.22 L29.52 0.03" stroke="none" stroke-width="0" fill="white"></path><path d="M29.19 0 M29.19 0 C95.24 -0.86, 157.84 2.03, 225.59 0 M225.59 0 C246.98 1.21, 254.79 9.53, 254.77 29.19 M254.77 29.19 C256.48 49.17, 254.54 72.25, 254.77 87.56 M254.77 87.56 C256.29 106.04, 243.29 117.43, 225.59 116.74 M225.59 116.74 C167.82 116.38, 113.76 117, 29.19 116.74 M29.19 116.74 C10.63 117.57, -1.09 108.82, 0 87.56 M0 87.56 C-0.29 70.59, 0.88 53.67, 0 29.19 M0 29.19 C-0.6 10.13, 10.83 -0.2, 29.19 0" stroke="#0eb1e4" stroke-width="2.5" fill="none" stroke-dasharray="8 10"></path></g><g stroke-linecap="round" transform="translate(326.93301889474566 78.38383838383808) rotate(0 124.88545661657133 58.37014338635268)"><path d="M28.96 -1.64 L221.95 -1.89 L227.1 -0.77 L238.67 2.48 L246.97 9.54 L249.2 22.07 L248.93 86.11 L248.24 95.35 L244.03 106.84 L237.21 112.85 L232 114.75 L220.28 115.8 L27.55 118.52 L22.51 114.67 L9.93 111.59 L5.66 103.85 L-0.8 92.71 L0.24 21.43 L3.07 14.65 L8.7 6.45 L15.33 2.26 L28.79 1.13" stroke="none" stroke-width="0" fill="white"></path><path d="M29.19 0 M29.19 0 C77.95 2.04, 128.56 1.3, 220.59 0 M220.59 0 C241.39 -1.13, 250.37 10.52, 249.77 29.19 M249.77 29.19 C250.84 49.04, 249.89 70.1, 249.77 87.56 M249.77 87.56 C249.94 107.46, 238.43 116.25, 220.59 116.74 M220.59 116.74 C149.95 116.89, 76.29 115.59, 29.19 116.74 M29.19 116.74 C10.94 118.16, 1.33 105.08, 0 87.56 M0 87.56 C0.71 75.32, 1.44 59.33, 0 29.19 M0 29.19 C0.63 9.46, 7.84 -1.79, 29.19 0" stroke="#0eb1e4" stroke-width="2.5" fill="none" stroke-dasharray="8 10"></path></g><g transform="translate(225.8377985133489 31.94758748198396) rotate(0 89 11)"><text x="89" y="17" font-family="Helvetica, Segoe UI Emoji" font-size="21.476510067114088px" fill="#000000" text-anchor="middle" style="white-space: pre;" direction="ltr">Workload cluster 1</text></g><g stroke-linecap="round"><g transform="translate(77.48028662986243 254.01725162370266) rotate(0 11.328715126380601 14.276651934798878)" fill-rule="evenodd"><path d="M0 0 L0.15 27.85 L22.66 28.55 L0 0" stroke="none" stroke-width="0" fill="#0eb1e4" fill-rule="evenodd"></path><path d="M0 0 C0.05 10.43, 0.11 20.85, 0.15 27.85 M0 0 C0.03 6.02, 0.06 12.04, 0.15 27.85 M0.15 27.85 C8.19 28.1, 16.23 28.35, 22.66 28.55 M0.15 27.85 C8.72 28.11, 17.29 28.38, 22.66 28.55 M22.66 28.55 C13.84 17.44, 5.02 6.32, 0 0 M22.66 28.55 C17.83 22.47, 13 16.39, 0 0 M0 0 C0 0, 0 0, 0 0 M0 0 C0 0, 0 0, 0 0" stroke="#0eb1e4" stroke-width="1" fill="none"></path></g></g><g stroke-linecap="round"><g transform="translate(75.3837187157068 265.05420003970005) rotate(0 -4.762583765331115 11.845912961431225)" fill-rule="evenodd"><path d="M0 0 L0.66 18.58 L-10.18 23.69 L0 0" stroke="none" stroke-width="0" fill="#0eb1e4" fill-rule="evenodd"></path><path d="M0 0 C0.22 6.25, 0.44 12.5, 0.66 18.58 M0 0 C0.16 4.65, 0.33 9.3, 0.66 18.58 M0.66 18.58 C-3.57 20.57, -7.8 22.57, -10.18 23.69 M0.66 18.58 C-2.85 20.23, -6.35 21.88, -10.18 23.69 M-10.18 23.69 C-7.63 17.74, -5.07 11.79, 0 0 M-10.18 23.69 C-8.07 18.78, -5.96 13.88, 0 0 M0 0 C0 0, 0 0, 0 0 M0 0 C0 0, 0 0, 0 0" stroke="#0eb1e4" stroke-width="1" fill="none"></path></g></g><g stroke-linecap="round"><g transform="translate(72.06844657658831 286.44031678569536) rotate(0 16.781727048653735 1.7154147238986752)" fill-rule="evenodd"><path d="M0 0 L33.56 -3.81 L9 7.24 L0 0" stroke="none" stroke-width="0" fill="#0eb1e4" fill-rule="evenodd"></path><path d="M0 0 C10.48 -1.19, 20.96 -2.38, 33.56 -3.81 M0 0 C12.94 -1.47, 25.88 -2.94, 33.56 -3.81 M33.56 -3.81 C25.54 -0.2, 17.52 3.41, 9 7.24 M33.56 -3.81 C24.67 0.19, 15.77 4.19, 9 7.24 M9 7.24 C6.84 5.51, 4.68 3.77, 0 0 M9 7.24 C7.14 5.75, 5.27 4.25, 0 0 M0 0 C0 0, 0 0, 0 0 M0 0 C0 0, 0 0, 0 0" stroke="#0eb1e4" stroke-width="1" fill="none"></path></g></g><g transform="translate(159.28747914046846 426.75715478931045) rotate(0 23 10.5)"><text x="23" y="16" font-family="Helvetica, Segoe UI Emoji" font-size="20px" fill="#000000" text-anchor="middle" style="white-space: pre;" direction="ltr">Apps</text></g><g transform="translate(618.0189442115777 231.65793921437145) rotate(0 60.5 17)"><text x="60.5" y="13" font-family="Helvetica, Segoe UI Emoji" font-size="16.585365853658534px" fill="#000000" text-anchor="middle" style="white-space: pre;" direction="ltr">Ingress gateway</text><text x="60.5" y="30" font-family="Helvetica, Segoe UI Emoji" font-size="16.585365853658534px" fill="#000000" text-anchor="middle" style="white-space: pre;" direction="ltr">load balancers</text></g><g transform="translate(113.84594527150551 267.78014839726484) rotate(0 68.5 9.22115384615384)"><text x="68.50000000000001" y="13.4423076923077" font-family="Helvetica, Segoe UI Emoji" font-size="17.56410256410257px" fill="#000000" text-anchor="middle" style="white-space: pre;" direction="ltr">istiod deployment</text></g><g transform="translate(104.90727080713498 351.5216964152869) rotate(0 80.66666666666671 11)"><text x="80.66666666666671" y="17.000000000000014" font-family="Helvetica, Segoe UI Emoji" font-size="20.952380952380967px" fill="#000000" text-anchor="middle" style="white-space: pre;" direction="ltr">App namespaces</text></g><g transform="translate(112.74704693988849 82.25398177019085) rotate(0 61.28571428571425 11)"><text x="61.28571428571425" y="16.999999999999986" font-family="Helvetica, Segoe UI Emoji" font-size="20.95238095238094px" fill="#000000" text-anchor="middle" style="white-space: pre;" direction="ltr">istio-operator</text></g><g transform="translate(117.81847551131699 221.25398177019085) rotate(0 58.04761904761904 11.5)"><text x="58.047619047619044" y="17" font-family="Helvetica, Segoe UI Emoji" font-size="21.904761904761905px" fill="#000000" text-anchor="middle" style="white-space: pre;" direction="ltr">istio-system</text></g><g transform="translate(401.24704693988843 84.25398177019085) rotate(0 50.28571428571428 11)"><text x="50.285714285714285" y="17" font-family="Helvetica, Segoe UI Emoji" font-size="20.952380952380953px" fill="#000000" text-anchor="middle" style="white-space: pre;" direction="ltr">istio-config</text></g><g transform="translate(397.27085646369807 222.7539817701908) rotate(0 58.5 11.5)"><text x="58.5" y="17" font-family="Helvetica, Segoe UI Emoji" font-size="21.90476190476188px" fill="#000000" text-anchor="middle" style="white-space: pre;" direction="ltr">istio-ingress</text></g><g stroke-linecap="round"><g transform="translate(79.31514820196904 157.86373151912377) rotate(105.81660264955728 21.168080501267596 -12.161343555238773)"><path d="M0 0 C1.01 -3.05, 1.48 -14.36, 6.09 -18.3 C10.7 -22.25, 21.64 -25.81, 27.68 -23.69 C33.72 -21.57, 39.89 -8.6, 42.34 -5.59 M0 0 C1.01 -3.05, 1.48 -14.36, 6.09 -18.3 C10.7 -22.25, 21.64 -25.81, 27.68 -23.69 C33.72 -21.57, 39.89 -8.6, 42.34 -5.59" stroke="#000000" stroke-width="1" fill="none"></path></g><g transform="translate(79.31514820196904 157.86373151912377) rotate(105.81660264955728 21.168080501267596 -12.161343555238773)"><path d="M33.08 -12.65 C36.13 -10.32, 39.19 -7.99, 42.34 -5.59 M33.08 -12.65 C36.49 -10.05, 39.9 -7.45, 42.34 -5.59" stroke="#000000" stroke-width="1" fill="none"></path></g><g transform="translate(79.31514820196904 157.86373151912377) rotate(105.81660264955728 21.168080501267596 -12.161343555238773)"><path d="M39.79 -16.95 C40.63 -13.2, 41.47 -9.45, 42.34 -5.59 M39.79 -16.95 C40.72 -12.77, 41.66 -8.58, 42.34 -5.59" stroke="#000000" stroke-width="1" fill="none"></path></g></g><g stroke-linecap="round"><g transform="translate(53.108564732440726 152.024875399148) rotate(284.82518414831685 22.656476067036408 -12.697769561281604)"><path d="M0 0 C0.5 -3.17, -1.78 -14.94, 3 -19.03 C7.78 -23.12, 21.64 -27.24, 28.71 -24.54 C35.78 -21.85, 42.63 -6.48, 45.42 -2.86 M0 0 C0.5 -3.17, -1.78 -14.94, 3 -19.03 C7.78 -23.12, 21.64 -27.24, 28.71 -24.54 C35.78 -21.85, 42.63 -6.48, 45.42 -2.86" stroke="#000000" stroke-width="1" fill="none"></path></g><g transform="translate(53.108564732440726 152.024875399148) rotate(284.82518414831685 22.656476067036408 -12.697769561281604)"><path d="M34.74 -11.43 C37.09 -9.55, 39.43 -7.67, 45.42 -2.86 M34.74 -11.43 C38.73 -8.23, 42.72 -5.03, 45.42 -2.86" stroke="#000000" stroke-width="1" fill="none"></path></g><g transform="translate(53.108564732440726 152.024875399148) rotate(284.82518414831685 22.656476067036408 -12.697769561281604)"><path d="M42.75 -16.29 C43.33 -13.34, 43.92 -10.4, 45.42 -2.86 M42.75 -16.29 C43.75 -11.27, 44.74 -6.26, 45.42 -2.86" stroke="#000000" stroke-width="1" fill="none"></path></g></g><g transform="translate(116.81847551131699 132.2539817701908) rotate(0 84 9.38297872340425)"><text x="84" y="13.765957446808507" font-family="Helvetica, Segoe UI Emoji" font-size="17.872340425531913px" fill="#000000" text-anchor="middle" style="white-space: pre;" direction="ltr">Operator deployment</text></g><g stroke-linecap="round"><g transform="translate(361.17516119208614 122.93965086005514) rotate(0 16.373488202969213 21.26854238199519)" fill-rule="evenodd"><path d="M1.95 0.44 L21.68 -1.1 L31.96 10.5 L32.36 40.39 L-1.65 43.87 L-0.1 -1.4" stroke="none" stroke-width="0" fill="#fff" fill-rule="evenodd"></path><path d="M1.17 -1.32 C7.51 0.65, 14.1 1.48, 21.23 -0.76 M-0.29 -0.17 C6.42 0.8, 12.76 -0.39, 20.1 -0.4 M21.12 -1.06 C25.83 4.22, 27.8 7.15, 32.85 10.14 M20.88 -0.07 C23.35 2.26, 25.65 4.86, 31.32 10.24 M33.49 11.55 C33.39 21.6, 31.22 35.11, 30.27 41.18 M31.47 9.61 C30.77 23.32, 32.22 35.22, 31.22 41.41 M30.72 42.85 C26.49 42.35, 20.41 40.75, 1.23 43.86 M31.95 42.47 C23.49 42.59, 14.19 42.17, -0.07 42.76 M-0.2 40.61 C0.33 31.85, 1.43 21.37, -0.74 1.07 M-0.42 42.78 C-0.25 27.24, -0.13 11.37, -0.47 -0.18 M0 0 C0 0, 0 0, 0 0 M0 0 C0 0, 0 0, 0 0" stroke="#0eb1e4" stroke-width="1" fill="none"></path></g></g><g stroke-linecap="round"><g transform="translate(381.92321101708677 122.41399742648602) rotate(0 -0.15784762639651717 5.4801141333705345)"><path d="M-0.7 0.75 C0.45 4, 0.89 6.03, -0.4 10.61 M-0.09 -0.02 C0.36 3.48, -0.27 6.63, -0.21 10.98" stroke="#0eb1e4" stroke-width="1" fill="none"></path></g></g><g stroke-linecap="round"><g transform="translate(381.92321101708495 132.95257623994755) rotate(0 5.4801141333705345 0.18442105330916547)"><path d="M0.75 0.4 C4.71 0.9, 7.44 -0.33, 10.61 0.41 M-0.02 0.39 C2.77 -0.22, 5.2 -0.19, 10.98 -0.11" stroke="#0eb1e4" stroke-width="1" fill="none"></path></g></g><g stroke-linecap="round" transform="translate(360.8460533901678 122.4139974264867) rotate(0 15.807868220190187 21.07715762692021)"><path d="M0.75 1.95 C12.92 -0.08, 21.92 -0.09, 32.39 -0.58 M0.74 -0.17 C8.13 -0.96, 16.76 0.85, 31.42 0.8 M31.96 -1.82 C30.16 14.43, 30.78 23.85, 29.93 40.86 M31.5 0.16 C31.91 11.14, 31.17 23.73, 32.36 42.75 M31.17 41.52 C20.75 41.05, 5.76 44.26, 0.36 43.5 M31.98 42.7 C22.41 41.47, 12.8 40.87, 0.23 41.63 M0.36 43.63 C-1.38 32.62, 1.56 19.87, 1.18 -1.57 M0.68 41.29 C0.13 28.05, 0.48 13.55, 0.21 -0.52" stroke="#0eb1e4" stroke-width="1" fill="none"></path></g><g transform="translate(402.818475511317 134.37100304678646) rotate(0 74 9.5)"><text x="74" y="14" font-family="Helvetica, Segoe UI Emoji" font-size="17.872340425531913px" fill="#000000" text-anchor="middle" style="white-space: pre;" direction="ltr">Mesh-level configs</text></g><g stroke-linecap="round" transform="translate(559.0962532890946 235.36509288130193) rotate(180.89868362073796 18 18)"><path d="M10.15 1.35 C13.55 -0.28, 19.38 0.27, 23.09 1.33 C26.8 2.39, 30.13 4.62, 32.41 7.71 C34.68 10.79, 37.21 16.1, 36.73 19.81 C36.24 23.53, 32.6 27.35, 29.52 30.01 C26.44 32.67, 21.89 35.5, 18.22 35.77 C14.56 36.04, 10.33 33.97, 7.53 31.63 C4.74 29.29, 2.52 25.23, 1.48 21.74 C0.44 18.24, -0.57 14.32, 1.29 10.65 C3.14 6.99, 10.23 1.53, 12.61 -0.25 C14.99 -2.03, 15.27 -0.49, 15.57 -0.03 M25.33 2.49 C28.7 4.2, 33.82 8.16, 35.68 11.65 C37.53 15.14, 37.99 19.92, 36.46 23.45 C34.94 26.98, 30.02 30.61, 26.52 32.82 C23.02 35.02, 19.33 37, 15.48 36.67 C11.62 36.34, 5.74 34.06, 3.4 30.84 C1.05 27.62, 1.21 21.33, 1.38 17.37 C1.55 13.4, 2.38 9.99, 4.43 7.03 C6.48 4.07, 9.84 0.27, 13.67 -0.39 C17.49 -1.06, 25.48 2.48, 27.38 3.04 C29.29 3.61, 25.29 3.01, 25.09 3" stroke="none" stroke-width="0" fill="#62a1d6"></path><path d="M22.61 0.4 C26.1 1.11, 29.42 5.14, 31.75 8.25 C34.08 11.35, 36.79 15.2, 36.58 19.04 C36.36 22.88, 33.18 28.64, 30.46 31.3 C27.73 33.96, 24.03 34.63, 20.22 35.01 C16.42 35.39, 10.76 35.66, 7.62 33.58 C4.47 31.5, 2.46 26.4, 1.36 22.54 C0.27 18.67, -0.4 13.82, 1.04 10.38 C2.48 6.95, 5.76 3.19, 10.01 1.94 C14.26 0.7, 23.27 2.45, 26.53 2.91 C29.79 3.37, 29.75 4.6, 29.59 4.71 M18.78 1.3 C22.12 1.2, 26.31 1.03, 29.25 3.59 C32.19 6.15, 35.85 12.81, 36.4 16.66 C36.95 20.5, 34.62 23.59, 32.54 26.64 C30.47 29.68, 27.45 33.6, 23.96 34.92 C20.46 36.23, 15.05 35.76, 11.57 34.53 C8.09 33.31, 4.92 31.02, 3.09 27.58 C1.26 24.14, -0.01 17.65, 0.6 13.88 C1.2 10.11, 3.89 7.08, 6.72 4.94 C9.55 2.8, 15.7 1.79, 17.56 1.05 C19.42 0.31, 17.5 0.53, 17.88 0.51" stroke="#000000" stroke-width="1" fill="none"></path></g><g stroke-linecap="round"><g transform="translate(566.0757327825979 246.6461539816298) rotate(180.89868362073796 12.035457894448996 6.425174334340426)" fill-rule="evenodd"><path d="M0 0 L0.1 10.67 L5.69 10.72 L5.78 6.62 L16.97 14.45 L16.16 15.96 L19.85 16.65 L19.85 18.23 L24.06 18.02 L24.07 13.67 L19.88 13.72 L19.86 14.99 L18.27 12.39 L17.47 13.5 L7.85 6.27 L16.02 6.26 L15.98 7.42 L19.57 6.26 L19.57 8.33 L24.02 8.3 L24.07 3.81 L19.58 3.81 L19.52 5.2 L15.99 3.78 L16.06 4.74 L7.95 4.65 L17.2 -0.73 L17.91 0.34 L19.56 -2.13 L19.57 -0.75 L23.98 -0.71 L23.96 -5.33 L19.45 -5.38 L19.41 -3.51 L16.14 -2.96 L16.61 -1.64 L5.74 4.56 L5.6 0 L0 0" stroke="none" stroke-width="0" fill="#fff" fill-rule="evenodd"></path><path d="M0 0 C0.03 3.76, 0.07 7.53, 0.1 10.67 M0 0 C0.03 3.09, 0.06 6.19, 0.1 10.67 M0.1 10.67 C2.07 10.68, 4.04 10.7, 5.69 10.72 M0.1 10.67 C2.02 10.68, 3.95 10.7, 5.69 10.72 M5.69 10.72 C5.72 9.6, 5.74 8.48, 5.78 6.62 M5.69 10.72 C5.72 9.19, 5.76 7.66, 5.78 6.62 M5.78 6.62 C9.33 9.11, 12.88 11.59, 16.97 14.45 M5.78 6.62 C9.52 9.24, 13.25 11.85, 16.97 14.45 M16.97 14.45 C16.66 15.02, 16.36 15.59, 16.16 15.96 M16.97 14.45 C16.76 14.85, 16.54 15.25, 16.16 15.96 M16.16 15.96 C17.27 16.16, 18.38 16.37, 19.85 16.65 M16.16 15.96 C17.02 16.12, 17.89 16.28, 19.85 16.65 M19.85 16.65 C19.85 17.15, 19.85 17.65, 19.85 18.23 M19.85 16.65 C19.85 17.1, 19.85 17.55, 19.85 18.23 M19.85 18.23 C21.16 18.16, 22.47 18.1, 24.06 18.02 M19.85 18.23 C20.71 18.19, 21.56 18.14, 24.06 18.02 M24.06 18.02 C24.06 16.89, 24.07 15.77, 24.07 13.67 M24.06 18.02 C24.06 16.99, 24.07 15.97, 24.07 13.67 M24.07 13.67 C22.88 13.69, 21.7 13.7, 19.88 13.72 M24.07 13.67 C22.92 13.69, 21.77 13.7, 19.88 13.72 M19.88 13.72 C19.88 14.11, 19.87 14.49, 19.86 14.99 M19.88 13.72 C19.88 14.21, 19.87 14.7, 19.86 14.99 M19.86 14.99 C19.42 14.27, 18.98 13.55, 18.27 12.39 M19.86 14.99 C19.29 14.06, 18.72 13.13, 18.27 12.39 M18.27 12.39 C18.06 12.69, 17.84 12.99, 17.47 13.5 M18.27 12.39 C18.05 12.7, 17.83 13, 17.47 13.5 M17.47 13.5 C14.78 11.48, 12.09 9.45, 7.85 6.27 M17.47 13.5 C15.17 11.77, 12.87 10.04, 7.85 6.27 M7.85 6.27 C10.37 6.27, 12.89 6.26, 16.02 6.26 M7.85 6.27 C10.58 6.27, 13.31 6.26, 16.02 6.26 M16.02 6.26 C16.01 6.72, 15.99 7.19, 15.98 7.42 M16.02 6.26 C16.01 6.7, 15.99 7.13, 15.98 7.42 M15.98 7.42 C17.02 7.08, 18.06 6.75, 19.57 6.26 M15.98 7.42 C16.89 7.13, 17.81 6.83, 19.57 6.26 M19.57 6.26 C19.57 6.82, 19.57 7.37, 19.57 8.33 M19.57 6.26 C19.57 6.88, 19.57 7.5, 19.57 8.33 M19.57 8.33 C20.51 8.33, 21.46 8.32, 24.02 8.3 M19.57 8.33 C20.5 8.33, 21.44 8.32, 24.02 8.3 M24.02 8.3 C24.03 7.18, 24.05 6.07, 24.07 3.81 M24.02 8.3 C24.03 7.3, 24.04 6.31, 24.07 3.81 M24.07 3.81 C22.29 3.81, 20.5 3.81, 19.58 3.81 M24.07 3.81 C22.96 3.81, 21.86 3.81, 19.58 3.81 M19.58 3.81 C19.57 4.12, 19.55 4.43, 19.52 5.2 M19.58 3.81 C19.57 4.12, 19.55 4.44, 19.52 5.2 M19.52 5.2 C18.48 4.78, 17.44 4.36, 15.99 3.78 M19.52 5.2 C18.51 4.79, 17.5 4.39, 15.99 3.78 M15.99 3.78 C16 3.98, 16.02 4.18, 16.06 4.74 M15.99 3.78 C16.01 4.04, 16.03 4.3, 16.06 4.74 M16.06 4.74 C13.86 4.71, 11.66 4.69, 7.95 4.65 M16.06 4.74 C13.45 4.71, 10.84 4.68, 7.95 4.65 M7.95 4.65 C11.01 2.87, 14.08 1.08, 17.2 -0.73 M7.95 4.65 C11.6 2.53, 15.24 0.41, 17.2 -0.73 M17.2 -0.73 C17.36 -0.49, 17.52 -0.24, 17.91 0.34 M17.2 -0.73 C17.36 -0.49, 17.52 -0.24, 17.91 0.34 M17.91 0.34 C18.33 -0.29, 18.75 -0.92, 19.56 -2.13 M17.91 0.34 C18.4 -0.4, 18.89 -1.14, 19.56 -2.13 M19.56 -2.13 C19.56 -1.6, 19.56 -1.06, 19.57 -0.75 M19.56 -2.13 C19.56 -1.64, 19.56 -1.16, 19.57 -0.75 M19.57 -0.75 C21.17 -0.74, 22.77 -0.72, 23.98 -0.71 M19.57 -0.75 C21.21 -0.74, 22.85 -0.72, 23.98 -0.71 M23.98 -0.71 C23.98 -2.09, 23.97 -3.47, 23.96 -5.33 M23.98 -0.71 C23.97 -2.17, 23.97 -3.62, 23.96 -5.33 M23.96 -5.33 C22.31 -5.35, 20.66 -5.37, 19.45 -5.38 M23.96 -5.33 C22.73 -5.34, 21.5 -5.36, 19.45 -5.38 M19.45 -5.38 C19.44 -4.95, 19.43 -4.52, 19.41 -3.51 M19.45 -5.38 C19.44 -4.98, 19.43 -4.58, 19.41 -3.51 M19.41 -3.51 C18.44 -3.34, 17.46 -3.18, 16.14 -2.96 M19.41 -3.51 C18.32 -3.33, 17.23 -3.14, 16.14 -2.96 M16.14 -2.96 C16.32 -2.46, 16.5 -1.96, 16.61 -1.64 M16.14 -2.96 C16.24 -2.68, 16.34 -2.4, 16.61 -1.64 M16.61 -1.64 C13.14 0.34, 9.66 2.32, 5.74 4.56 M16.61 -1.64 C12.65 0.62, 8.68 2.88, 5.74 4.56 M5.74 4.56 C5.7 3.33, 5.66 2.11, 5.6 0 M5.74 4.56 C5.69 2.87, 5.63 1.18, 5.6 0 M5.6 0 C3.83 0, 2.06 0, 0 0 M5.6 0 C4.2 0, 2.8 0, 0 0 M0 0 C0 0, 0 0, 0 0 M0 0 C0 0, 0 0, 0 0" stroke="#000000" stroke-width="1" fill="none"></path></g></g><g transform="translate(380.5962532890948 254.7539817701908) rotate(0 72.5 8.5)"><text x="72.5" y="13" font-family="Helvetica, Segoe UI Emoji" font-size="16px" fill="#000000" text-anchor="middle" style="white-space: pre;" direction="ltr">istio-ingressgateway</text></g><g stroke-linecap="round" transform="translate(329.43960651002914 311.89898989898995) rotate(0 124.38545661657133 34.62014338635268)"><path d="M15.97 -0.46 L231.38 -0.63 L238.13 1.26 L244.44 4.24 L248.52 11.95 L246.37 57.77 L240.1 68.32 L230.95 69.2 L17.03 70.51 L9.46 68.92 L3.49 63.35 L-1.33 54.69 L0.29 14.73 L2.75 4.83 L7.03 0.91 L17.31 1.37" stroke="none" stroke-width="0" fill="white"></path><path d="M17.31 0 M17.31 0 C74.39 -1.62, 127.74 -2, 231.46 0 M231.46 0 C244.18 -0.41, 248.44 7.07, 248.77 17.31 M248.77 17.31 C249.29 30.5, 248.28 43.07, 248.77 51.93 M248.77 51.93 C249.02 62.52, 241.24 68.19, 231.46 69.24 M231.46 69.24 C147.05 70.04, 64.18 71.27, 17.31 69.24 M17.31 69.24 C5.49 68.25, -0.34 62.02, 0 51.93 M0 51.93 C1.71 40.19, -0.94 29.02, 0 17.31 M0 17.31 C-1.57 7.06, 4.08 1.25, 17.31 0" stroke="#0eb1e4" stroke-width="2.5" fill="none" stroke-dasharray="8 10"></path></g><g transform="translate(603.6797320665312 323.4559190123514) rotate(0 71.5555555555556 17.888888888888914)"><text x="71.5555555555556" y="13.8888888888889" font-family="Helvetica, Segoe UI Emoji" font-size="17.040619469753775px" fill="#000000" text-anchor="middle" style="white-space: pre;" direction="ltr">East-west gateway</text><text x="71.5555555555556" y="31.7777777777778" font-family="Helvetica, Segoe UI Emoji" font-size="17.040619469753775px" fill="#000000" text-anchor="middle" style="white-space: pre;" direction="ltr">load balancers</text></g><g transform="translate(387.2498261368333 321.49640601261524) rotate(0 66.5 11.5)"><text x="66.5" y="17" font-family="Helvetica, Segoe UI Emoji" font-size="21.90476190476188px" fill="#000000" text-anchor="middle" style="white-space: pre;" direction="ltr">istio-eastwest</text></g><g stroke-linecap="round" transform="translate(556.5752229622299 327.7640827802918) rotate(180.89868362073796 18 18)"><path d="M14.47 -0.53 C17.74 -1.39, 22.45 -0.09, 25.7 2.01 C28.95 4.11, 32.53 8.59, 33.95 12.07 C35.38 15.55, 35.4 19.18, 34.25 22.87 C33.1 26.57, 30.33 32.21, 27.07 34.24 C23.81 36.27, 18.58 35.91, 14.71 35.05 C10.83 34.2, 6.42 31.71, 3.82 29.1 C1.21 26.49, -0.79 23.13, -0.92 19.39 C-1.06 15.64, 0.16 9.81, 3.01 6.64 C5.86 3.46, 14.11 1.26, 16.17 0.34 C18.22 -0.58, 15.44 0.76, 15.36 1.11 M18.9 -0.98 C22.31 -1.26, 26.44 2.38, 29.45 4.99 C32.46 7.61, 36.19 10.98, 36.98 14.72 C37.77 18.46, 36.2 24.08, 34.18 27.42 C32.17 30.76, 28.74 33.36, 24.9 34.75 C21.07 36.14, 14.87 37.06, 11.16 35.78 C7.46 34.49, 4.24 30.54, 2.68 27.04 C1.12 23.55, 1.05 18.54, 1.78 14.81 C2.51 11.08, 4.26 7.26, 7.06 4.64 C9.86 2.03, 16.66 -0.21, 18.58 -0.89 C20.5 -1.56, 18.43 0.36, 18.58 0.59" stroke="none" stroke-width="0" fill="#62a1d6"></path><path d="M17.38 -0.74 C20.78 -1.14, 25.79 1.62, 28.78 4.24 C31.76 6.86, 34.44 11.26, 35.28 14.98 C36.11 18.71, 35.69 23.33, 33.8 26.57 C31.9 29.82, 27.6 33.08, 23.92 34.44 C20.25 35.81, 15.39 35.85, 11.73 34.78 C8.08 33.72, 3.99 31.39, 1.98 28.05 C-0.03 24.71, -1.03 18.84, -0.33 14.73 C0.38 10.63, 2.93 5.87, 6.21 3.4 C9.5 0.92, 16.66 0.31, 19.38 -0.11 C22.11 -0.53, 22.42 0.65, 22.58 0.9 M13.1 1.29 C16.33 0.23, 22.1 1.68, 25.6 3.16 C29.1 4.64, 32.5 6.69, 34.13 10.15 C35.76 13.6, 36.17 20.09, 35.38 23.86 C34.6 27.64, 32.57 30.72, 29.4 32.8 C26.23 34.88, 20.66 36.92, 16.36 36.36 C12.06 35.8, 6.39 32.43, 3.61 29.45 C0.83 26.46, -0.14 21.95, -0.33 18.45 C-0.52 14.96, 0.28 11.34, 2.47 8.46 C4.67 5.57, 10.96 2.45, 12.85 1.13 C14.73 -0.18, 13.81 0.33, 13.79 0.56" stroke="#000000" stroke-width="1" fill="none"></path></g><g stroke-linecap="round"><g transform="translate(563.5547024557331 339.0451438806198) rotate(180.89868362073796 12.035457894448996 6.425174334340426)" fill-rule="evenodd"><path d="M0 0 L0.1 10.67 L5.69 10.72 L5.78 6.62 L16.97 14.45 L16.16 15.96 L19.85 16.65 L19.85 18.23 L24.06 18.02 L24.07 13.67 L19.88 13.72 L19.86 14.99 L18.27 12.39 L17.47 13.5 L7.85 6.27 L16.02 6.26 L15.98 7.42 L19.57 6.26 L19.57 8.33 L24.02 8.3 L24.07 3.81 L19.58 3.81 L19.52 5.2 L15.99 3.78 L16.06 4.74 L7.95 4.65 L17.2 -0.73 L17.91 0.34 L19.56 -2.13 L19.57 -0.75 L23.98 -0.71 L23.96 -5.33 L19.45 -5.38 L19.41 -3.51 L16.14 -2.96 L16.61 -1.64 L5.74 4.56 L5.6 0 L0 0" stroke="none" stroke-width="0" fill="#fff" fill-rule="evenodd"></path><path d="M0 0 C0.02 2.6, 0.05 5.2, 0.1 10.67 M0 0 C0.03 3.48, 0.06 6.96, 0.1 10.67 M0.1 10.67 C1.72 10.68, 3.34 10.7, 5.69 10.72 M0.1 10.67 C1.55 10.68, 3.01 10.69, 5.69 10.72 M5.69 10.72 C5.72 9.36, 5.75 8, 5.78 6.62 M5.69 10.72 C5.71 9.87, 5.73 9.03, 5.78 6.62 M5.78 6.62 C8.29 8.38, 10.81 10.14, 16.97 14.45 M5.78 6.62 C10.04 9.6, 14.3 12.58, 16.97 14.45 M16.97 14.45 C16.65 15.05, 16.33 15.64, 16.16 15.96 M16.97 14.45 C16.73 14.9, 16.49 15.35, 16.16 15.96 M16.16 15.96 C17.32 16.17, 18.48 16.39, 19.85 16.65 M16.16 15.96 C17.22 16.15, 18.28 16.35, 19.85 16.65 M19.85 16.65 C19.85 17.23, 19.85 17.8, 19.85 18.23 M19.85 16.65 C19.85 17, 19.85 17.36, 19.85 18.23 M19.85 18.23 C21.24 18.16, 22.63 18.09, 24.06 18.02 M19.85 18.23 C20.95 18.17, 22.04 18.12, 24.06 18.02 M24.06 18.02 C24.06 16.91, 24.07 15.8, 24.07 13.67 M24.06 18.02 C24.06 16.59, 24.07 15.16, 24.07 13.67 M24.07 13.67 C22.69 13.69, 21.3 13.7, 19.88 13.72 M24.07 13.67 C22.84 13.69, 21.61 13.7, 19.88 13.72 M19.88 13.72 C19.88 14.19, 19.87 14.65, 19.86 14.99 M19.88 13.72 C19.88 14.05, 19.87 14.38, 19.86 14.99 M19.86 14.99 C19.45 14.31, 19.03 13.63, 18.27 12.39 M19.86 14.99 C19.39 14.22, 18.91 13.44, 18.27 12.39 M18.27 12.39 C18.04 12.71, 17.81 13.03, 17.47 13.5 M18.27 12.39 C17.97 12.81, 17.66 13.23, 17.47 13.5 M17.47 13.5 C14.04 10.92, 10.6 8.34, 7.85 6.27 M17.47 13.5 C14.66 11.39, 11.85 9.28, 7.85 6.27 M7.85 6.27 C10.3 6.27, 12.74 6.26, 16.02 6.26 M7.85 6.27 C10.85 6.27, 13.85 6.26, 16.02 6.26 M16.02 6.26 C16.01 6.65, 15.99 7.04, 15.98 7.42 M16.02 6.26 C16.01 6.5, 16 6.74, 15.98 7.42 M15.98 7.42 C17.28 7, 18.58 6.58, 19.57 6.26 M15.98 7.42 C16.72 7.18, 17.47 6.94, 19.57 6.26 M19.57 6.26 C19.57 6.7, 19.57 7.13, 19.57 8.33 M19.57 6.26 C19.57 6.86, 19.57 7.45, 19.57 8.33 M19.57 8.33 C21.04 8.32, 22.52 8.31, 24.02 8.3 M19.57 8.33 C20.48 8.33, 21.39 8.32, 24.02 8.3 M24.02 8.3 C24.04 7.08, 24.05 5.85, 24.07 3.81 M24.02 8.3 C24.04 6.99, 24.05 5.68, 24.07 3.81 M24.07 3.81 C22.52 3.81, 20.97 3.81, 19.58 3.81 M24.07 3.81 C22.41 3.81, 20.74 3.81, 19.58 3.81 M19.58 3.81 C19.56 4.23, 19.54 4.66, 19.52 5.2 M19.58 3.81 C19.57 4.21, 19.55 4.61, 19.52 5.2 M19.52 5.2 C18.7 4.87, 17.89 4.54, 15.99 3.78 M19.52 5.2 C18.7 4.87, 17.88 4.54, 15.99 3.78 M15.99 3.78 C16.02 4.15, 16.05 4.52, 16.06 4.74 M15.99 3.78 C16.01 4.03, 16.03 4.28, 16.06 4.74 M16.06 4.74 C13.6 4.71, 11.14 4.68, 7.95 4.65 M16.06 4.74 C14.22 4.72, 12.39 4.7, 7.95 4.65 M7.95 4.65 C10.4 3.22, 12.85 1.8, 17.2 -0.73 M7.95 4.65 C10.75 3.02, 13.55 1.39, 17.2 -0.73 M17.2 -0.73 C17.46 -0.34, 17.72 0.05, 17.91 0.34 M17.2 -0.73 C17.42 -0.4, 17.63 -0.08, 17.91 0.34 M17.91 0.34 C18.55 -0.63, 19.2 -1.6, 19.56 -2.13 M17.91 0.34 C18.27 -0.21, 18.64 -0.76, 19.56 -2.13 M19.56 -2.13 C19.56 -1.71, 19.56 -1.29, 19.57 -0.75 M19.56 -2.13 C19.56 -1.67, 19.56 -1.21, 19.57 -0.75 M19.57 -0.75 C20.9 -0.74, 22.23 -0.73, 23.98 -0.71 M19.57 -0.75 C21.06 -0.74, 22.55 -0.72, 23.98 -0.71 M23.98 -0.71 C23.98 -2.1, 23.97 -3.48, 23.96 -5.33 M23.98 -0.71 C23.98 -2.02, 23.97 -3.33, 23.96 -5.33 M23.96 -5.33 C23 -5.34, 22.05 -5.35, 19.45 -5.38 M23.96 -5.33 C22.68 -5.34, 21.4 -5.36, 19.45 -5.38 M19.45 -5.38 C19.44 -4.97, 19.43 -4.57, 19.41 -3.51 M19.45 -5.38 C19.44 -4.92, 19.43 -4.45, 19.41 -3.51 M19.41 -3.51 C18.65 -3.38, 17.89 -3.25, 16.14 -2.96 M19.41 -3.51 C18.75 -3.4, 18.09 -3.29, 16.14 -2.96 M16.14 -2.96 C16.24 -2.7, 16.33 -2.43, 16.61 -1.64 M16.14 -2.96 C16.25 -2.67, 16.35 -2.37, 16.61 -1.64 M16.61 -1.64 C12.7 0.59, 8.78 2.83, 5.74 4.56 M16.61 -1.64 C12.78 0.54, 8.95 2.73, 5.74 4.56 M5.74 4.56 C5.7 3.17, 5.65 1.79, 5.6 0 M5.74 4.56 C5.69 3.07, 5.65 1.58, 5.6 0 M5.6 0 C4.04 0, 2.49 0, 0 0 M5.6 0 C3.9 0, 2.2 0, 0 0 M0 0 C0 0, 0 0, 0 0 M0 0 C0 0, 0 0, 0 0" stroke="#000000" stroke-width="1" fill="none"></path></g></g><g transform="translate(375.65098053798744 349.4964060126151) rotate(0 78.5 8.5)"><text x="78.5" y="13" font-family="Helvetica, Segoe UI Emoji" font-size="16px" fill="#000000" text-anchor="middle" style="white-space: pre;" direction="ltr">istio-eastwestgateway</text></g><g stroke-linecap="round" transform="translate(654.6885399082073 21.674971642990528) rotate(0 21.557011060856667 22.63486161389956)"><path d="M14.55 0.25 C18.69 -1.24, 25.56 0.18, 29.95 2.31 C34.35 4.44, 38.9 8.83, 40.91 13.03 C42.93 17.22, 42.98 22.71, 42.04 27.47 C41.09 32.23, 38.94 38.53, 35.23 41.57 C31.53 44.62, 24.61 46.01, 19.81 45.74 C15.02 45.46, 9.79 43.4, 6.47 39.91 C3.15 36.41, 0.38 29.65, -0.09 24.78 C-0.56 19.9, 0.27 14.81, 3.66 10.68 C7.06 6.55, 16.98 1.65, 20.29 0.01 C23.59 -1.63, 23.77 0.56, 23.5 0.84" stroke="none" stroke-width="0" fill="#ffffff"></path><path d="M18.5 0.23 C22.92 -0.49, 28.93 1.33, 32.92 4.02 C36.92 6.7, 41.11 12.02, 42.48 16.34 C43.84 20.66, 42.76 25.57, 41.09 29.92 C39.43 34.27, 36.28 39.81, 32.48 42.46 C28.68 45.1, 23 46.83, 18.3 45.76 C13.6 44.7, 7.45 39.98, 4.29 36.07 C1.13 32.16, -0.77 26.96, -0.67 22.28 C-0.56 17.6, 1.43 11.74, 4.92 7.98 C8.41 4.23, 17.49 1.08, 20.28 -0.24 C23.07 -1.57, 21.7 -0.35, 21.65 0.04" stroke="#ffffff" stroke-width="2.5" fill="none" stroke-dasharray="8 10"></path></g><g stroke-linecap="round" transform="translate(655.3856358090827 22.734215059538343) rotate(0 21.715221457949383 20.817898257207688)"><path d="M15.65 1.01 C20.1 -0.37, 26.83 0.61, 31.25 2.29 C35.68 3.97, 40.44 7.08, 42.21 11.09 C43.98 15.1, 43.17 21.78, 41.89 26.36 C40.6 30.94, 37.95 36.11, 34.5 38.57 C31.04 41.03, 25.93 41.7, 21.17 41.13 C16.4 40.56, 9.4 38.23, 5.92 35.15 C2.43 32.06, 0.58 26.91, 0.25 22.61 C-0.08 18.31, 1.13 13.11, 3.95 9.34 C6.78 5.58, 14.7 1.53, 17.2 0.02 C19.71 -1.49, 18.87 -0.04, 18.96 0.28 M31.16 0.77 C35.22 2.42, 38.57 7.75, 40.58 12.08 C42.58 16.4, 44.22 22.48, 43.2 26.7 C42.19 30.92, 38.58 34.72, 34.49 37.41 C30.39 40.09, 23.2 43.29, 18.64 42.83 C14.08 42.37, 10.09 38.13, 7.12 34.63 C4.15 31.13, 1.08 26.26, 0.81 21.85 C0.55 17.45, 2.98 11.71, 5.51 8.18 C8.03 4.65, 11.51 1.47, 15.96 0.69 C20.4 -0.08, 29.65 3.17, 32.16 3.52 C34.66 3.88, 31.18 2.96, 30.96 2.81" stroke="#000000" stroke-width="1" fill="none"></path></g><g stroke-linecap="round"><g transform="translate(675.8050278116468 23.381711456790214) rotate(0 -0.07330736505593904 20.084941248941675)"><path d="M-0.37 -0.67 C-0.78 6.25, -1.72 33.93, -1.79 40.84 M1.64 1.59 C1.53 8.2, 0.9 32.1, 0.36 38.87" stroke="#000000" stroke-width="1" fill="none"></path></g></g><g stroke-linecap="round"><g transform="translate(662.1625516833597 29.057122428520643) rotate(0 15.470453281274615 2.8879648641377287)"><path d="M-0.67 -1.07 C-0.63 -1.07, -0.46 -0.61, -0.43 -0.4 C-0.4 -0.19, -0.78 -0.27, -0.48 0.17 C-0.19 0.62, 0.46 1.76, 1.33 2.27 C2.2 2.78, 1.65 2.47, 4.71 3.22 C7.77 3.97, 16.86 6.13, 19.67 6.8 C22.48 7.46, 20.58 7.72, 21.58 7.21 C22.58 6.71, 24.23 4.77, 25.65 3.77 C27.06 2.77, 29.27 1.74, 30.06 1.23 C30.85 0.71, 30.14 0.88, 30.36 0.67 C30.58 0.47, 31.38 -0.03, 31.38 0.01 C31.39 0.05, 30.55 0.73, 30.41 0.93 M1.17 0.99 C1.15 1.21, -0.85 1.56, -1.23 1.12 C-1.61 0.67, -1.65 -1.57, -1.13 -1.7 C-0.61 -1.83, 0.62 -0.45, 1.9 0.34 C3.18 1.13, 3.9 2.14, 6.54 3.04 C9.19 3.94, 15.66 5.18, 17.77 5.75 C19.87 6.32, 17.45 6.91, 19.15 6.45 C20.86 5.98, 25.91 4.05, 27.99 2.96 C30.07 1.87, 31.14 0.35, 31.62 -0.08 C32.1 -0.51, 30.84 0.24, 30.87 0.39 C30.89 0.54, 31.53 0.84, 31.79 0.81 C32.05 0.79, 32.62 0.34, 32.42 0.25" stroke="#000000" stroke-width="1" fill="none"></path></g></g><g stroke-linecap="round"><g transform="translate(659.9470636638146 59.86933037438018) rotate(0 15.813817368598507 -4.703790234768007)"><path d="M-1.07 0.29 C0 -0.28, 2.2 -2.75, 6.06 -4.07 C9.92 -5.39, 18.57 -6.95, 22.07 -7.64 C25.56 -8.33, 25.87 -9, 27.04 -8.21 C28.2 -7.43, 28.43 -4.14, 29.06 -2.94 C29.7 -1.74, 30.24 -1.13, 30.85 -1.03 C31.45 -0.93, 32.72 -2.09, 32.7 -2.35 M0.57 -0.61 C1.51 -1.5, 1.56 -4.56, 5.09 -6.07 C8.62 -7.58, 18.58 -9.43, 21.77 -9.67 C24.96 -9.9, 22.77 -8.7, 24.25 -7.46 C25.74 -6.22, 29.35 -3.2, 30.68 -2.21 C32.01 -1.21, 32.32 -1.8, 32.25 -1.48 C32.18 -1.17, 30.16 -0.01, 30.26 -0.33" stroke="#000000" stroke-width="1" fill="none"></path></g></g><g stroke-linecap="round"><g transform="translate(654.6983388380302 44.34446275545881) rotate(0 20.782193319740145 0.0711389419915065)"><path d="M0.29 -0.04 C7.5 0.35, 35.47 0.99, 42.59 1.25 M-1.02 -1.11 C6.11 -0.96, 34.51 -0.56, 41.76 -0.4" stroke="#000000" stroke-width="1" fill="none"></path></g></g><g stroke-linecap="round"><g transform="translate(676.3677964727392 24.836121432390144) rotate(0 5.190152028652108 19.569515457857307)"><path d="M-0.04 0.23 C0.46 0.23, 1.28 0.4, 1.97 0.25 C2.65 0.1, 3.32 -1.34, 4.07 -0.67 C4.81 -0.01, 5.76 3.16, 6.45 4.24 C7.14 5.32, 7.33 3.71, 8.23 5.79 C9.14 7.86, 11.6 13.94, 11.88 16.67 C12.15 19.4, 10.39 20, 9.87 22.16 C9.35 24.32, 9.52 27.15, 8.77 29.65 C8.01 32.14, 6.56 35.38, 5.34 37.13 C4.12 38.87, 2.3 39.64, 1.45 40.1 C0.59 40.57, 0.37 39.92, 0.22 39.89 C0.06 39.87, 0.23 39.95, 0.5 39.95 M-1.52 -0.69 C-1 -1.07, 0.58 -1.71, 1.49 -1.55 C2.4 -1.39, 3.15 -0.31, 3.93 0.29 C4.7 0.88, 5.66 1.55, 6.13 2.02 C6.6 2.49, 6.07 0.28, 6.75 3.11 C7.43 5.94, 9.66 15.51, 10.21 19 C10.76 22.49, 10.45 22.38, 10.05 24.05 C9.65 25.73, 8.85 27.08, 7.82 29.04 C6.78 31, 4.8 34.1, 3.83 35.83 C2.87 37.56, 2.62 38.6, 2.03 39.41 C1.44 40.23, 0.78 40.75, 0.27 40.71 C-0.24 40.68, -0.81 38.94, -1.03 39.21" stroke="#000000" stroke-width="1" fill="none"></path></g></g><g stroke-linecap="round"><g transform="translate(675.4681349603923 24.70729702217008) rotate(0 -5.768905293088835 18.247864064710228)"><path d="M0.23 0.89 C0.23 0.98, 1.48 0.15, 0.25 0.48 C-0.98 0.8, -5.41 1.09, -7.14 2.86 C-8.86 4.63, -9.4 7.81, -10.12 11.11 C-10.84 14.4, -11.18 19.92, -11.44 22.65 C-11.7 25.37, -11.9 25.95, -11.68 27.46 C-11.46 28.98, -10.69 30.94, -10.14 31.74 C-9.59 32.54, -9.28 31.92, -8.4 32.26 C-7.52 32.6, -5.65 33.05, -4.87 33.75 C-4.08 34.45, -4.15 35.97, -3.68 36.47 C-3.22 36.97, -2.32 36.48, -2.1 36.75 M-1.1 0.31 C-1.24 0.1, 0.82 -1.57, -0.37 -1.02 C-1.57 -0.47, -6.73 1.4, -8.25 3.61 C-9.78 5.81, -8.85 9.47, -9.53 12.2 C-10.21 14.92, -12.15 17.06, -12.32 19.96 C-12.5 22.86, -10.96 27.86, -10.56 29.61 C-10.16 31.36, -10.07 30.06, -9.92 30.47 C-9.78 30.88, -10.27 31.19, -9.69 32.08 C-9.11 32.98, -7.55 35.23, -6.46 35.84 C-5.37 36.46, -3.91 35.46, -3.16 35.75 C-2.4 36.05, -2.39 37.21, -1.95 37.62" stroke="#000000" stroke-width="1" fill="none"></path></g></g><g stroke-linecap="round" transform="translate(101.59591656644875 393.14360740431584) rotate(0 18.918976984905044 13.096856694779262)"><path d="M-2.71 -1.89 L34.35 -2.61 L38.43 25.99 L2.23 26.8" stroke="none" stroke-width="0" fill="#dbe4ec"></path><path d="M2.44 3.96 C16.35 -1.65, 24.21 -2.22, 41.78 -1.58 M1.88 1.66 C8.81 -0.94, 17.16 1.19, 37.56 0.69 M39.93 1.78 C38.1 9.79, 35.64 9.56, 34.29 30.03 M36.55 0.26 C39.65 6.29, 37.66 13.4, 38.3 27.31 M38.54 27.25 C22.88 30.55, 8.55 29.3, -1.02 26.15 M38.13 27.73 C28.29 25.93, 20.77 26.47, -1.46 25.99 M-3.97 24.33 C-0.44 19.11, -2.81 3.29, 1.7 3.47 M-1.66 26.74 C1.49 18.13, -1.08 9.56, 1.58 -0.5" stroke="#325476" stroke-width="1" fill="none"></path></g><g stroke-linecap="round"><g transform="translate(109.94905872009332 399.10439887614336) rotate(0 0.029329002450865005 8.75921227273193)"><path d="M1.71 2.77 C1.52 4.48, 0.82 10.93, -0.22 12.48 M-0.81 1.8 C-1.31 3.73, -1.85 13.59, -1.57 15.71" stroke="#325476" stroke-width="4" fill="none"></path></g></g><g stroke-linecap="round"><g transform="translate(131.78821911553246 400.1633140909188) rotate(0 -1.2211842478353105 6.368347815839911)"><path d="M2.77 1.63 C1.97 3.1, -1.62 8.14, -2.58 10.53 M0.83 0.04 C-0.61 1.59, -4.17 10.71, -5.21 12.7" stroke="#325476" stroke-width="4" fill="none"></path></g></g><g stroke-linecap="round"><g transform="translate(121.02196221027799 399.2553282543654) rotate(0 -1.4531356439280785 5.750149181453878)"><path d="M1.63 -0.73 C0.59 0.82, -4.41 9.94, -4.53 12.08 M-0.94 -3.6 C-1.31 -0.48, 0.15 12.06, 0.41 15.1" stroke="#325476" stroke-width="4" fill="none"></path></g></g><g stroke-linecap="round" transform="translate(161.5004234741922 393.14360740431584) rotate(0 18.918976984905044 13.096856694779262)"><path d="M3.87 -0.3 L41.05 -3.95 L37.78 23.55 L0.68 23.9" stroke="none" stroke-width="0" fill="#dbe4ec"></path><path d="M3.92 1.73 C11.56 3.75, 20.37 3.65, 35.15 2.52 M0.09 0.94 C7.75 -0.72, 18.28 1.99, 36.79 -0.63 M39.46 3.69 C37.44 8.41, 34.45 21.85, 39.06 29.7 M36.7 0.9 C37.09 10.35, 38.55 18.28, 39.24 24.77 M39.87 25.38 C25.88 27.1, 6.13 23.99, 1.52 22.6 M36.13 24.97 C27.18 26.61, 18.42 27.44, -1.59 26.27 M-2.83 26.27 C0.83 18.69, 2.93 12.25, 0.11 3.93 M0.59 26.44 C-0.36 19.91, 1.6 12.17, -0.63 -2" stroke="#325476" stroke-width="1" fill="none"></path></g><g stroke-linecap="round"><g transform="translate(169.85356562783676 399.1043988761435) rotate(0 -0.06805873672547591 7.664818966282894)"><path d="M2.74 1.21 C2.58 3.79, -0.24 13.49, -1.06 15.93 M0.79 -0.6 C0.33 1.22, -2.04 10.33, -2.88 12.4" stroke="#325476" stroke-width="4" fill="none"></path></g></g><g stroke-linecap="round"><g transform="translate(191.6927260232759 400.1633140909189) rotate(0 -0.17984902389531499 7.505314845411476)"><path d="M1.21 0.78 C1.28 2.46, 0.94 11.09, 0.87 12.85 M-1.58 -1.26 C-1.68 2.06, -0.22 13.83, 0.11 16.28" stroke="#325476" stroke-width="4" fill="none"></path></g></g><g stroke-linecap="round"><g transform="translate(180.92646911802137 399.2553282543654) rotate(0 -2.019477310110176 8.792527911557272)"><path d="M0.78 2.72 C-0.05 5.16, -1.46 13.82, -2.21 15.86 M-2.24 1.72 C-3.72 3.34, -5.37 10.84, -4.65 12.29" stroke="#325476" stroke-width="4" fill="none"></path></g></g><g stroke-linecap="round" transform="translate(221.40493038193563 393.14360740431584) rotate(0 18.918976984905044 13.096856694779262)"><path d="M-0.06 -3.58 L39 1.1 L39.69 29.43 L-0.34 30.05" stroke="none" stroke-width="0" fill="#dbe4ec"></path><path d="M1.78 -1.12 C14.03 0.95, 27.66 1.91, 34.52 -3.55 M1.66 -1.01 C12.07 1.01, 27.34 0.6, 39.22 1.12 M34.85 2.66 C38.41 7.39, 37.82 15.78, 35.61 23.14 M38.31 0.58 C37.26 7.62, 38.76 10.68, 36.53 27.12 M37.74 23.8 C25.93 25.8, 22.39 26.76, 2.72 23.41 M39.77 27.88 C28.08 27.1, 13.58 26.68, -0.37 25.75 M3.64 22.74 C-1.1 15.06, 3.87 2.89, 1.53 -3.47 M0.57 26.16 C1.02 15.62, 0.64 9.05, -1.84 1.58" stroke="#325476" stroke-width="1" fill="none"></path></g><g stroke-linecap="round"><g transform="translate(229.75807253558014 399.1043988761435) rotate(0 -0.7798628319341105 5.285758074118178)"><path d="M1.25 -0.78 C0.88 1.27, -0.73 11.63, -1.02 14.25 M-1.52 -3.68 C-2.29 -2.67, -2.81 7.46, -2.81 9.8" stroke="#325476" stroke-width="4" fill="none"></path></g></g><g stroke-linecap="round"><g transform="translate(251.59723293101933 400.1633140909189) rotate(0 0.7497674776327585 6.702285621060412)"><path d="M-0.78 0.83 C-1.24 3.05, -0.92 12.92, -0.81 14.6 M3.99 -1.19 C3.07 0.09, -1.65 8.01, -2.49 10.34" stroke="#325476" stroke-width="4" fill="none"></path></g></g><g stroke-linecap="round"><g transform="translate(240.8309760257648 399.2553282543654) rotate(0 -0.8570189511865749 7.023504069639728)"><path d="M0.83 1.03 C0.54 3.65, 0.37 13.31, -0.46 14.92 M-2.17 -0.87 C-2.81 1.01, -2.55 8.61, -1.95 10.84" stroke="#325476" stroke-width="4" fill="none"></path></g></g><g stroke-linecap="round" transform="translate(749.2604496185875 10) rotate(0 295.3854566165714 232.8701433863527)"><path d="M117.11 1.21 L486.94 1.3 L515.37 3.47 L536.18 9.6 L543.35 17.18 L562.02 27.86 L574.76 43.92 L585.23 64.75 L587.38 89.19 L589.02 117.84 L588.84 363.57 L588.42 388.55 L582.6 400.45 L572.66 421.59 L560.48 436.96 L545.33 447.86 L525.74 458.02 L503.13 463.98 L473.42 465.44 L101.59 465.03 L91 465.3 L65.58 458.56 L45.65 449.42 L30.08 437.09 L23.9 430.85 L12.46 411.69 L6.03 389.03 L2.26 362.05 L1.1 114.97 L2.73 76.1 L6.51 65.29 L17.71 46.82 L29.78 30.52 L47.31 16.74 L67.41 7 L75.06 4.65 L116.11 1.85" stroke="none" stroke-width="0" fill="white"></path><path d="M116.44 0 M116.44 0 C202.45 2.59, 287.1 1.63, 474.34 0 M116.44 0 C226.69 2, 336.19 2.34, 474.34 0 M474.34 0 C552.33 1.51, 591.98 38.17, 590.77 116.44 M474.34 0 C553.97 0.09, 590.36 39.5, 590.77 116.44 M590.77 116.44 C590.45 184.14, 591.86 250.84, 590.77 349.31 M590.77 116.44 C588.34 165.13, 588.33 213.63, 590.77 349.31 M590.77 349.31 C589.97 426.28, 553.42 465.81, 474.34 465.74 M590.77 349.31 C589.6 426.01, 552.74 464.57, 474.34 465.74 M474.34 465.74 C391.85 465.39, 310.61 465.64, 116.44 465.74 M474.34 465.74 C390.54 468.3, 306.69 467.23, 116.44 465.74 M116.44 465.74 C40.06 466.62, -1.54 424.98, 0 349.31 M116.44 465.74 C38.14 466.26, -1.28 425.8, 0 349.31 M0 349.31 C0.71 294.1, 0.04 239.57, 0 116.44 M0 349.31 C-0.88 270.44, -0.66 189.77, 0 116.44 M0 116.44 C-1.08 39.12, 37.89 1.12, 116.44 0 M0 116.44 C1.44 36.95, 39.65 -1.08, 116.44 0" stroke="#0eb1e4" stroke-width="1" fill="none"></path></g><g stroke-linecap="round" transform="translate(1083.0923431468755 335.96694096650367) rotate(0 111.88545661657133 58.37014338635265)"><path d="M30.4 -1.5 L195.44 1.47 L200.8 0.9 L210.6 2.17 L220.47 11.76 L222.07 22.71 L222.21 89.29 L222.57 92.82 L219.71 103.59 L213.78 111.16 L207.52 116.66 L194.26 115.85 L29.39 115 L23.68 115.1 L11.73 112.68 L2.6 105.81 L0.01 95.9 L0.51 21.43 L1.52 15.67 L7.04 9.15 L17.8 1.91 L29.28 0.17" stroke="none" stroke-width="0" fill="white"></path><path d="M29.19 0 M29.19 0 C80.84 1.58, 130.36 0.6, 194.59 0 M194.59 0 C215.98 0.16, 225.57 8.37, 223.77 29.19 M223.77 29.19 C222.58 49.14, 223.14 71.97, 223.77 87.56 M223.77 87.56 C225.11 107.68, 215.46 118.56, 194.59 116.74 M194.59 116.74 C140.1 117.07, 88.89 118.37, 29.19 116.74 M29.19 116.74 C8.47 115.66, -1.17 108.75, 0 87.56 M0 87.56 C-0.26 64.83, -1.97 42.91, 0 29.19 M0 29.19 C0.6 10.97, 11.39 0.37, 29.19 0" stroke="#0eb1e4" stroke-width="2.5" fill="none" stroke-dasharray="8 10"></path></g><g stroke-linecap="round" transform="translate(789.0823574022218 211.37356307270963) rotate(0 124.38545661657133 34.62014338635265)"><path d="M15.81 0.85 L232.93 -0.63 L239.48 -0.68 L242.51 5.13 L248.86 12.01 L248.05 57.94 L243.75 66.07 L229.89 69.28 L15.56 70.65 L8.26 68.33 L4.17 62.15 L-0.62 56.19 L-1.47 14.59 L1.25 7.09 L6.81 0.93 L17.78 -0.44" stroke="none" stroke-width="0" fill="white"></path><path d="M17.31 0 M17.31 0 C97.41 0.21, 177.82 2.49, 231.46 0 M231.46 0 C244.38 0.08, 248.87 5.94, 248.77 17.31 M248.77 17.31 C250.55 29.74, 250.03 39.24, 248.77 51.93 M248.77 51.93 C250.71 63.63, 244.8 67.89, 231.46 69.24 M231.46 69.24 C154.76 67.29, 79.22 69.14, 17.31 69.24 M17.31 69.24 C7.11 69.91, 1.41 65.29, 0 51.93 M0 51.93 C-2.14 41.46, -0.66 31.73, 0 17.31 M0 17.31 C-1.25 4.69, 4.6 1.74, 17.31 0" stroke="#0eb1e4" stroke-width="2.5" fill="none" stroke-dasharray="8 10"></path></g><g stroke-linecap="round" transform="translate(1059.6492151832435 203.90524829516127) rotate(0 125.88545661657133 58.37014338635268)"><path d="M30.03 1.47 L221.96 0.44 L227.66 -1.48 L241.17 4.47 L246.42 11.76 L249.75 24.08 L251.03 85.98 L251.36 92.64 L249.08 103.87 L240.54 114.37 L235.03 114.03 L222.79 115 L30.52 115.56 L22.67 116.33 L9.89 113.1 L3.66 106.85 L0.51 93.48 L0.16 21.6 L1.57 18.27 L8.68 7.38 L16.51 1.99 L29.24 0.97" stroke="none" stroke-width="0" fill="white"></path><path d="M29.19 0 M29.19 0 C92.71 -0.91, 155.99 -1.73, 222.59 0 M222.59 0 C243.84 -1.35, 252.87 8.27, 251.77 29.19 M251.77 29.19 C251.34 44.07, 252.88 56.94, 251.77 87.56 M251.77 87.56 C253.19 108.84, 242.41 118.65, 222.59 116.74 M222.59 116.74 C166.88 119.13, 110.59 116.2, 29.19 116.74 M29.19 116.74 C8.55 118.48, 1.96 108.33, 0 87.56 M0 87.56 C-1.63 70.54, 0.56 51.12, 0 29.19 M0 29.19 C1.66 10.1, 11.24 1.21, 29.19 0" stroke="#0eb1e4" stroke-width="2.5" fill="none" stroke-dasharray="8 10"></path></g><g stroke-linecap="round" transform="translate(781.174443047827 67.02085227194087) rotate(0 127.38545661657133 58.37014338635268)"><path d="M30.65 -0.63 L226.03 -1.77 L230.49 1.26 L243.73 2.86 L251.03 9.84 L256.05 21.6 L253.2 87.6 L252.56 95.8 L249.19 105.51 L245.11 112.31 L237.47 115.12 L223.85 118.07 L28 117.07 L22.39 114.78 L11.87 112.19 L5.61 105.4 L-0.46 94.1 L-0.29 22.09 L3.68 17.8 L7.38 7.39 L16.59 1.87 L30.16 0.46" stroke="none" stroke-width="0" fill="white"></path><path d="M29.19 0 M29.19 0 C104.91 0.86, 178.84 0.73, 225.59 0 M225.59 0 C243.69 1.1, 253.31 8.37, 254.77 29.19 M254.77 29.19 C255.89 45.79, 255.22 61.13, 254.77 87.56 M254.77 87.56 C256.59 107.38, 246.96 116.47, 225.59 116.74 M225.59 116.74 C186.26 115.16, 142.15 115.24, 29.19 116.74 M29.19 116.74 C11.47 118.7, 1.32 107.47, 0 87.56 M0 87.56 C1.67 70.26, 1.09 53.44, 0 29.19 M0 29.19 C0.37 11.24, 10.94 -0.64, 29.19 0" stroke="#0eb1e4" stroke-width="2.5" fill="none" stroke-dasharray="8 10"></path></g><g stroke-linecap="round" transform="translate(1061.749024068888 67.92911862826523) rotate(0 124.88545661657133 58.37014338635268)"><path d="M28.56 0.44 L218.82 -1.93 L228.23 0.82 L237.12 4.47 L244.11 13.14 L248.57 20.77 L249.81 85.8 L250.72 92.92 L245.83 107.08 L238.04 111.75 L233.56 113.18 L221.92 115.56 L29.51 116.78 L20.84 116.75 L10.96 114.14 L4.16 104.42 L0.16 93.65 L0.2 24.2 L3.21 16.5 L7.39 7.47 L16.47 2.8 L29.64 1.61" stroke="none" stroke-width="0" fill="white"></path><path d="M29.19 0 M29.19 0 C107.24 -0.78, 183.21 -2.29, 220.59 0 M220.59 0 C241.14 -1.46, 248.41 8.96, 249.77 29.19 M249.77 29.19 C251.05 45.14, 251.12 61.57, 249.77 87.56 M249.77 87.56 C250.14 108.93, 239.77 114.93, 220.59 116.74 M220.59 116.74 C156.61 117.44, 93.96 120.25, 29.19 116.74 M29.19 116.74 C11.69 118.06, 0.46 107.14, 0 87.56 M0 87.56 C1.06 69.81, 2.13 49.95, 0 29.19 M0 29.19 C1.51 10.94, 9.09 1.75, 29.19 0" stroke="#0eb1e4" stroke-width="2.5" fill="none" stroke-dasharray="8 10"></path></g><g transform="translate(960.6538036874917 21.492867726411106) rotate(0 89 11)"><text x="89" y="17" font-family="Helvetica, Segoe UI Emoji" font-size="21.476510067114088px" fill="#000000" text-anchor="middle" style="white-space: pre;" direction="ltr">Workload cluster 2</text></g><g stroke-linecap="round"><g transform="translate(1088.9629584706718 244.67364297924084) rotate(0 11.328715126380644 14.276651934798878)" fill-rule="evenodd"><path d="M0 0 L0.15 27.85 L22.66 28.55 L0 0" stroke="none" stroke-width="0" fill="#0eb1e4" fill-rule="evenodd"></path><path d="M0 0 C0.03 5.89, 0.06 11.79, 0.15 27.85 M0 0 C0.03 5.91, 0.06 11.82, 0.15 27.85 M0.15 27.85 C7.27 28.07, 14.4 28.29, 22.66 28.55 M0.15 27.85 C8.98 28.12, 17.82 28.4, 22.66 28.55 M22.66 28.55 C14.75 18.59, 6.84 8.62, 0 0 M22.66 28.55 C14.34 18.07, 6.02 7.59, 0 0 M0 0 C0 0, 0 0, 0 0 M0 0 C0 0, 0 0, 0 0" stroke="#0eb1e4" stroke-width="1" fill="none"></path></g></g><g stroke-linecap="round"><g transform="translate(1086.8663905565163 255.7105913952382) rotate(0 -4.762583765331215 11.845912961431225)" fill-rule="evenodd"><path d="M0 0 L0.66 18.58 L-10.18 23.69 L0 0" stroke="none" stroke-width="0" fill="#0eb1e4" fill-rule="evenodd"></path><path d="M0 0 C0.13 3.78, 0.27 7.55, 0.66 18.58 M0 0 C0.24 6.88, 0.49 13.76, 0.66 18.58 M0.66 18.58 C-2.62 20.12, -5.89 21.67, -10.18 23.69 M0.66 18.58 C-3.34 20.47, -7.35 22.35, -10.18 23.69 M-10.18 23.69 C-6.14 14.29, -2.1 4.88, 0 0 M-10.18 23.69 C-6.45 15, -2.71 6.31, 0 0 M0 0 C0 0, 0 0, 0 0 M0 0 C0 0, 0 0, 0 0" stroke="#0eb1e4" stroke-width="1" fill="none"></path></g></g><g stroke-linecap="round"><g transform="translate(1083.5511184173974 277.09670814123365) rotate(0 16.781727048653693 1.7154147238986752)" fill-rule="evenodd"><path d="M0 0 L33.56 -3.81 L9 7.24 L0 0" stroke="none" stroke-width="0" fill="#0eb1e4" fill-rule="evenodd"></path><path d="M0 0 C11.42 -1.3, 22.83 -2.59, 33.56 -3.81 M0 0 C7.6 -0.86, 15.2 -1.73, 33.56 -3.81 M33.56 -3.81 C28.04 -1.33, 22.53 1.16, 9 7.24 M33.56 -3.81 C26.09 -0.45, 18.62 2.91, 9 7.24 M9 7.24 C6.23 5.01, 3.46 2.78, 0 0 M9 7.24 C6 4.83, 3 2.41, 0 0 M0 0 C0 0, 0 0, 0 0 M0 0 C0 0, 0 0, 0 0" stroke="#0eb1e4" stroke-width="1" fill="none"></path></g></g><g transform="translate(1170.7701509812778 417.4135461448491) rotate(0 23 10.5)"><text x="23" y="16" font-family="Helvetica, Segoe UI Emoji" font-size="20px" fill="#000000" text-anchor="middle" style="white-space: pre;" direction="ltr">Apps</text></g><g transform="translate(1125.328617112315 258.4365397528031) rotate(0 68.5 9.22115384615384)"><text x="68.50000000000001" y="13.4423076923077" font-family="Helvetica, Segoe UI Emoji" font-size="17.56410256410257px" fill="#000000" text-anchor="middle" style="white-space: pre;" direction="ltr">istiod deployment</text></g><g transform="translate(1116.3899426479443 342.1780877708252) rotate(0 80.66666666666674 11)"><text x="80.66666666666671" y="17.000000000000014" font-family="Helvetica, Segoe UI Emoji" font-size="20.952380952380967px" fill="#000000" text-anchor="middle" style="white-space: pre;" direction="ltr">App namespaces</text></g><g transform="translate(847.5630521140313 71.799262014618) rotate(0 61.28571428571422 11)"><text x="61.28571428571425" y="16.999999999999986" font-family="Helvetica, Segoe UI Emoji" font-size="20.95238095238094px" fill="#000000" text-anchor="middle" style="white-space: pre;" direction="ltr">istio-operator</text></g><g transform="translate(1129.3011473521265 211.91037312572914) rotate(0 58.04761904761904 11.5)"><text x="58.047619047619044" y="17" font-family="Helvetica, Segoe UI Emoji" font-size="21.904761904761905px" fill="#000000" text-anchor="middle" style="white-space: pre;" direction="ltr">istio-system</text></g><g transform="translate(1136.063052114031 73.799262014618) rotate(0 50.285714285714334 11)"><text x="50.285714285714285" y="17" font-family="Helvetica, Segoe UI Emoji" font-size="20.952380952380953px" fill="#000000" text-anchor="middle" style="white-space: pre;" direction="ltr">istio-config</text></g><g transform="translate(855.4201949711744 216.74370645906228) rotate(0 58.5 11.5)"><text x="58.5" y="17" font-family="Helvetica, Segoe UI Emoji" font-size="21.90476190476188px" fill="#000000" text-anchor="middle" style="white-space: pre;" direction="ltr">istio-ingress</text></g><g stroke-linecap="round"><g transform="translate(814.131153376112 147.40901176355086) rotate(105.81660264955728 21.168080501267582 -12.161343555238773)"><path d="M0 0 C1.01 -3.05, 1.48 -14.36, 6.09 -18.3 C10.7 -22.25, 21.64 -25.81, 27.68 -23.69 C33.72 -21.57, 39.89 -8.6, 42.34 -5.59 M0 0 C1.01 -3.05, 1.48 -14.36, 6.09 -18.3 C10.7 -22.25, 21.64 -25.81, 27.68 -23.69 C33.72 -21.57, 39.89 -8.6, 42.34 -5.59" stroke="#000000" stroke-width="1" fill="none"></path></g><g transform="translate(814.131153376112 147.40901176355086) rotate(105.81660264955728 21.168080501267582 -12.161343555238773)"><path d="M33.08 -12.65 C35.04 -11.15, 37.01 -9.65, 42.34 -5.59 M33.08 -12.65 C36.01 -10.42, 38.94 -8.18, 42.34 -5.59" stroke="#000000" stroke-width="1" fill="none"></path></g><g transform="translate(814.131153376112 147.40901176355086) rotate(105.81660264955728 21.168080501267582 -12.161343555238773)"><path d="M39.79 -16.95 C40.33 -14.54, 40.87 -12.13, 42.34 -5.59 M39.79 -16.95 C40.59 -13.35, 41.4 -9.76, 42.34 -5.59" stroke="#000000" stroke-width="1" fill="none"></path></g></g><g stroke-linecap="round"><g transform="translate(787.9245699065837 141.57015564357513) rotate(284.82518414831685 22.656476067036408 -12.697769561281604)"><path d="M0 0 C0.5 -3.17, -1.78 -14.94, 3 -19.03 C7.78 -23.12, 21.64 -27.24, 28.71 -24.54 C35.78 -21.85, 42.63 -6.48, 45.42 -2.86 M0 0 C0.5 -3.17, -1.78 -14.94, 3 -19.03 C7.78 -23.12, 21.64 -27.24, 28.71 -24.54 C35.78 -21.85, 42.63 -6.48, 45.42 -2.86" stroke="#000000" stroke-width="1" fill="none"></path></g><g transform="translate(787.9245699065837 141.57015564357513) rotate(284.82518414831685 22.656476067036408 -12.697769561281604)"><path d="M34.74 -11.43 C38.7 -8.25, 42.65 -5.08, 45.42 -2.86 M34.74 -11.43 C37.97 -8.84, 41.2 -6.25, 45.42 -2.86" stroke="#000000" stroke-width="1" fill="none"></path></g><g transform="translate(787.9245699065837 141.57015564357513) rotate(284.82518414831685 22.656476067036408 -12.697769561281604)"><path d="M42.75 -16.29 C43.74 -11.31, 44.73 -6.34, 45.42 -2.86 M42.75 -16.29 C43.55 -12.23, 44.36 -8.17, 45.42 -2.86" stroke="#000000" stroke-width="1" fill="none"></path></g></g><g transform="translate(851.63448068546 121.79926201461794) rotate(0 84 9.38297872340425)"><text x="84" y="13.765957446808507" font-family="Helvetica, Segoe UI Emoji" font-size="17.872340425531913px" fill="#000000" text-anchor="middle" style="white-space: pre;" direction="ltr">Operator deployment</text></g><g stroke-linecap="round"><g transform="translate(1095.9911663662288 112.48493110448231) rotate(0 16.04558806521686 20.49925643956739)" fill-rule="evenodd"><path d="M-0.62 -1.08 L21.39 -0.92 L32.74 11.79 L30 42.88 L-0.94 41.82 L-1.05 -1.25" stroke="none" stroke-width="0" fill="#fff" fill-rule="evenodd"></path><path d="M-0.89 0.2 C4.76 1.37, 11.82 0.36, 21.12 -1.51 M0.03 -0.46 C6.67 -0.53, 13.51 0.77, 21.77 0.04 M21.8 0.34 C25.5 4.67, 28.33 7.15, 33.06 10.66 M20.53 -0.51 C24.83 3.77, 29.15 8.66, 32.11 10.79 M33.53 10.26 C30.1 22.81, 31.57 35.83, 30.36 41.08 M32.28 10.77 C31.95 18.42, 31.1 26.71, 31.91 42.78 M32.83 41.51 C21.26 42.47, 7.03 42.99, -0.22 42.44 M32.09 42.03 C18.12 41.24, 6.32 41.65, 0.36 41.57 M1.46 42.22 C-0.85 26.6, 0.84 11.64, -1.44 -1.78 M-0.39 42.59 C-0.37 31.43, 1.18 19.4, 0.83 0.2 M0 0 C0 0, 0 0, 0 0 M0 0 C0 0, 0 0, 0 0" stroke="#0eb1e4" stroke-width="1" fill="none"></path></g></g><g stroke-linecap="round"><g transform="translate(1116.7392161912294 111.9592776709132) rotate(0 -0.22350961610231934 4.934477006357525)"><path d="M0.11 -0.92 C0.69 3.45, 0.16 8.18, -0.79 10.79 M-0.24 -0.08 C-0.12 2.86, 0.57 6.22, 0.02 10.56" stroke="#0eb1e4" stroke-width="1" fill="none"></path></g></g><g stroke-linecap="round"><g transform="translate(1116.7392161912276 122.49785648437464) rotate(0 4.934477006357611 0.14813789577428338)"><path d="M-0.92 0.7 C2.37 0.16, 6 -0.8, 10.79 -0.23 M-0.08 -0.2 C3.89 0.54, 8.27 0.07, 10.56 0.04" stroke="#0eb1e4" stroke-width="1" fill="none"></path></g></g><g stroke-linecap="round" transform="translate(1095.6620585643104 111.95927767091388) rotate(0 15.80786822019013 21.077157626920226)"><path d="M1.33 -1.18 C8.41 0.32, 14.65 0.74, 31.17 1.51 M-0.37 -0.13 C10.5 0.74, 19.19 0.1, 31.7 0.03 M33.57 1.09 C32.69 16.64, 31.87 31.2, 30.26 43.25 M31.23 -0.1 C32 10.24, 31.66 19.84, 32.53 42.34 M32.17 41.83 C20.96 40.61, 5.52 40.69, 1.74 44.11 M31.87 41.36 C20.95 42.47, 9.09 43.01, 0.19 42.91 M0.08 41.8 C0.73 26.74, 0.42 13.72, -0.71 0.47 M-0.99 42.01 C-0.53 27.86, -0.54 13.34, -0.4 -0.32" stroke="#0eb1e4" stroke-width="1" fill="none"></path></g><g transform="translate(1137.6344806854595 123.9162832912136) rotate(0 74 9.5)"><text x="74" y="14" font-family="Helvetica, Segoe UI Emoji" font-size="17.872340425531913px" fill="#000000" text-anchor="middle" style="white-space: pre;" direction="ltr">Mesh-level configs</text></g><g stroke-linecap="round" transform="translate(768.3567029076821 227.1325953479513) rotate(180.89868362073796 18 18)"><path d="M24.26 1.47 C27.62 2.48, 30.97 6.15, 32.91 9.28 C34.85 12.42, 36.29 16.6, 35.87 20.26 C35.45 23.92, 33.23 28.44, 30.39 31.22 C27.55 34.01, 22.8 36.76, 18.84 36.96 C14.87 37.17, 9.61 35.01, 6.61 32.46 C3.62 29.91, 1.79 25.66, 0.88 21.69 C-0.03 17.71, -0.54 12.11, 1.15 8.62 C2.85 5.13, 6.63 1.86, 11.05 0.76 C15.47 -0.34, 24.37 1.3, 27.67 2.01 C30.97 2.71, 31.12 4.53, 30.85 5.01 M18.81 -0.76 C22.42 -1.05, 25.97 0.59, 28.72 3.08 C31.48 5.56, 34.51 10.21, 35.35 14.15 C36.2 18.08, 35.59 23.36, 33.79 26.68 C31.98 29.99, 28.04 32.45, 24.52 34.03 C21 35.61, 16.32 37.15, 12.64 36.14 C8.97 35.14, 4.49 31.79, 2.49 27.99 C0.49 24.18, -0.22 17.2, 0.63 13.31 C1.48 9.43, 4.85 7.14, 7.6 4.68 C10.35 2.22, 15.44 -0.8, 17.15 -1.46 C18.85 -2.12, 17.81 0.28, 17.86 0.7" stroke="none" stroke-width="0" fill="#62a1d6"></path><path d="M17.97 0.75 C21.77 0.45, 26.81 1.55, 29.75 3.88 C32.69 6.2, 35.01 10.66, 35.61 14.69 C36.21 18.73, 35.19 24.71, 33.36 28.09 C31.54 31.48, 28.27 33.88, 24.66 35.02 C21.06 36.16, 15.43 36.22, 11.71 34.93 C7.99 33.65, 4.2 30.56, 2.34 27.32 C0.48 24.08, -0.33 19.27, 0.54 15.49 C1.41 11.71, 4.17 7.03, 7.56 4.63 C10.94 2.24, 18.37 1.59, 20.85 1.12 C23.34 0.66, 22.72 1.59, 22.48 1.82 M11 1.03 C14.68 -0.23, 21.06 0.53, 24.89 1.99 C28.71 3.45, 31.9 6.62, 33.94 9.81 C35.99 13, 37.59 17.52, 37.14 21.12 C36.69 24.71, 34.6 28.84, 31.23 31.39 C27.86 33.94, 21.07 36.09, 16.94 36.41 C12.8 36.74, 9.33 36, 6.41 33.36 C3.48 30.73, 0.22 24.41, -0.61 20.6 C-1.45 16.8, -0.89 13.63, 1.39 10.56 C3.66 7.49, 11.26 3.67, 13.04 2.18 C14.82 0.69, 12.12 1.7, 12.04 1.62" stroke="#000000" stroke-width="1" fill="none"></path></g><g stroke-linecap="round"><g transform="translate(775.3361824011854 238.41365644827917) rotate(180.89868362073796 12.035457894448996 6.425174334340426)" fill-rule="evenodd"><path d="M0 0 L0.1 10.67 L5.69 10.72 L5.78 6.62 L16.97 14.45 L16.16 15.96 L19.85 16.65 L19.85 18.23 L24.06 18.02 L24.07 13.67 L19.88 13.72 L19.86 14.99 L18.27 12.39 L17.47 13.5 L7.85 6.27 L16.02 6.26 L15.98 7.42 L19.57 6.26 L19.57 8.33 L24.02 8.3 L24.07 3.81 L19.58 3.81 L19.52 5.2 L15.99 3.78 L16.06 4.74 L7.95 4.65 L17.2 -0.73 L17.91 0.34 L19.56 -2.13 L19.57 -0.75 L23.98 -0.71 L23.96 -5.33 L19.45 -5.38 L19.41 -3.51 L16.14 -2.96 L16.61 -1.64 L5.74 4.56 L5.6 0 L0 0" stroke="none" stroke-width="0" fill="#fff" fill-rule="evenodd"></path><path d="M0 0 C0.04 3.91, 0.07 7.82, 0.1 10.67 M0 0 C0.03 2.8, 0.05 5.6, 0.1 10.67 M0.1 10.67 C2.32 10.69, 4.55 10.71, 5.69 10.72 M0.1 10.67 C1.56 10.68, 3.03 10.69, 5.69 10.72 M5.69 10.72 C5.72 9.37, 5.75 8.03, 5.78 6.62 M5.69 10.72 C5.72 9.38, 5.75 8.05, 5.78 6.62 M5.78 6.62 C9.18 9, 12.58 11.38, 16.97 14.45 M5.78 6.62 C8.03 8.2, 10.28 9.77, 16.97 14.45 M16.97 14.45 C16.76 14.84, 16.55 15.23, 16.16 15.96 M16.97 14.45 C16.67 15.01, 16.37 15.57, 16.16 15.96 M16.16 15.96 C17.35 16.18, 18.55 16.4, 19.85 16.65 M16.16 15.96 C17.45 16.2, 18.75 16.44, 19.85 16.65 M19.85 16.65 C19.85 16.99, 19.85 17.34, 19.85 18.23 M19.85 16.65 C19.85 17.23, 19.85 17.81, 19.85 18.23 M19.85 18.23 C21.04 18.17, 22.22 18.11, 24.06 18.02 M19.85 18.23 C21.03 18.17, 22.2 18.11, 24.06 18.02 M24.06 18.02 C24.06 16.92, 24.07 15.83, 24.07 13.67 M24.06 18.02 C24.06 16.98, 24.07 15.94, 24.07 13.67 M24.07 13.67 C22.84 13.69, 21.6 13.7, 19.88 13.72 M24.07 13.67 C23.17 13.68, 22.27 13.69, 19.88 13.72 M19.88 13.72 C19.88 14.22, 19.87 14.73, 19.86 14.99 M19.88 13.72 C19.88 14.06, 19.87 14.4, 19.86 14.99 M19.86 14.99 C19.27 14.03, 18.68 13.06, 18.27 12.39 M19.86 14.99 C19.47 14.34, 19.07 13.7, 18.27 12.39 M18.27 12.39 C18.05 12.7, 17.83 13.01, 17.47 13.5 M18.27 12.39 C18.03 12.72, 17.8 13.05, 17.47 13.5 M17.47 13.5 C15.45 11.98, 13.43 10.46, 7.85 6.27 M17.47 13.5 C14.31 11.13, 11.15 8.75, 7.85 6.27 M7.85 6.27 C10.44 6.27, 13.02 6.26, 16.02 6.26 M7.85 6.27 C10.56 6.27, 13.27 6.26, 16.02 6.26 M16.02 6.26 C16.01 6.72, 15.99 7.19, 15.98 7.42 M16.02 6.26 C16.01 6.56, 16 6.87, 15.98 7.42 M15.98 7.42 C17.13 7.05, 18.28 6.68, 19.57 6.26 M15.98 7.42 C17.16 7.04, 18.35 6.65, 19.57 6.26 M19.57 6.26 C19.57 6.71, 19.57 7.16, 19.57 8.33 M19.57 6.26 C19.57 6.91, 19.57 7.55, 19.57 8.33 M19.57 8.33 C20.87 8.32, 22.17 8.32, 24.02 8.3 M19.57 8.33 C20.54 8.33, 21.51 8.32, 24.02 8.3 M24.02 8.3 C24.03 7.25, 24.05 6.2, 24.07 3.81 M24.02 8.3 C24.03 7.37, 24.04 6.43, 24.07 3.81 M24.07 3.81 C23.09 3.81, 22.11 3.81, 19.58 3.81 M24.07 3.81 C22.84 3.81, 21.61 3.81, 19.58 3.81 M19.58 3.81 C19.56 4.24, 19.54 4.67, 19.52 5.2 M19.58 3.81 C19.56 4.27, 19.54 4.74, 19.52 5.2 M19.52 5.2 C18.52 4.8, 17.53 4.4, 15.99 3.78 M19.52 5.2 C18.32 4.72, 17.13 4.24, 15.99 3.78 M15.99 3.78 C16 3.97, 16.02 4.16, 16.06 4.74 M15.99 3.78 C16.01 4.1, 16.04 4.43, 16.06 4.74 M16.06 4.74 C14.01 4.71, 11.95 4.69, 7.95 4.65 M16.06 4.74 C14.36 4.72, 12.65 4.7, 7.95 4.65 M7.95 4.65 C11.12 2.8, 14.29 0.96, 17.2 -0.73 M7.95 4.65 C10.94 2.91, 13.93 1.17, 17.2 -0.73 M17.2 -0.73 C17.41 -0.41, 17.62 -0.1, 17.91 0.34 M17.2 -0.73 C17.38 -0.46, 17.55 -0.2, 17.91 0.34 M17.91 0.34 C18.35 -0.33, 18.8 -1, 19.56 -2.13 M17.91 0.34 C18.32 -0.28, 18.73 -0.9, 19.56 -2.13 M19.56 -2.13 C19.56 -1.63, 19.56 -1.14, 19.57 -0.75 M19.56 -2.13 C19.56 -1.62, 19.56 -1.1, 19.57 -0.75 M19.57 -0.75 C20.48 -0.74, 21.39 -0.73, 23.98 -0.71 M19.57 -0.75 C21.09 -0.74, 22.61 -0.72, 23.98 -0.71 M23.98 -0.71 C23.97 -2.53, 23.96 -4.34, 23.96 -5.33 M23.98 -0.71 C23.98 -1.92, 23.97 -3.12, 23.96 -5.33 M23.96 -5.33 C22.76 -5.34, 21.57 -5.35, 19.45 -5.38 M23.96 -5.33 C22.66 -5.34, 21.36 -5.36, 19.45 -5.38 M19.45 -5.38 C19.44 -4.77, 19.42 -4.16, 19.41 -3.51 M19.45 -5.38 C19.44 -4.73, 19.42 -4.07, 19.41 -3.51 M19.41 -3.51 C18.59 -3.37, 17.77 -3.23, 16.14 -2.96 M19.41 -3.51 C18.69 -3.39, 17.96 -3.27, 16.14 -2.96 M16.14 -2.96 C16.28 -2.59, 16.41 -2.21, 16.61 -1.64 M16.14 -2.96 C16.25 -2.66, 16.36 -2.35, 16.61 -1.64 M16.61 -1.64 C13.82 -0.05, 11.02 1.55, 5.74 4.56 M16.61 -1.64 C12.84 0.51, 9.06 2.66, 5.74 4.56 M5.74 4.56 C5.68 2.81, 5.63 1.06, 5.6 0 M5.74 4.56 C5.7 3.33, 5.66 2.11, 5.6 0 M5.6 0 C4.08 0, 2.56 0, 0 0 M5.6 0 C3.77 0, 1.95 0, 0 0 M0 0 C0 0, 0 0, 0 0 M0 0 C0 0, 0 0, 0 0" stroke="#000000" stroke-width="1" fill="none"></path></g></g><g transform="translate(842.0789251299043 248.74370645906228) rotate(0 72.5 8.5)"><text x="72.5" y="13" font-family="Helvetica, Segoe UI Emoji" font-size="16px" fill="#000000" text-anchor="middle" style="white-space: pre;" direction="ltr">istio-ingressgateway</text></g><g stroke-linecap="round" transform="translate(787.5889450175052 305.8887145878615) rotate(0 124.38545661657133 34.62014338635265)"><path d="M17.64 0.04 L229.95 0.47 L238.59 2.59 L244.5 3.41 L248.2 12.51 L247.44 61.35 L243.39 66.89 L231.56 69.41 L17.36 70.21 L10.19 69.77 L4.39 63.57 L1.25 57.93 L0.43 15.05 L1.08 7.86 L5.3 1.07 L16.54 -0.76" stroke="none" stroke-width="0" fill="white"></path><path d="M17.31 0 M17.31 0 C79.9 -0.01, 142.91 -0.93, 231.46 0 M231.46 0 C244.92 -0.27, 246.96 6.32, 248.77 17.31 M248.77 17.31 C248.01 25.95, 250.83 38.9, 248.77 51.93 M248.77 51.93 C250.09 63.93, 243.13 69.75, 231.46 69.24 M231.46 69.24 C185.32 71.26, 137.33 71.13, 17.31 69.24 M17.31 69.24 C6.98 68.6, 1.75 63.55, 0 51.93 M0 51.93 C0.18 44.12, -0.81 32.87, 0 17.31 M0 17.31 C0.95 5.53, 3.93 -1.98, 17.31 0" stroke="#0eb1e4" stroke-width="2.5" fill="none" stroke-dasharray="8 10"></path></g><g transform="translate(845.3991646443094 315.4861307014867) rotate(0 66.5 11.5)"><text x="66.5" y="17" font-family="Helvetica, Segoe UI Emoji" font-size="21.90476190476188px" fill="#000000" text-anchor="middle" style="white-space: pre;" direction="ltr">istio-eastwest</text></g><g stroke-linecap="round" transform="translate(771.3912281363728 326.1982519136078) rotate(180.89868362073796 18 18)"><path d="M25.94 1.59 C29.37 3.13, 32.95 7.84, 34.47 11.4 C35.98 14.96, 35.97 19.38, 35.02 22.93 C34.07 26.47, 32.03 30.64, 28.77 32.64 C25.52 34.65, 19.42 35.36, 15.48 34.94 C11.53 34.52, 7.61 32.79, 5.1 30.13 C2.6 27.46, 0.65 22.76, 0.43 18.95 C0.21 15.14, 1.67 10.19, 3.77 7.25 C5.88 4.31, 9.07 2.16, 13.05 1.33 C17.04 0.51, 25.05 1.72, 27.68 2.3 C30.32 2.87, 29.12 4.55, 28.87 4.77 M10.62 1.16 C14.01 -0.61, 19.32 -1.7, 23.17 -0.41 C27.03 0.88, 31.58 5.38, 33.75 8.89 C35.91 12.41, 36.6 17.27, 36.17 20.68 C35.73 24.09, 33.72 26.71, 31.13 29.37 C28.54 32.02, 24.73 36.25, 20.65 36.58 C16.56 36.91, 10.04 33.6, 6.63 31.36 C3.23 29.12, 1.18 26.73, 0.21 23.14 C-0.76 19.54, -0.72 13.43, 0.79 9.78 C2.31 6.14, 7.77 2.53, 9.27 1.25 C10.78 -0.03, 9.63 1.85, 9.81 2.12" stroke="none" stroke-width="0" fill="#62a1d6"></path><path d="M13.77 1.4 C17.43 0.41, 23.34 0.38, 26.81 1.98 C30.29 3.58, 33.19 7.38, 34.6 11 C36 14.62, 36.34 19.88, 35.25 23.7 C34.17 27.51, 31.15 31.75, 28.08 33.87 C25.01 35.99, 20.62 36.85, 16.84 36.42 C13.05 35.99, 8.15 34.04, 5.36 31.29 C2.58 28.53, 0.51 23.82, 0.11 19.9 C-0.3 15.98, 0.19 11.19, 2.91 7.76 C5.63 4.34, 13.58 0.61, 16.43 -0.66 C19.28 -1.93, 19.89 -0.38, 20.01 0.14 M25.27 1.27 C28.96 2.05, 33.36 5.23, 34.89 8.56 C36.41 11.9, 35.31 17.2, 34.42 21.28 C33.52 25.35, 32.38 30.69, 29.53 33 C26.68 35.32, 21.29 35.15, 17.33 35.19 C13.37 35.23, 8.35 35.4, 5.76 33.26 C3.17 31.13, 2.31 26.37, 1.79 22.38 C1.27 18.39, 0.92 13.06, 2.62 9.33 C4.32 5.6, 8.2 1.3, 11.97 -0.01 C15.75 -1.33, 23.15 1.01, 25.27 1.44 C27.39 1.87, 25 2.18, 24.72 2.58" stroke="#000000" stroke-width="1" fill="none"></path></g><g stroke-linecap="round"><g transform="translate(778.370707629876 337.4793130139358) rotate(180.89868362073796 12.035457894448996 6.425174334340426)" fill-rule="evenodd"><path d="M0 0 L0.1 10.67 L5.69 10.72 L5.78 6.62 L16.97 14.45 L16.16 15.96 L19.85 16.65 L19.85 18.23 L24.06 18.02 L24.07 13.67 L19.88 13.72 L19.86 14.99 L18.27 12.39 L17.47 13.5 L7.85 6.27 L16.02 6.26 L15.98 7.42 L19.57 6.26 L19.57 8.33 L24.02 8.3 L24.07 3.81 L19.58 3.81 L19.52 5.2 L15.99 3.78 L16.06 4.74 L7.95 4.65 L17.2 -0.73 L17.91 0.34 L19.56 -2.13 L19.57 -0.75 L23.98 -0.71 L23.96 -5.33 L19.45 -5.38 L19.41 -3.51 L16.14 -2.96 L16.61 -1.64 L5.74 4.56 L5.6 0 L0 0" stroke="none" stroke-width="0" fill="#fff" fill-rule="evenodd"></path><path d="M0 0 C0.03 2.96, 0.05 5.93, 0.1 10.67 M0 0 C0.03 3.29, 0.06 6.58, 0.1 10.67 M0.1 10.67 C1.4 10.68, 2.7 10.69, 5.69 10.72 M0.1 10.67 C2.29 10.69, 4.47 10.71, 5.69 10.72 M5.69 10.72 C5.73 9.13, 5.76 7.55, 5.78 6.62 M5.69 10.72 C5.72 9.41, 5.75 8.11, 5.78 6.62 M5.78 6.62 C8.74 8.69, 11.7 10.76, 16.97 14.45 M5.78 6.62 C8.69 8.66, 11.6 10.69, 16.97 14.45 M16.97 14.45 C16.78 14.8, 16.6 15.15, 16.16 15.96 M16.97 14.45 C16.68 15, 16.38 15.54, 16.16 15.96 M16.16 15.96 C17.28 16.16, 18.4 16.37, 19.85 16.65 M16.16 15.96 C17.07 16.13, 17.98 16.3, 19.85 16.65 M19.85 16.65 C19.85 17.2, 19.85 17.76, 19.85 18.23 M19.85 16.65 C19.85 17.12, 19.85 17.59, 19.85 18.23 M19.85 18.23 C21.14 18.16, 22.43 18.1, 24.06 18.02 M19.85 18.23 C21.38 18.15, 22.9 18.08, 24.06 18.02 M24.06 18.02 C24.06 16.4, 24.07 14.78, 24.07 13.67 M24.06 18.02 C24.06 16.98, 24.07 15.94, 24.07 13.67 M24.07 13.67 C23.13 13.68, 22.19 13.69, 19.88 13.72 M24.07 13.67 C22.49 13.69, 20.91 13.71, 19.88 13.72 M19.88 13.72 C19.88 14, 19.88 14.28, 19.86 14.99 M19.88 13.72 C19.88 14.19, 19.87 14.65, 19.86 14.99 M19.86 14.99 C19.23 13.96, 18.6 12.92, 18.27 12.39 M19.86 14.99 C19.51 14.41, 19.15 13.82, 18.27 12.39 M18.27 12.39 C18.03 12.72, 17.79 13.06, 17.47 13.5 M18.27 12.39 C18.02 12.73, 17.78 13.08, 17.47 13.5 M17.47 13.5 C14.03 10.91, 10.58 8.32, 7.85 6.27 M17.47 13.5 C13.67 10.65, 9.87 7.79, 7.85 6.27 M7.85 6.27 C10.43 6.27, 13.01 6.26, 16.02 6.26 M7.85 6.27 C10.87 6.27, 13.9 6.26, 16.02 6.26 M16.02 6.26 C16.01 6.52, 16 6.78, 15.98 7.42 M16.02 6.26 C16.01 6.65, 15.99 7.04, 15.98 7.42 M15.98 7.42 C16.91 7.12, 17.84 6.82, 19.57 6.26 M15.98 7.42 C17.04 7.08, 18.11 6.73, 19.57 6.26 M19.57 6.26 C19.57 6.91, 19.57 7.56, 19.57 8.33 M19.57 6.26 C19.57 6.79, 19.57 7.32, 19.57 8.33 M19.57 8.33 C20.51 8.33, 21.46 8.32, 24.02 8.3 M19.57 8.33 C20.93 8.32, 22.3 8.31, 24.02 8.3 M24.02 8.3 C24.04 6.86, 24.05 5.41, 24.07 3.81 M24.02 8.3 C24.04 6.83, 24.05 5.37, 24.07 3.81 M24.07 3.81 C22.51 3.81, 20.95 3.81, 19.58 3.81 M24.07 3.81 C22.85 3.81, 21.63 3.81, 19.58 3.81 M19.58 3.81 C19.56 4.29, 19.54 4.77, 19.52 5.2 M19.58 3.81 C19.57 4.19, 19.55 4.56, 19.52 5.2 M19.52 5.2 C18.35 4.73, 17.18 4.26, 15.99 3.78 M19.52 5.2 C18.37 4.74, 17.23 4.28, 15.99 3.78 M15.99 3.78 C16.01 4.04, 16.03 4.3, 16.06 4.74 M15.99 3.78 C16.02 4.14, 16.05 4.51, 16.06 4.74 M16.06 4.74 C13.51 4.71, 10.96 4.68, 7.95 4.65 M16.06 4.74 C13.99 4.71, 11.93 4.69, 7.95 4.65 M7.95 4.65 C11.4 2.64, 14.84 0.64, 17.2 -0.73 M7.95 4.65 C10.73 3.03, 13.51 1.41, 17.2 -0.73 M17.2 -0.73 C17.44 -0.36, 17.69 0.01, 17.91 0.34 M17.2 -0.73 C17.42 -0.39, 17.65 -0.05, 17.91 0.34 M17.91 0.34 C18.42 -0.43, 18.94 -1.21, 19.56 -2.13 M17.91 0.34 C18.29 -0.24, 18.68 -0.82, 19.56 -2.13 M19.56 -2.13 C19.56 -1.64, 19.56 -1.15, 19.57 -0.75 M19.56 -2.13 C19.56 -1.83, 19.56 -1.53, 19.57 -0.75 M19.57 -0.75 C21.1 -0.74, 22.64 -0.72, 23.98 -0.71 M19.57 -0.75 C21.11 -0.74, 22.66 -0.72, 23.98 -0.71 M23.98 -0.71 C23.97 -2.44, 23.96 -4.16, 23.96 -5.33 M23.98 -0.71 C23.97 -2.24, 23.96 -3.77, 23.96 -5.33 M23.96 -5.33 C22.49 -5.34, 21.02 -5.36, 19.45 -5.38 M23.96 -5.33 C22.28 -5.35, 20.61 -5.37, 19.45 -5.38 M19.45 -5.38 C19.44 -4.78, 19.43 -4.19, 19.41 -3.51 M19.45 -5.38 C19.44 -4.85, 19.43 -4.32, 19.41 -3.51 M19.41 -3.51 C18.48 -3.35, 17.56 -3.2, 16.14 -2.96 M19.41 -3.51 C18.17 -3.3, 16.92 -3.09, 16.14 -2.96 M16.14 -2.96 C16.33 -2.45, 16.51 -1.93, 16.61 -1.64 M16.14 -2.96 C16.31 -2.48, 16.49 -2, 16.61 -1.64 M16.61 -1.64 C13.91 -0.1, 11.21 1.44, 5.74 4.56 M16.61 -1.64 C14.19 -0.26, 11.76 1.13, 5.74 4.56 M5.74 4.56 C5.7 3.2, 5.65 1.84, 5.6 0 M5.74 4.56 C5.69 3.09, 5.65 1.62, 5.6 0 M5.6 0 C4.26 0, 2.92 0, 0 0 M5.6 0 C3.91 0, 2.23 0, 0 0 M0 0 C0 0, 0 0, 0 0 M0 0 C0 0, 0 0, 0 0" stroke="#000000" stroke-width="1" fill="none"></path></g></g><g transform="translate(831.5780968232414 342.3750195903756) rotate(0 78.5 8.5)"><text x="78.5" y="13" font-family="Helvetica, Segoe UI Emoji" font-size="16px" fill="#000000" text-anchor="middle" style="white-space: pre;" direction="ltr">istio-eastwestgateway</text></g><g stroke-linecap="round" transform="translate(1113.078588407258 383.7999987598546) rotate(0 18.918976984905044 13.096856694779262)"><path d="M-1.97 -2.65 L36.51 -1.62 L37.96 24.43 L-1.46 24.25" stroke="none" stroke-width="0" fill="#dbe4ec"></path><path d="M3.6 -2.71 C15.41 -2.98, 23.7 -1.6, 36.31 -0.42 M1.41 1.82 C14.26 1.66, 27.5 -2.06, 38.39 -0.33 M35.49 3.47 C41.43 12.93, 38.42 20.83, 38.85 23.02 M39.5 0.37 C39.51 11.45, 37.35 22.24, 37.91 25.84 M41.75 24.78 C26.29 28.21, 12.39 22.61, -3.95 25.61 M38.84 25.39 C28.02 27.21, 19.56 24.74, -0.8 26.87 M-1.13 23.45 C1.32 18.1, 2.11 10.51, 2.89 3.56 M-1.68 27.44 C0.44 16.4, -2.39 9.1, 0.46 -1.11" stroke="#325476" stroke-width="1" fill="none"></path></g><g stroke-linecap="round"><g transform="translate(1121.4317305609025 389.760790231682) rotate(0 0.39305827439488894 5.895418278692603)"><path d="M2.52 -1.9 C2.02 -0.07, 0.74 8.83, -0.3 11.17 M0.45 3.25 C-0.54 5.35, -1.97 11.78, -1.7 13.69" stroke="#325476" stroke-width="4" fill="none"></path></g></g><g stroke-linecap="round"><g transform="translate(1143.2708909563416 390.8197054464574) rotate(0 -0.7427738127995553 6.907712430028596)"><path d="M-1.9 1.54 C-2.58 3.01, -3.72 9.54, -3.89 11.31 M2.27 -0.09 C2.45 2.9, 2.67 11.45, 1.4 13.91" stroke="#325476" stroke-width="4" fill="none"></path></g></g><g stroke-linecap="round"><g transform="translate(1132.5046340510871 389.91171960990414) rotate(0 -1.0207587545090746 6.568787407396712)"><path d="M1.54 -2.05 C0.5 0.29, -3.01 9.64, -3.75 12.14 M-1.07 3.02 C-1.45 5.91, 2.33 13.04, 1.62 15.18" stroke="#325476" stroke-width="4" fill="none"></path></g></g><g stroke-linecap="round" transform="translate(1172.9830953150013 383.7999987598546) rotate(0 18.918976984905044 13.096856694779262)"><path d="M0.12 -1.76 L36.38 -1.94 L39.52 28.2 L1.65 26.71" stroke="none" stroke-width="0" fill="#dbe4ec"></path><path d="M-2.72 -1.54 C7.26 0.13, 20.26 3.23, 39.18 2.83 M-0.27 -1.81 C15.36 -1.05, 31.46 -1.98, 36.76 -1.17 M38.75 0.26 C39.36 6.95, 41.99 21.46, 40.32 29.52 M37.2 1.75 C38.31 7.99, 38.83 16.48, 38.12 28.15 M37.36 22.51 C23.88 25.98, 15.51 28.01, -2.34 28.19 M37.91 25.18 C27.2 27.42, 17.15 25.31, -1.78 25.63 M1.73 23.57 C2.77 23.69, 0.48 17.4, 0.81 -3.37 M-1.95 25.61 C0.23 15.59, -1.21 5.88, -0.67 -0.81" stroke="#325476" stroke-width="1" fill="none"></path></g><g stroke-linecap="round"><g transform="translate(1181.3362374686462 389.7607902316822) rotate(0 -1.7370797135222347 6.131229480175648)"><path d="M-1.9 -1.08 C-2.65 1.42, -3.24 10.23, -2.91 12.92 M2.26 -4.13 C0.91 -0.99, -5.23 13.94, -5.73 16.39" stroke="#325476" stroke-width="4" fill="none"></path></g></g><g stroke-linecap="round"><g transform="translate(1203.175397864085 390.81970544645765) rotate(0 -0.49978030520560424 5.486675813166755)"><path d="M-1.08 -1.07 C-1.09 1.76, -2.32 12.55, -2.14 15.09 M3.53 -4.12 C3.31 -1.9, -3.82 8.89, -4.53 11.1" stroke="#325476" stroke-width="4" fill="none"></path></g></g><g stroke-linecap="round"><g transform="translate(1192.4091409588304 389.91171960990414) rotate(0 1.17995854598405 6.082467236040543)"><path d="M-1.07 -0.29 C-0.75 2.4, 0.01 12.5, 0.03 15.09 M3.55 -2.92 C3.84 -0.92, -0.23 8.81, -1.19 11.09" stroke="#325476" stroke-width="4" fill="none"></path></g></g><g stroke-linecap="round" transform="translate(1232.887602222745 383.7999987598546) rotate(0 18.918976984905044 13.096856694779262)"><path d="M1.68 2 L39.49 0.51 L41.49 27.74 L-1.24 24.04" stroke="none" stroke-width="0" fill="#dbe4ec"></path><path d="M2.68 2.67 C11.24 2.91, 23.44 0.82, 41.67 -0.55 M1.85 -1.25 C6.86 -1.05, 17.6 2.08, 39.16 0.46 M41.48 1.19 C40.46 11.35, 38.72 19.08, 40.26 24.91 M38.44 -0.22 C38.14 12.11, 37.15 20.78, 38.79 25.95 M35.53 27.65 C27.63 28.08, 20.51 24.8, 2.92 26.33 M36.82 24.75 C26.63 25.88, 17.6 26.92, -0.78 27.06 M0.6 29.53 C0.43 16.69, 2.12 15.67, -3.09 -3.9 M-0.98 24.87 C-0.79 18.3, -0.06 11.14, -0.73 -0.97" stroke="#325476" stroke-width="1" fill="none"></path></g><g stroke-linecap="round"><g transform="translate(1241.2407443763896 389.7607902316822) rotate(0 -0.37893188360214936 7.806697570799258)"><path d="M1.88 1.87 C1.9 4.45, -0.71 13.22, -0.91 15.19 M-0.55 0.42 C-0.71 2.25, -2.77 8.47, -2.64 11.26" stroke="#325476" stroke-width="4" fill="none"></path></g></g><g stroke-linecap="round"><g transform="translate(1263.0799047718283 390.81970544645765) rotate(0 0.4222243959915204 7.372729914157048)"><path d="M1.87 0.94 C1.94 3.25, 0.67 13.27, 0.14 15.77 M-0.56 -1.02 C-0.65 0.4, -0.64 10, -1.03 12.14" stroke="#325476" stroke-width="4" fill="none"></path></g></g><g stroke-linecap="round"><g transform="translate(1252.3136478665742 389.91171960990414) rotate(0 -0.5711675512236525 7.1599761385902525)"><path d="M0.94 1.98 C0.74 3.96, 0.73 11.92, 0.71 13.73 M-2 0.59 C-2.5 1.48, -0.56 6.48, -0.14 9" stroke="#325476" stroke-width="4" fill="none"></path></g></g><g stroke-linecap="round"><g transform="translate(656.4393255947002 70.4880304191638) rotate(0 -29.66813175570212 82.68824805688935)"><path d="M0 0 C-13.3 37.06, -26.59 74.11, -59.34 165.38 M0 0 C-16.31 45.45, -32.61 90.9, -59.34 165.38" stroke="#000000" stroke-width="1" fill="none"></path></g><g transform="translate(656.4393255947002 70.4880304191638) rotate(0 -29.66813175570212 82.68824805688935)"><path d="M-59.47 135.38 C-59.44 142.1, -59.41 148.82, -59.34 165.38 M-59.47 135.38 C-59.44 143.62, -59.4 151.87, -59.34 165.38" stroke="#000000" stroke-width="1" fill="none"></path></g><g transform="translate(656.4393255947002 70.4880304191638) rotate(0 -29.66813175570212 82.68824805688935)"><path d="M-40.16 142.31 C-44.46 147.48, -48.75 152.65, -59.34 165.38 M-40.16 142.31 C-45.43 148.65, -50.7 154.99, -59.34 165.38" stroke="#000000" stroke-width="1" fill="none"></path></g></g><g stroke-linecap="round"><g transform="translate(702.0321338336705 78.42569894190837) rotate(0 29.4444444444444 76.11111111111103)"><path d="M0 0 C19.24 49.74, 38.49 99.49, 58.89 152.22 M0 0 C18.06 46.68, 36.12 93.36, 58.89 152.22" stroke="#000000" stroke-width="1" fill="none"></path></g><g transform="translate(702.0321338336705 78.42569894190837) rotate(0 29.4444444444444 76.11111111111103)"><path d="M39.15 129.63 C45.6 137.01, 52.05 144.4, 58.89 152.22 M39.15 129.63 C45.2 136.56, 51.26 143.49, 58.89 152.22" stroke="#000000" stroke-width="1" fill="none"></path></g><g transform="translate(702.0321338336705 78.42569894190837) rotate(0 29.4444444444444 76.11111111111103)"><path d="M58.29 122.23 C58.48 132.03, 58.68 141.83, 58.89 152.22 M58.29 122.23 C58.47 131.43, 58.66 140.62, 58.89 152.22" stroke="#000000" stroke-width="1" fill="none"></path></g></g><g stroke-linecap="round"><g transform="translate(264.2543560558924 410.64792116413037) rotate(0 253.42921303480054 -20.219116045576357)"><path d="M-0.93 1.01 C68.17 2.51, 330.88 18.74, 415.66 9.76 C500.45 0.78, 492.62 -42.64, 507.78 -52.88" stroke="#000000" stroke-width="1.5" fill="none" stroke-dasharray="8 9"></path></g><g transform="translate(264.2543560558924 410.64792116413037) rotate(0 253.42921303480054 -20.219116045576357)"><path d="M502.79 -23.46 C503.12 -34.13, 506.16 -47.39, 509.76 -51.31" stroke="#000000" stroke-width="1.5" fill="none"></path></g><g transform="translate(264.2543560558924 410.64792116413037) rotate(0 253.42921303480054 -20.219116045576357)"><path d="M485.55 -34.59 C492.66 -40.8, 502.41 -49.72, 509.76 -51.31" stroke="#000000" stroke-width="1.5" fill="none"></path></g></g><g stroke-linecap="round"><g transform="translate(789.3299660312316 365.169970633473) rotate(0 159.00704722316 34.59850512731222)"><path d="M-0.94 0.66 C24.13 11.83, 97.03 61.26, 150.34 67.66 C203.66 74.06, 291.03 43.69, 318.95 39.05" stroke="#000000" stroke-width="1.5" fill="none" stroke-dasharray="8 9"></path></g><g transform="translate(789.3299660312316 365.169970633473) rotate(0 159.00704722316 34.59850512731222)"><path d="M295.1 57.33 C301.14 52.18, 307.05 45.51, 318.77 38.27" stroke="#000000" stroke-width="1.5" fill="none"></path></g><g transform="translate(789.3299660312316 365.169970633473) rotate(0 159.00704722316 34.59850512731222)"><path d="M290.23 37.39 C297.8 38.12, 305.14 37.28, 318.77 38.27" stroke="#000000" stroke-width="1.5" fill="none"></path></g></g></svg>